<?xml version="1.0" encoding="utf-8"?>
<!-- Generator: Adobe Illustrator 26.5.0, SVG Export Plug-In . SVG Version: 6.00 Build 0)  -->
<svg version="1.1" id="Warstwa_1" xmlns="http://www.w3.org/2000/svg" xmlns:xlink="http://www.w3.org/1999/xlink" x="0px" y="0px"
	 viewBox="0 0 1258.1 1309.4" style="enable-background:new 0 0 1258.1 1309.4;" xml:space="preserve">
<style type="text/css">
	.st0{fill:#DADFF2;}
	.st1{fill:url(#SVGID_1_);}
	.st2{fill:url(#SVGID_00000125575456292982185900000005431849932915266204_);}
	.st3{fill:url(#SVGID_00000082341324466583502160000005168545259297470389_);}
	.st4{fill:#434697;}
	.st5{fill:#5D62AA;}
	.st6{fill:#424596;}
	.st7{fill:#CDD0EA;}
	.st8{fill:#BABEE1;}
	.st9{fill:#EFEFF3;}
	.st10{fill:url(#SVGID_00000024702149947249777290000014508030398929318024_);}
	.st11{fill:#FFFFFF;}
	.st12{fill:url(#SVGID_00000161622008075507700020000010445984282079893657_);}
	.st13{fill:url(#SVGID_00000124852428988308200980000003422588032974046138_);}
	.st14{fill:url(#SVGID_00000062175390597578560770000018210090275841477002_);}
	.st15{fill:#F7F6FB;}
	.st16{fill:url(#SVGID_00000009551283960353279050000001214553678906654623_);}
	.st17{fill:url(#SVGID_00000018212424770926961030000007986771962507145602_);}
	.st18{fill:url(#SVGID_00000016780983829202383560000017978766506598270133_);}
	.st19{fill:#4F54A0;}
	.st20{fill:#37348B;}
	.st21{fill:url(#SVGID_00000175289252800262571440000010620936789452626098_);}
	.st22{fill:url(#SVGID_00000147203676920114445510000004019480232153562245_);}
	.st23{fill:url(#SVGID_00000077290189164069893660000006523740753507098802_);}
	.st24{fill:url(#SVGID_00000031889888785444920250000010322678561709504434_);}
	.st25{fill:url(#SVGID_00000022546181235757804380000018055049693707760043_);}
	.st26{fill:url(#SVGID_00000004509208972582130390000001013589419955440275_);}
	.st27{fill:url(#SVGID_00000133501991926683660050000013179500273624024247_);}
	.st28{fill:url(#SVGID_00000068636730463357469620000008287457060520401546_);}
	.st29{fill:url(#SVGID_00000022553247924752802600000006441615400817431990_);}
	.st30{fill:url(#SVGID_00000132070348325200950830000003889396389867028901_);}
	.st31{fill:url(#SVGID_00000078030388803928875050000015209957574079317931_);}
	.st32{fill:url(#SVGID_00000047762815125019402000000010149965080002176173_);}
	.st33{fill:url(#SVGID_00000139992728914664054470000018072765833736099720_);}
	.st34{fill:url(#SVGID_00000091001104023699857060000001219052346128367248_);}
	.st35{fill:url(#SVGID_00000130644931833238959210000017709379241280136340_);}
	.st36{fill:#F1F1F6;}
	.st37{fill:#7377B7;}
	.st38{fill:#FFD141;}
	.st39{fill:#CFD2EB;}
	.st40{fill:#BBC0E2;}
	.st41{fill:url(#SVGID_00000158009892449974628390000016337285562643812286_);}
	.st42{fill:url(#SVGID_00000106846791060236244710000003107174420512087695_);}
	.st43{fill:url(#SVGID_00000036968404960259153820000009731585617101520265_);}
	.st44{fill:#E09200;}
	.st45{fill:#C4CAE8;}
	.st46{fill:url(#SVGID_00000106133114711736236190000006987860445627377041_);}
	.st47{fill:#414798;}
	.st48{fill:url(#SVGID_00000051346631505770954870000017057171834222249661_);}
	.st49{fill:url(#SVGID_00000078767448885227932800000012545135349983685793_);}
	.st50{fill:url(#SVGID_00000147916977904077067200000010926533787299129523_);}
	.st51{fill:url(#SVGID_00000119103578147128102220000006746385185569770409_);}
	.st52{fill:url(#SVGID_00000109751351683692413540000012278947376118511509_);}
	.st53{fill:url(#SVGID_00000165948211507154528230000005377841702008564144_);}
	.st54{fill:url(#SVGID_00000049196113111048394320000000813700052425532052_);}
	.st55{fill:url(#SVGID_00000004523690530370576860000013289631604954888586_);}
	.st56{fill:url(#SVGID_00000083808696715688854250000007557743534948354180_);}
	.st57{fill:url(#SVGID_00000165231677383154968730000009030899350719460241_);}
	.st58{clip-path:url(#SVGID_00000142857441729750615240000012954104648322387880_);}
	.st59{fill:#2B2B66;}
	.st60{fill:url(#SVGID_00000170997232337860426390000002851792146067731079_);}
	.st61{fill:url(#SVGID_00000033354819273627106370000012020144217706933155_);}
	.st62{fill:url(#SVGID_00000035509867984986983890000008202736079619770497_);}
	.st63{fill:url(#SVGID_00000048495596957006808400000008802184142727976840_);}
	.st64{fill:#5054A0;}
	.st65{fill:#7276B7;}
	.st66{fill:url(#SVGID_00000006682855301810206620000000534076207397594241_);}
	.st67{clip-path:url(#SVGID_00000154391157443877187310000007099473094104785831_);}
	.st68{fill:url(#SVGID_00000019642084478268622170000011538483218989243524_);}
	.st69{fill:url(#SVGID_00000138534618696237551900000018222032458420229529_);}
	.st70{fill:#FBD0A8;}
	.st71{fill:url(#SVGID_00000091727399140217528350000009445870261421049480_);}
	.st72{fill:url(#SVGID_00000145755909606288863570000002071665119932351407_);}
	.st73{fill:url(#SVGID_00000159428364276597437900000017501241927041528467_);}
	.st74{fill:url(#SVGID_00000021813755318837416340000017767220869046908055_);}
	.st75{fill:url(#SVGID_00000145052578389519599860000011030072326456325286_);}
	.st76{fill:url(#SVGID_00000123442565507622937450000012457400398224763312_);}
	.st77{fill:#FBBA13;}
	.st78{fill:url(#SVGID_00000070825041192090156610000011806682398643599768_);}
	.st79{fill:url(#SVGID_00000132808586933706896990000003333019909341452679_);}
	.st80{fill:url(#SVGID_00000091709112794230287630000016943944197337094558_);}
	.st81{fill:url(#SVGID_00000092440921129359252370000012510457327426896315_);}
	.st82{fill:url(#SVGID_00000016040123076209922190000013832196203497984686_);}
	.st83{fill:url(#SVGID_00000091003832548436255860000002888851116696557718_);}
	.st84{fill:url(#SVGID_00000124862502117727111790000011149485578962880651_);}
	.st85{fill:url(#SVGID_00000068663376569293067160000007742067152016683437_);}
	.st86{fill:url(#SVGID_00000081621716291814847530000013679605694119922360_);}
	.st87{fill:url(#SVGID_00000078007935215745146730000002273395332526978960_);}
	.st88{fill:url(#SVGID_00000169537124863587239300000008502030210325627786_);}
	.st89{fill:url(#SVGID_00000111167751914037071360000004474234798855580565_);}
	.st90{fill:#BBBFE2;}
	.st91{fill:url(#SVGID_00000135664026648033050470000010244883182025959856_);}
	.st92{fill:#2A2B62;}
	.st93{fill:#414797;}
	.st94{fill:url(#SVGID_00000122711870609289200660000014803184868415659953_);}
	.st95{fill:url(#SVGID_00000098193958978319673460000002997719413292867209_);}
	.st96{fill:url(#SVGID_00000016772464165862761880000005193436560147841432_);}
	.st97{fill:url(#SVGID_00000180326276626816742150000007384586084984069772_);}
	.st98{fill:url(#SVGID_00000155105229337917878770000003514383418058558647_);}
	.st99{fill:url(#SVGID_00000014626392602668680510000018222265892265631413_);}
	.st100{fill:url(#SVGID_00000128478750938889757630000007877402194396570038_);}
	.st101{fill:url(#SVGID_00000065052973007937122840000002815690870047076534_);}
	.st102{fill:#BABFE2;}
	.st103{fill:url(#SVGID_00000085962479165030390030000009438643369975210645_);}
	.st104{fill:url(#SVGID_00000093138726432881945890000012157844192075324295_);}
	.st105{fill:url(#SVGID_00000056405122144395787730000004375184769403304093_);}
	.st106{fill:url(#SVGID_00000016064799509539767080000004451088993392382085_);}
	.st107{fill:url(#SVGID_00000044881624866618679770000010945353016719327933_);}
	.st108{fill:url(#SVGID_00000009585580604546371950000006798957699579384449_);}
	.st109{fill:url(#SVGID_00000050628129643033010330000010385564529468133302_);}
	.st110{fill:url(#SVGID_00000101815518234113038830000013824850528157508489_);}
	.st111{fill:url(#SVGID_00000001666150828985523430000010763618508125340578_);}
	.st112{fill:url(#SVGID_00000041993695923944615030000003192416513984530308_);}
	.st113{fill:url(#SVGID_00000100353320677989624400000002040384365553554097_);}
	.st114{fill:url(#SVGID_00000173841394060369494620000006550926624670868914_);}
	.st115{fill:url(#SVGID_00000057128313458985150190000013783575667266146697_);}
	.st116{fill:url(#SVGID_00000096744371932319806630000013675364414223112834_);}
	.st117{fill:url(#SVGID_00000083771262493586872020000017297498495771338638_);}
	.st118{fill:url(#SVGID_00000011022022181623690370000000802888928796013746_);}
	.st119{fill:#FFEA53;}
</style>
<path class="st0" d="M1258.1,714.7c0-153.5-180.7-174.5-180.7-320.2c0-140,180.7-170.5,180.7-350.5
	C1258.1,311,1258.1,714.7,1258.1,714.7z"/>
<linearGradient id="SVGID_1_" gradientUnits="userSpaceOnUse" x1="622.779" y1="1245.7753" x2="790.9782" y2="1245.7753">
	<stop  offset="0" style="stop-color:#C3C9E7"/>
	<stop  offset="1" style="stop-color:#FFFFFF"/>
</linearGradient>
<rect x="622.8" y="1235.1" class="st1" width="168.2" height="21.3"/>
<linearGradient id="SVGID_00000117634733787952552340000004785684289129043343_" gradientUnits="userSpaceOnUse" x1="112.197" y1="950.9902" x2="280.3962" y2="950.9902">
	<stop  offset="0" style="stop-color:#C3C9E7"/>
	<stop  offset="1" style="stop-color:#FFFFFF"/>
</linearGradient>
<rect x="112.2" y="940.3" style="fill:url(#SVGID_00000117634733787952552340000004785684289129043343_);" width="168.2" height="21.3"/>
<linearGradient id="SVGID_00000042713087492678569270000011976860419069066398_" gradientUnits="userSpaceOnUse" x1="956.2908" y1="1053.2245" x2="1124.49" y2="1053.2245">
	<stop  offset="0" style="stop-color:#C3C9E7"/>
	<stop  offset="1" style="stop-color:#FFFFFF"/>
</linearGradient>
<rect x="956.3" y="1042.6" style="fill:url(#SVGID_00000042713087492678569270000011976860419069066398_);" width="168.2" height="21.3"/>
<g>
	<g>
		<polygon class="st4" points="956.3,1063.9 899.3,839 916.7,829 973.6,1053.9 		"/>
		<polygon class="st4" points="640.1,1246.4 697.1,955.8 679.7,965.8 622.8,1256.4 		"/>
		<polygon class="st5" points="622.8,1256.4 605.5,1246.4 662.4,955.8 679.7,965.8 		"/>
		<polygon class="st5" points="956.3,1063.9 939,1053.9 882,829 899.3,839 		"/>
		<polygon class="st4" points="674.7,929.4 674.7,985.4 950.5,826.1 950.5,770.1 		"/>
		<polygon class="st5" points="628.5,902.7 628.5,958.7 674.7,985.4 674.7,929.4 		"/>
	</g>
	<g>
		<polygon class="st6" points="445.7,735.3 388.7,544.2 406.1,534.2 463,725.3 		"/>
		<polygon class="st4" points="129.5,951.6 186.5,661 169.2,671 112.2,961.6 		"/>
		<polygon class="st5" points="112.2,961.6 94.9,951.6 151.8,661 169.2,671 		"/>
		<polygon class="st5" points="445.7,735.3 428.4,725.3 371.4,534.2 388.7,544.2 		"/>
		<polygon class="st6" points="164.1,634.6 164.1,690.6 440,531.3 440,475.3 		"/>
		<polygon class="st5" points="118,607.9 118,663.9 164.1,690.6 164.1,634.6 		"/>
	</g>
	<polygon class="st7" points="675.1,972.9 42.6,607.7 42.6,591.7 675.1,956.9 	"/>
	<polygon class="st8" points="675.1,956.9 1025.9,754.3 1025.9,770.3 675.1,972.9 	"/>
	<polygon class="st9" points="42.6,591.7 393.4,389.2 1025.9,754.3 675.1,956.9 	"/>
</g>
<g>
	
		<linearGradient id="SVGID_00000175281569932028123190000006942531347109480832_" gradientUnits="userSpaceOnUse" x1="561.24" y1="808.2343" x2="613.2198" y2="808.2343">
		<stop  offset="0" style="stop-color:#C3C9E7"/>
		<stop  offset="1" style="stop-color:#FFFFFF"/>
	</linearGradient>
	<path style="fill:url(#SVGID_00000175281569932028123190000006942531347109480832_);" d="M607.2,794.5c0,0-1.3,5-4.1,6.6
		l-26.4,15.3l-1.3-0.9c0,0-6.2,3.2-14,6.5c14.9,0,17.1-1,19.9-2.4c16.5-7.3,23.8-11.3,31.8-18.2
		C614.8,799.7,607.2,794.5,607.2,794.5z"/>
	<path class="st11" d="M603,786.7c2.6,1.5,4.1,3.1,4.2,4.5c0.1,1.6-1.6,3.1-4.5,4.1c-11.9,4.6-18.7,8.8-31.5,18.4
		c-5.5,4.4-14.6,6.1-20.1,2.9c-2.6-1.5-3.9-2.2-6.4-3.7c-2.8-1.6-4.1-4-4.1-6.6c-0.1-2.6,1.1-5.2,3.9-7.5
		c12.1-9.8,20.3-14.3,31.7-18.6c5.5-2,14.9-0.5,20.5,2.7C599.1,784.5,600.4,785.2,603,786.7z"/>
	
		<linearGradient id="SVGID_00000050626457906401467430000014877871474942412724_" gradientUnits="userSpaceOnUse" x1="540.491" y1="806.5983" x2="607.1572" y2="806.5983">
		<stop  offset="0.264" style="stop-color:#5D62AA"/>
		<stop  offset="0.3716" style="stop-color:#5256A1"/>
		<stop  offset="0.4944" style="stop-color:#424596"/>
	</linearGradient>
	<path style="fill:url(#SVGID_00000050626457906401467430000014877871474942412724_);" d="M602.6,795.4
		c-11.9,4.6-18.7,8.8-31.5,18.4c-5.5,4.4-14.6,6.1-20.1,2.9c-2.6-1.5-3.9-2.2-6.4-3.7c-2.8-1.6-4.1-4-4.1-6.6v3.3c0,0.2,0,0.4,0,0.6
		v0.1h0c0.2,2,1.5,3.9,4.1,5.4l6.4,3.7c5.5,3.2,14.5,3.2,20.1,0l31.9-18.4c2.8-1.6,4.2-3.7,4.1-5.9h0v-4
		C607.2,792.9,605.5,794.3,602.6,795.4z"/>
	<path class="st8" d="M582.3,791.5c-1.3-0.7-1.3-1.8-0.1-2.2c1.3-0.4,3.3,0,4.6,0.7c1.1,0.6,1.2,1.4,0,1.9
		C585.5,792.4,583.5,792.2,582.3,791.5z"/>
</g>
<linearGradient id="SVGID_00000016052226316263436970000017824344244229159555_" gradientUnits="userSpaceOnUse" x1="420.9274" y1="506.4696" x2="528.1774" y2="506.4696">
	<stop  offset="0" style="stop-color:#C7CCE7"/>
	<stop  offset="0.1934" style="stop-color:#D9DCEF"/>
	<stop  offset="0.4762" style="stop-color:#EEEFF8"/>
	<stop  offset="0.7375" style="stop-color:#FBFBFD"/>
	<stop  offset="0.9551" style="stop-color:#FFFFFF"/>
</linearGradient>
<polygon style="fill:url(#SVGID_00000016052226316263436970000017824344244229159555_);" points="528.2,471.7 420.9,482.6 
	420.9,530.3 528.2,541.3 "/>
<g>
	
		<linearGradient id="SVGID_00000067959215356324060950000002564120091219497618_" gradientUnits="userSpaceOnUse" x1="365.8474" y1="481.0256" x2="474.8942" y2="481.0256">
		<stop  offset="0" style="stop-color:#CFD2EB"/>
		<stop  offset="0.5358" style="stop-color:#C2C6E5"/>
		<stop  offset="1" style="stop-color:#BBC0E2"/>
	</linearGradient>
	<path style="fill:url(#SVGID_00000067959215356324060950000002564120091219497618_);" d="M365.8,431.7l13.9,75.2
		c0,6,4,12,11.9,16.6c15.8,9.1,41.6,9.1,57.4,0c7.9-4.6,11.9-10.6,11.9-16.6l13.9-75.2H365.8z"/>
	<path class="st15" d="M365.8,431.7c0-8.1,5.3-16.1,16-22.3c21.3-12.3,55.8-12.3,77.1,0c10.6,6.1,16,14.2,16,22.3
		c0,8.1-5.3,16.1-16,22.3c-21.3,12.3-55.8,12.3-77.1,0C371.2,447.8,365.8,439.8,365.8,431.7z"/>
	
		<linearGradient id="SVGID_00000158017309564478340030000010359185581279745693_" gradientUnits="userSpaceOnUse" x1="377.6696" y1="421.2499" x2="463.0758" y2="421.2499">
		<stop  offset="0" style="stop-color:#BBC0E2"/>
		<stop  offset="1" style="stop-color:#CFD2EB"/>
	</linearGradient>
	<path style="fill:url(#SVGID_00000158017309564478340030000010359185581279745693_);" d="M390.2,421.7c16.7-9.6,43.7-9.6,60.4,0
		c6.7,3.9,10.7,8.7,12,13.7c0.3-1.2,0.5-2.5,0.5-3.7c0-6.3-4.2-12.6-12.5-17.4c-16.7-9.6-43.7-9.6-60.4,0
		c-8.3,4.8-12.5,11.1-12.5,17.4c0,1.2,0.2,2.5,0.5,3.7C379.5,430.4,383.5,425.6,390.2,421.7z"/>
	<path class="st4" d="M390.2,449.2c16.7,9.6,43.7,9.6,60.4,0c6.7-3.9,10.7-8.7,12-13.7c-1.3-5-5.3-9.9-12-13.7
		c-16.7-9.6-43.7-9.6-60.4,0c-6.7,3.9-10.7,8.7-12,13.7C379.5,440.5,383.5,445.3,390.2,449.2z"/>
	
		<linearGradient id="SVGID_00000157286338328525919390000005859584177572813448_" gradientUnits="userSpaceOnUse" x1="416.5838" y1="433.2675" x2="462.5466" y2="433.2675">
		<stop  offset="0" style="stop-color:#C4CAE8"/>
		<stop  offset="0.2446" style="stop-color:#C8CDE9"/>
		<stop  offset="0.4699" style="stop-color:#D1D5ED"/>
		<stop  offset="0.6876" style="stop-color:#E1E4F4"/>
		<stop  offset="0.8994" style="stop-color:#F8F9FD"/>
		<stop  offset="0.9551" style="stop-color:#FFFFFF"/>
	</linearGradient>
	<path style="fill:url(#SVGID_00000157286338328525919390000005859584177572813448_);" d="M419.3,451c5.8,0,15.3,0.3,26,0.7
		c1.8-0.8,3.6-1.6,5.2-2.5c6.7-3.9,10.7-8.7,12-13.7c-1.3-5-5.3-9.9-12-13.7c-6.4-3.7-14.4-6-22.8-6.8c-6.7,1.8-11.2,3.1-11.2,3.1
		L419.3,451z"/>
	
		<linearGradient id="SVGID_00000058587914800849368160000006356220279435021958_" gradientUnits="userSpaceOnUse" x1="429.1072" y1="424.8398" x2="474.8942" y2="424.8398">
		<stop  offset="0" style="stop-color:#C7CCE7"/>
		<stop  offset="0.2979" style="stop-color:#D4D7ED"/>
		<stop  offset="0.8707" style="stop-color:#F7F7FC"/>
		<stop  offset="1" style="stop-color:#FFFFFF"/>
	</linearGradient>
	<path style="fill:url(#SVGID_00000058587914800849368160000006356220279435021958_);" d="M458.9,409.5c-4.2-2.4-8.9-4.3-13.9-5.8
		c-5.8,1.3-11.3,2.7-16,3.9c7.9,0.9,15.4,3.2,21.5,6.7c8.3,4.8,12.5,11.1,12.5,17.4c0,1.2-0.2,2.5-0.5,3.7c-0.9,3.5-3.1,6.8-6.5,9.8
		c4.3,0.2,8.7,0.5,13,0.7c3.9-4.5,5.9-9.4,5.9-14.3C474.9,423.7,469.6,415.6,458.9,409.5z"/>
</g>
<g>
	<path class="st19" d="M473.4,373.6c-14.3-14.4-34.5,15.9-39.8,24c0,0,0.6,1.4,1.9,3.6C448.5,388,466.9,377.3,473.4,373.6z"/>
	<path class="st20" d="M474.9,375.2c-0.5-0.6-0.9-1.1-1.4-1.6c-6.6,3.7-24.9,14.4-37.9,27.6c1.2,2,3,4.8,5.4,7.8
		C465.9,403.1,485.7,389,474.9,375.2z"/>
</g>
<g>
	<path class="st5" d="M399.9,291.6c10.2-10.3,24.8,11.4,28.6,17.2c0,0-0.4,1-1.4,2.6C417.7,301.9,404.6,294.2,399.9,291.6z"/>
	<path class="st19" d="M398.8,292.7c0.3-0.4,0.7-0.8,1-1.2c4.7,2.6,17.9,10.4,27.2,19.8c-0.9,1.5-2.1,3.4-3.8,5.6
		C405.2,312.8,391,302.6,398.8,292.7z"/>
</g>
<g>
	
		<linearGradient id="SVGID_00000165204643676064886110000018273236172235197334_" gradientUnits="userSpaceOnUse" x1="388.2645" y1="399.5627" x2="447.7906" y2="404.7882">
		<stop  offset="0" style="stop-color:#5D62AA"/>
		<stop  offset="0.2726" style="stop-color:#5055A1"/>
		<stop  offset="0.62" style="stop-color:#464A9A"/>
		<stop  offset="0.8989" style="stop-color:#434697"/>
	</linearGradient>
	<path style="fill:url(#SVGID_00000165204643676064886110000018273236172235197334_);" d="M419.3,356c-15.9,6.2-31.4,21.2-17.8,89.7
		c0.5,0.4,5.7,1.4,8.1,2.1C402.5,379.5,409.4,364.7,419.3,356z"/>
	
		<linearGradient id="SVGID_00000018940017619467337840000012632275208261794948_" gradientUnits="userSpaceOnUse" x1="387.6876" y1="400.7023" x2="448.0108" y2="405.9979">
		<stop  offset="0" style="stop-color:#7377B7"/>
		<stop  offset="0.3245" style="stop-color:#5F64AB"/>
		<stop  offset="0.6434" style="stop-color:#5358A3"/>
		<stop  offset="0.8989" style="stop-color:#4F54A0"/>
	</linearGradient>
	<path style="fill:url(#SVGID_00000018940017619467337840000012632275208261794948_);" d="M409.6,447.7c3,1.7,5.8,2.6,9.7,3.2v-95
		C409.4,364.7,402.5,379.5,409.6,447.7z"/>
	
		<linearGradient id="SVGID_00000005979282759689142430000002667230108121272485_" gradientUnits="userSpaceOnUse" x1="388.322" y1="398.8826" x2="447.8529" y2="404.1086">
		<stop  offset="0" style="stop-color:#7377B7"/>
		<stop  offset="0.3245" style="stop-color:#5F64AB"/>
		<stop  offset="0.6434" style="stop-color:#5358A3"/>
		<stop  offset="0.8989" style="stop-color:#4F54A0"/>
	</linearGradient>
	<path style="fill:url(#SVGID_00000005979282759689142430000002667230108121272485_);" d="M419.3,356c-42.9,0-27,66.8-22.4,83.5
		c0.7,2.2,2.2,4.3,4.6,6.2C387.9,377.2,403.4,362.2,419.3,356z"/>
	
		<linearGradient id="SVGID_00000160167668330105966680000010334982896890304902_" gradientUnits="userSpaceOnUse" x1="388.4661" y1="397.2615" x2="447.9931" y2="402.4872">
		<stop  offset="0" style="stop-color:#5D62AA"/>
		<stop  offset="0.2726" style="stop-color:#5055A1"/>
		<stop  offset="0.62" style="stop-color:#464A9A"/>
		<stop  offset="0.8989" style="stop-color:#434697"/>
	</linearGradient>
	<path style="fill:url(#SVGID_00000160167668330105966680000010334982896890304902_);" d="M419.3,356c16.4,5.7,31.4,21.2,17.8,89.7
		c2.3-1.8,3.8-3.8,4.5-5.9c0,0,0,0,0,0c0,0,0-0.1,0.1-0.1c0,0,0-0.1,0.1-0.1C446.7,426.2,462,356,419.3,356z"/>
	
		<linearGradient id="SVGID_00000120524699701378137860000009416962301227458736_" gradientUnits="userSpaceOnUse" x1="388.3183" y1="398.953" x2="447.8438" y2="404.1785">
		<stop  offset="0" style="stop-color:#7377B7"/>
		<stop  offset="0.3245" style="stop-color:#5F64AB"/>
		<stop  offset="0.6434" style="stop-color:#5358A3"/>
		<stop  offset="0.8989" style="stop-color:#4F54A0"/>
	</linearGradient>
	<path style="fill:url(#SVGID_00000120524699701378137860000009416962301227458736_);" d="M419.3,356c9.9,8.7,16.7,24,9.5,92.2
		c2.4-0.7,7.8-2.1,8.3-2.5C450.8,377.2,435.7,361.7,419.3,356z"/>
	
		<linearGradient id="SVGID_00000116194741878218504500000001415759002235124868_" gradientUnits="userSpaceOnUse" x1="388.353" y1="400.7607" x2="447.456" y2="405.9492">
		<stop  offset="0" style="stop-color:#5D62AA"/>
		<stop  offset="0.2726" style="stop-color:#5055A1"/>
		<stop  offset="0.62" style="stop-color:#464A9A"/>
		<stop  offset="0.8989" style="stop-color:#434697"/>
	</linearGradient>
	<path style="fill:url(#SVGID_00000116194741878218504500000001415759002235124868_);" d="M419.3,356v95c3.5-1,6.5-1.9,9.5-2.8
		C436,380,429.3,364.7,419.3,356z"/>
</g>
<g>
	
		<linearGradient id="SVGID_00000148658514467233416000000013484174263291819425_" gradientUnits="userSpaceOnUse" x1="347.2229" y1="536.6888" x2="397.2084" y2="541.0768" gradientTransform="matrix(0.8485 0.3116 -0.3248 0.8846 299.7884 -269.1353)">
		<stop  offset="0" style="stop-color:#5D62AA"/>
		<stop  offset="0.2726" style="stop-color:#5055A1"/>
		<stop  offset="0.62" style="stop-color:#464A9A"/>
		<stop  offset="0.8989" style="stop-color:#434697"/>
	</linearGradient>
	<path style="fill:url(#SVGID_00000148658514467233416000000013484174263291819425_);" d="M456.3,285c-14.8,0.5-29.7,10.4-39.9,72.3
		c0.3,0.5,2,1.3,3.7,2.6C435.5,300.1,445.5,289.4,456.3,285z"/>
	
		<linearGradient id="SVGID_00000088835818111907126780000001515249327737291916_" gradientUnits="userSpaceOnUse" x1="344.6293" y1="537.5022" x2="399.2966" y2="542.3013" gradientTransform="matrix(0.8485 0.3116 -0.3248 0.8846 299.7884 -269.1353)">
		<stop  offset="0" style="stop-color:#7377B7"/>
		<stop  offset="0.3245" style="stop-color:#5F64AB"/>
		<stop  offset="0.6434" style="stop-color:#5358A3"/>
		<stop  offset="0.8989" style="stop-color:#4F54A0"/>
	</linearGradient>
	<path style="fill:url(#SVGID_00000088835818111907126780000001515249327737291916_);" d="M420.1,359.9c1.9,2.3,3.2,3.4,6.1,5.1
		l30-80C445.5,289.4,435.5,300.1,420.1,359.9z"/>
	
		<linearGradient id="SVGID_00000031904297655683672150000015854748845138620343_" gradientUnits="userSpaceOnUse" x1="346.4383" y1="536.3232" x2="398.2076" y2="540.8679" gradientTransform="matrix(0.8485 0.3116 -0.3248 0.8846 299.7884 -269.1353)">
		<stop  offset="0" style="stop-color:#7377B7"/>
		<stop  offset="0.3245" style="stop-color:#5F64AB"/>
		<stop  offset="0.6434" style="stop-color:#5358A3"/>
		<stop  offset="0.8989" style="stop-color:#4F54A0"/>
	</linearGradient>
	<path style="fill:url(#SVGID_00000031904297655683672150000015854748845138620343_);" d="M456.3,285
		c-34.8-12.8-40.8,55.9-42.2,71.4c0.6-0.1,1-0.3,2.4,0.9C426.6,295.3,441.5,285.4,456.3,285z"/>
	
		<linearGradient id="SVGID_00000156574594522016976590000013328176497989389984_" gradientUnits="userSpaceOnUse" x1="346.0574" y1="534.8453" x2="398.9419" y2="539.4878" gradientTransform="matrix(0.8485 0.3116 -0.3248 0.8846 299.7884 -269.1353)">
		<stop  offset="0" style="stop-color:#5D62AA"/>
		<stop  offset="0.2726" style="stop-color:#5055A1"/>
		<stop  offset="0.62" style="stop-color:#464A9A"/>
		<stop  offset="0.8989" style="stop-color:#434697"/>
	</linearGradient>
	<path style="fill:url(#SVGID_00000156574594522016976590000013328176497989389984_);" d="M456.3,285c11.5,9.7,16.8,27.3-15.5,81.1
		C454.5,353.9,489.1,299.4,456.3,285z"/>
	
		<linearGradient id="SVGID_00000014636348546461839340000002306213530593227180_" gradientUnits="userSpaceOnUse" x1="346.0223" y1="536.2297" x2="398.7179" y2="540.8557" gradientTransform="matrix(0.8485 0.3116 -0.3248 0.8846 299.7884 -269.1353)">
		<stop  offset="0" style="stop-color:#7377B7"/>
		<stop  offset="0.3245" style="stop-color:#5F64AB"/>
		<stop  offset="0.6434" style="stop-color:#5358A3"/>
		<stop  offset="0.8989" style="stop-color:#4F54A0"/>
	</linearGradient>
	<path style="fill:url(#SVGID_00000014636348546461839340000002306213530593227180_);" d="M456.3,285c5.3,10.3,4.5,25.1-22.5,80.7
		c2.2,0.1,6.4,0.6,7,0.4C473.1,312.2,467.8,294.6,456.3,285z"/>
	
		<linearGradient id="SVGID_00000140703098333939749270000013523559098956129188_" gradientUnits="userSpaceOnUse" x1="346.6319" y1="537.678" x2="397.7184" y2="542.1627" gradientTransform="matrix(0.8485 0.3116 -0.3248 0.8846 299.7884 -269.1353)">
		<stop  offset="0" style="stop-color:#5D62AA"/>
		<stop  offset="0.2726" style="stop-color:#5055A1"/>
		<stop  offset="0.62" style="stop-color:#464A9A"/>
		<stop  offset="0.8989" style="stop-color:#434697"/>
	</linearGradient>
	<path style="fill:url(#SVGID_00000140703098333939749270000013523559098956129188_);" d="M456.3,285l-30,80
		c3.2,0.2,4.8,0.5,7.5,0.7C460.8,310.1,461.6,295.3,456.3,285z"/>
</g>
<linearGradient id="SVGID_00000052800412731818810120000012095302429620126376_" gradientUnits="userSpaceOnUse" x1="359.1047" y1="684.1362" x2="758.447" y2="684.1362">
	<stop  offset="0" style="stop-color:#C5CAE4"/>
	<stop  offset="0.2172" style="stop-color:#CACEE7"/>
	<stop  offset="0.4969" style="stop-color:#D7DAED"/>
	<stop  offset="0.8095" style="stop-color:#EEEFF8"/>
	<stop  offset="1" style="stop-color:#FFFFFF"/>
</linearGradient>
<path style="fill:url(#SVGID_00000052800412731818810120000012095302429620126376_);" d="M758.4,597.2l-10.1-5.8
	c-3-1.7-10.4-3.1-16.3-3.1H492.9c-6,0-131.5,78.5-131.5,78.5c-3,1.7-3,4.6,0,6.3l183.1,105.7c1.5,0.9,3.5,1.3,5.5,1.3l0,0h4.8
	l128.9-74.4l5.3-3.1h69.6V597.2z"/>
<g>
	<path class="st4" d="M676.2,693.7c0,3.5-2.5,4.9-5.4,3.1L487.7,591.2c-3-1.7-5.4-6-5.4-9.4V443.7c0-3.5,2.5-4.9,5.4-3.1
		l183.1,105.7c3,1.7,5.4,6,5.4,9.4V693.7z"/>
	
		<linearGradient id="SVGID_00000106114990384931677930000012595785026126825905_" gradientUnits="userSpaceOnUse" x1="533.7104" y1="411.404" x2="692.7206" y2="686.8176">
		<stop  offset="0.5757" style="stop-color:#7276B7"/>
		<stop  offset="0.6122" style="stop-color:#2B2B66"/>
	</linearGradient>
	<path style="fill:url(#SVGID_00000106114990384931677930000012595785026126825905_);" d="M674.9,543.9L491.8,438.2
		c-1.5-0.9-2.9-0.9-3.9-0.3v0l-3.9,2.3l0,0c1-0.5,2.3-0.4,3.7,0.5l183.1,105.7c3,1.7,5.4,6,5.4,9.4v138.1c0,1.7-0.6,2.9-1.6,3.5l0,0
		l3.9-2.3h0c1.1-0.5,1.8-1.8,1.8-3.6V553.3C680.4,549.8,677.9,545.6,674.9,543.9z"/>
	<polygon class="st11" points="670.8,688.4 487.7,582.7 487.7,446.8 670.8,552.5 	"/>
</g>
<g>
	<path class="st11" d="M546.7,770.9c-3,1.7-7.9,1.7-10.9,0L352.7,665.3c-3-1.7-3-4.6,0-6.3l124.8-72c3-1.7,7.9-1.7,10.9,0
		l183.1,105.7c3,1.7,3,4.6,0,6.3L546.7,770.9z"/>
	<g>
		<g>
			<polygon class="st0" points="488.6,601.9 479.6,596.7 484.1,594.2 493,599.3 			"/>
			<polygon class="st0" points="503.6,610.6 494.7,605.5 499.2,602.9 508.1,608 			"/>
			<polygon class="st0" points="518.7,619.3 509.8,614.2 514.2,611.6 523.2,616.7 			"/>
			<polygon class="st0" points="533.8,628 524.8,622.9 529.3,620.3 538.3,625.4 			"/>
			<polygon class="st0" points="548.9,636.7 539.9,631.6 544.4,629 553.4,634.2 			"/>
			<polygon class="st0" points="564,645.4 555,640.3 559.5,637.7 568.4,642.9 			"/>
			<polygon class="st0" points="579,654.1 570.1,649 574.6,646.4 583.5,651.6 			"/>
			<polygon class="st0" points="594.1,662.9 585.2,657.7 589.6,655.1 598.6,660.3 			"/>
			<polygon class="st0" points="609.2,671.6 600.2,666.4 604.7,663.8 613.7,669 			"/>
			<polygon class="st0" points="624.3,680.3 615.3,675.1 619.8,672.5 628.7,677.7 			"/>
			<polygon class="st0" points="639.3,689 630.4,683.8 634.9,681.2 643.8,686.4 			"/>
			<polygon class="st0" points="654.4,697.7 645.5,692.5 649.9,689.9 658.9,695.1 			"/>
		</g>
		<polygon class="st0" points="480.6,614.7 464.5,605.5 473.5,600.3 489.6,609.6 		"/>
		<polygon class="st0" points="472.3,626.6 450.1,613.8 459,608.6 481.3,621.5 		"/>
		<polygon class="st0" points="463.4,638.9 435,622.5 444,617.3 472.3,633.7 		"/>
		<polygon class="st0" points="432.9,642.3 416.8,633 428.9,626 445,635.3 		"/>
		<polygon class="st0" points="455.1,655.2 439,645.9 451.1,638.9 467.2,648.2 		"/>
		<polygon class="st0" points="477.3,668 461.2,658.7 473.3,651.7 489.4,661 		"/>
		<polygon class="st0" points="553.9,712.2 537.8,702.9 549.9,695.9 566,705.2 		"/>
		<polygon class="st0" points="591.6,734 560,715.7 572.1,708.7 603.7,727 		"/>
		<polygon class="st0" points="531.7,699.4 483.4,671.5 495.5,664.5 543.9,692.4 		"/>
		<polygon class="st0" points="499.9,625.9 486.8,618.3 495.7,613.1 508.9,620.7 		"/>
		<polygon class="st0" points="491.6,637.8 478.4,630.2 487.4,625 500.6,632.6 		"/>
		<polygon class="st0" points="483.1,649.8 469.9,642.2 478.8,637 492,644.6 		"/>
		<polygon class="st0" points="502.4,660.9 489.2,653.3 498.1,648.1 511.3,655.7 		"/>
		<polygon class="st0" points="521.7,672 508.5,664.4 517.4,659.3 530.6,666.9 		"/>
		<polygon class="st0" points="541,683.2 527.8,675.6 536.7,670.4 549.9,678 		"/>
		<polygon class="st0" points="560.3,694.3 547.1,686.7 556,681.6 569.2,689.2 		"/>
		<polygon class="st0" points="579.5,705.5 566.4,697.9 575.3,692.7 588.5,700.3 		"/>
		<polygon class="st0" points="610.2,723.2 585.7,709 594.6,703.8 619.2,718 		"/>
		<polygon class="st0" points="510.9,648.9 497.7,641.3 506.7,636.1 519.9,643.7 		"/>
		<polygon class="st0" points="530.2,660 517,652.4 526,647.3 539.2,654.9 		"/>
		<polygon class="st0" points="549.5,671.2 536.3,663.6 545.3,658.4 558.4,666 		"/>
		<polygon class="st0" points="568.8,682.3 555.6,674.7 564.6,669.6 577.7,677.2 		"/>
		<polygon class="st0" points="588.1,693.5 574.9,685.9 583.9,680.7 597,688.3 		"/>
		<polygon class="st0" points="624.9,714.7 594.2,697 603.2,691.8 633.8,709.5 		"/>
		<polygon class="st0" points="519.2,637 506.1,629.4 515,624.3 528.2,631.9 		"/>
		<polygon class="st0" points="538.5,648.2 525.4,640.6 534.3,635.4 547.5,643 		"/>
		<polygon class="st0" points="557.8,659.3 544.7,651.7 553.6,646.5 566.8,654.1 		"/>
		<polygon class="st0" points="577.1,670.5 563.9,662.8 572.9,657.7 586.1,665.3 		"/>
		<polygon class="st0" points="596.4,681.6 583.2,674 592.2,668.8 605.4,676.4 		"/>
		<polygon class="st0" points="615.7,692.7 602.5,685.1 611.5,680 624.7,687.6 		"/>
		<polygon class="st0" points="639.3,706.4 621.8,696.3 630.8,691.1 648.3,701.2 		"/>
	</g>
	<polygon class="st5" points="647.9,684 503.2,600.5 507.6,598 652.2,681.5 	"/>
	<polygon class="st0" points="531.7,710.2 457.9,667.6 412,694.1 485.9,736.7 	"/>
	
		<linearGradient id="SVGID_00000043459457947905595660000013708299307439404435_" gradientUnits="userSpaceOnUse" x1="350.4588" y1="718.8018" x2="673.6741" y2="718.8018">
		<stop  offset="0.5618" style="stop-color:#4F54A0"/>
		<stop  offset="0.6124" style="stop-color:#2B2B66"/>
	</linearGradient>
	<path style="fill:url(#SVGID_00000043459457947905595660000013708299307439404435_);" d="M671.4,698.9l-124.8,72
		c-2.4,1.4-6,1.7-8.8,0.8c0,0-1.8-0.7-2.1-0.8L352.7,665.3c-0.2-0.1-0.4-0.2-0.6-0.4c0,0,0,0,0,0l0,0c0,0-0.1-0.1-0.1-0.1
		c-0.1-0.1-0.2-0.2-0.3-0.3c0,0-0.1-0.1-0.1-0.1c-0.1-0.1-0.2-0.2-0.3-0.3c0,0,0,0,0,0c0,0,0,0,0,0c-0.1-0.1-0.2-0.3-0.3-0.4
		c-0.2-0.4-0.4-0.9-0.4-1.3h0v2.6h0c0,1.2,0.7,2.3,2.2,3.2l183.1,105.7c4.4,2.2,10.6,1.7,12.5,1.3c1.9-0.4,3.5-0.9,5.5-1.3l117.7-68
		c1.5-0.9,2.3-2,2.2-3.2v-6.8C673.7,696.9,672.9,698,671.4,698.9z"/>
</g>
<polygon class="st36" points="538.5,604.3 494.5,578.9 494.5,496.1 538.5,521.5 "/>
<polygon class="st37" points="571.3,529.1 494.5,484.8 494.5,455.5 571.3,499.8 "/>
<polygon class="st36" points="663.3,616.9 632.8,599.3 632.8,552.7 663.3,570.3 "/>
<polygon class="st38" points="663.3,560.6 580.9,513.1 580.9,505.4 663.3,552.9 "/>
<polygon class="st37" points="544.8,605.2 562.2,615.2 562.2,611.1 544.8,601 "/>
<polygon class="st39" points="571.8,566.1 556.7,557.3 556.7,561.5 571.8,570.2 "/>
<polygon class="st39" points="575.3,576.5 556.7,565.7 556.7,569.9 575.3,580.7 "/>
<polygon class="st39" points="544.8,596.8 565.6,608.8 565.6,604.6 544.8,592.6 "/>
<polygon class="st37" points="565.6,545.6 544.8,533.6 544.8,537.8 565.6,549.8 "/>
<polygon class="st38" points="575.3,559.6 556.7,548.9 556.7,553 575.3,563.8 "/>
<polygon class="st39" points="565.6,537.2 544.8,525.2 544.8,529.3 565.6,541.4 "/>
<polygon class="st39" points="572.7,583.4 556.7,574.2 556.7,578.3 572.7,587.6 "/>
<polygon class="st39" points="575.3,605.9 575.3,601.8 556.7,591 556.7,595.2 "/>
<polygon class="st38" points="575.3,593.4 556.7,582.6 556.7,586.8 575.3,597.5 "/>
<polygon class="st40" points="578.8,582.7 646.8,621.9 646.8,617.8 578.8,578.5 "/>
<polygon class="st39" points="575.3,572.2 627,602.1 627,597.9 575.3,568.1 "/>
<polygon class="st39" points="569.1,551.8 627,585.2 627,581.1 569.1,547.7 "/>
<polygon class="st39" points="565.7,617.2 619.1,648.1 619.1,643.9 565.7,613.1 "/>
<polygon class="st39" points="569.1,539.2 569.1,543.4 627,576.8 627,572.6 "/>
<polygon class="st40" points="578.8,565.8 627,593.7 627,589.5 578.8,561.7 "/>
<polygon class="st39" points="578.8,608 646.8,647.2 646.8,643.1 578.8,603.8 "/>
<polygon class="st39" points="576.2,589.6 646.8,630.4 646.8,626.2 576.2,585.5 "/>
<polygon class="st39" points="569.1,610.8 646.8,655.7 646.8,651.5 569.1,606.7 "/>
<polygon class="st40" points="578.8,599.5 646.8,638.8 646.8,634.6 578.8,595.4 "/>
<g>
	
		<linearGradient id="SVGID_00000162323512175508726150000002250823723182711224_" gradientUnits="userSpaceOnUse" x1="984.8622" y1="332.4439" x2="743.6987" y2="258.291" gradientTransform="matrix(1 0 0 1 -687.2461 0)">
		<stop  offset="0" style="stop-color:#5E65AC"/>
		<stop  offset="1" style="stop-color:#37348B"/>
	</linearGradient>
	<path style="fill:url(#SVGID_00000162323512175508726150000002250823723182711224_);" d="M59.7,273.1c0-8.8,6.2-19.6,13.9-24
		L283,128.1c7.6-4.4,13.9-0.8,13.9,8v182.3c0,8.8-6.2,19.6-13.9,24L73.6,463.4c-7.6,4.4-13.9,0.8-13.9-8V273.1z"/>
	
		<linearGradient id="SVGID_00000041279583960683473950000009047858143006070717_" gradientUnits="userSpaceOnUse" x1="716.8108" y1="444.6311" x2="920.1132" y2="92.5011" gradientTransform="matrix(1 0 0 1 -687.2461 0)">
		<stop  offset="0.396" style="stop-color:#434697"/>
		<stop  offset="0.4786" style="stop-color:#5D62AA"/>
	</linearGradient>
	<path style="fill:url(#SVGID_00000041279583960683473950000009047858143006070717_);" d="M59.7,455.4V273.1c0-8.8,6.2-19.6,13.9-24
		L283,128.1c3.8-2.2,7.2-2.4,9.7-1l-5-2.9l0,0c-2.5-1.6-6.1-1.5-10.1,0.8L68.2,246c-7.6,4.4-13.9,15.2-13.9,24v182.3
		c0,4.6,1.7,7.8,4.4,9.1l4.6,2.7C61.1,462.6,59.7,459.6,59.7,455.4z"/>
</g>
<radialGradient id="SVGID_00000062164042154707890370000006911242554039263895_" cx="308.1462" cy="397.8545" r="134.6178" gradientUnits="userSpaceOnUse">
	<stop  offset="0.2921" style="stop-color:#FFD141"/>
	<stop  offset="0.4949" style="stop-color:#967B41"/>
	<stop  offset="0.7423" style="stop-color:#3C342A"/>
	<stop  offset="0.9164" style="stop-color:#0F0F10"/>
	<stop  offset="1" style="stop-color:#020203"/>
</radialGradient>
<path style="fill:url(#SVGID_00000062164042154707890370000006911242554039263895_);" d="M168,394c0,4.9,0.3,9.7,0.8,14.4l114.3-66
	c7.6-4.4,13.9-15.2,13.9-24v-57.9C225.3,263,168,321.8,168,394z"/>
<g>
	<polygon class="st4" points="113.3,431.7 110.8,433.2 110.8,240.5 113.3,239.1 	"/>
	<polygon class="st4" points="93.7,281.2 78.6,290 78.6,272.5 93.7,263.7 	"/>
	<polygon class="st4" points="93.7,316.2 78.6,325 78.6,307.5 93.7,298.7 	"/>
	<polygon class="st4" points="93.7,351.2 78.6,360 78.6,342.5 93.7,333.7 	"/>
	<polygon class="st4" points="93.7,386.2 78.6,395 78.6,377.5 93.7,368.7 	"/>
</g>
<g>
	<polygon class="st5" points="167.8,230 125.5,254.4 125.5,245.4 167.8,221 	"/>
	<polygon class="st39" points="145.9,289.2 125.5,300.9 125.5,309.9 145.9,298.2 	"/>
	<polygon class="st5" points="249,330.7 228.6,342.5 228.6,333.5 249,321.7 	"/>
	<polygon class="st44" points="284.6,162.6 174.9,225.9 174.9,216.8 284.6,153.6 	"/>
	<polygon class="st45" points="258,196.2 148.4,259.4 148.4,250.4 258,187.2 	"/>
	<polygon class="st5" points="241.3,224.1 139.8,282.7 139.8,273.6 241.3,215.1 	"/>
	<polygon class="st44" points="167.8,304.5 125.5,329 125.5,319.9 167.8,295.5 	"/>
	<polygon class="st5" points="284.6,237.1 174.9,300.4 174.9,291.4 284.6,228.1 	"/>
	<polygon class="st5" points="258,270.7 148.4,334 148.4,325 258,261.7 	"/>
	<polygon class="st44" points="258,298.3 148.4,361.5 148.4,370.5 258,307.3 	"/>
	<polygon class="st5" points="275.4,278.9 167.8,341.1 167.8,332.1 275.4,269.9 	"/>
</g>
<linearGradient id="SVGID_00000054984850179757972800000009007767008322971790_" gradientUnits="userSpaceOnUse" x1="303.5232" y1="482.722" x2="475.9588" y2="482.722">
	<stop  offset="0" style="stop-color:#C7CCE7"/>
	<stop  offset="3.891988e-02" style="stop-color:#CDD1EA"/>
	<stop  offset="0.2121" style="stop-color:#E3E5F3"/>
	<stop  offset="0.3917" style="stop-color:#F3F4FA"/>
	<stop  offset="0.5803" style="stop-color:#FCFCFE"/>
	<stop  offset="0.7921" style="stop-color:#FFFFFF"/>
</linearGradient>
<polygon style="fill:url(#SVGID_00000054984850179757972800000009007767008322971790_);" points="476,471.7 317.9,471.7 
	303.5,482.7 304.5,493.8 437.6,493.8 "/>
<g>
	<g>
		<path class="st47" d="M276.5,478.3c7.7,7.7,24.2,14.5,28,15.4c3.9-1,20.4-7.8,28-15.4C315,477.3,294.1,477.3,276.5,478.3z"/>
		
			<linearGradient id="SVGID_00000001622296858824915760000007808133862040115086_" gradientUnits="userSpaceOnUse" x1="272.9294" y1="467.4831" x2="336.1344" y2="467.4831">
			<stop  offset="0" style="stop-color:#4F56A2"/>
			<stop  offset="1" style="stop-color:#35358B"/>
		</linearGradient>
		<path style="fill:url(#SVGID_00000001622296858824915760000007808133862040115086_);" d="M272.9,446.8v23.1
			c0,4.7,3.1,9.3,9.3,12.9c12.3,7.1,32.3,7.1,44.7,0c6.2-3.6,9.3-8.2,9.3-12.9v-23.1H272.9z"/>
		
			<linearGradient id="SVGID_00000143611772667855471530000008426960295785024664_" gradientUnits="userSpaceOnUse" x1="271.0348" y1="467.5598" x2="338.074" y2="467.5598">
			<stop  offset="0" style="stop-color:#4F56A2"/>
			<stop  offset="2.963030e-02" style="stop-color:#7479B9"/>
			<stop  offset="1" style="stop-color:#414798"/>
		</linearGradient>
		<path style="fill:url(#SVGID_00000143611772667855471530000008426960295785024664_);" d="M338,458.6c0-0.6-0.4-1.2-1-1.6
			c0.7-1.6,1-3.3,1-5c0-0.9-0.9-1.8-1.9-1.8c-0.9,0,0,1.8,0,1.8h-0.4c0,4.6-3.2,8.9-8.9,12.2c-12.3,7.1-32.3,7.1-44.6,0
			c-5.7-3.3-8.9-7.6-8.9-12.2h-0.5c0,0,0.9-1.8,0-1.8c-0.9,0-1.8,0.9-1.8,1.8c0,1.7,0.4,3.4,1,5c-0.6,0.3-1,1-1,1.6
			c0,1.7,0.4,3.4,1,4.9c-0.6,0.3-1,1-1,1.6c0,5.4,3.6,10.5,10.1,14.2c12.9,7.5,34,7.5,46.9,0c6.5-3.7,10.1-8.8,10.1-14.2
			c0-0.6-0.5-1.2-1-1.6C337.7,461.9,338.1,460.3,338,458.6z M326.9,477.3c-12.3,7.1-32.3,7.1-44.6,0c-5.4-3.1-8.5-7.1-8.9-11.4
			c1.7,2.5,4.3,4.9,7.7,6.8c12.9,7.5,34,7.5,46.9,0c3.4-2,6-4.3,7.7-6.8C335.3,470.2,332.2,474.2,326.9,477.3z M326.9,470.8
			c-12.3,7.1-32.3,7.1-44.6,0c-5.4-3.1-8.5-7.1-8.9-11.4c1.7,2.5,4.3,4.9,7.7,6.8c12.9,7.5,34,7.5,46.9,0c3.4-2,6-4.3,7.7-6.8
			C335.4,463.6,332.2,467.7,326.9,470.8z"/>
	</g>
	<g>
		
			<radialGradient id="SVGID_00000145018675932167569620000004596430900873665929_" cx="277.0154" cy="375.7281" r="106.3159" gradientUnits="userSpaceOnUse">
			<stop  offset="0" style="stop-color:#FFD141"/>
			<stop  offset="0.3338" style="stop-color:#FECE3F"/>
			<stop  offset="0.5388" style="stop-color:#FAC738"/>
			<stop  offset="0.709" style="stop-color:#F4BB2C"/>
			<stop  offset="0.8593" style="stop-color:#ECA91C"/>
			<stop  offset="0.9967" style="stop-color:#E19301"/>
			<stop  offset="1" style="stop-color:#E09200"/>
		</radialGradient>
		<path style="fill:url(#SVGID_00000145018675932167569620000004596430900873665929_);" d="M360.5,391.8c0-30.9-25.1-56-56-56
			c-30.9,0-56,25.1-56,56c0,15.7,6.5,29.9,16.9,40.1c4.3,4.3,5.3,12,5.3,14.2c0,5,3.3,10,9.9,13.8c13.2,7.6,34.6,7.6,47.7,0
			c6.6-3.8,9.9-8.8,9.9-13.8c0-2.2,1.1-9.9,5.3-14.2C354,421.7,360.5,407.5,360.5,391.8z"/>
		
			<linearGradient id="SVGID_00000124871648476058486800000010756383044072345275_" gradientUnits="userSpaceOnUse" x1="270.7794" y1="446.0491" x2="338.2859" y2="446.0491">
			<stop  offset="0" style="stop-color:#FFFFFF"/>
			<stop  offset="5.949336e-02" style="stop-color:#FBFCFE"/>
			<stop  offset="0.3735" style="stop-color:#EAEDF8"/>
			<stop  offset="0.6875" style="stop-color:#DFE4F4"/>
			<stop  offset="1" style="stop-color:#DCE1F3"/>
		</linearGradient>
		<path style="fill:url(#SVGID_00000124871648476058486800000010756383044072345275_);" d="M280.7,432.3c13.2-7.6,34.6-7.6,47.7,0
			c13.2,7.6,13.2,19.9,0,27.6c-13.2,7.6-34.6,7.6-47.7,0C267.5,452.2,267.5,439.9,280.7,432.3z"/>
		
			<linearGradient id="SVGID_00000046331448946258413190000013455078032671093635_" gradientUnits="userSpaceOnUse" x1="293.4253" y1="398.7197" x2="324.2179" y2="452.0541">
			<stop  offset="5.617980e-03" style="stop-color:#FFFFFF"/>
			<stop  offset="1" style="stop-color:#F1F1F6"/>
		</linearGradient>
		<path style="fill:url(#SVGID_00000046331448946258413190000013455078032671093635_);" d="M279.1,407l-2.2,1.3l32,18.5
			c3.7,0.3,7.4,0.9,10.8,1.9l-39-22.5L279.1,407z M334.7,437.3c1.7,2,2.8,4.1,3.3,6.2l0.5,0.3c0.1-1.3,0.5-2.6,0.8-3.9L334.7,437.3z
			"/>
		<g>
			<path class="st11" d="M259.8,396.8c-2.8,0-5-2.2-5-5c0-27.4,22.3-49.7,49.7-49.7c2.8,0,5,2.2,5,5c0,2.8-2.2,5-5,5
				c-21.9,0-39.7,17.8-39.7,39.7C264.9,394.6,262.6,396.8,259.8,396.8z"/>
		</g>
		
			<linearGradient id="SVGID_00000036939311840683264050000004306681133002683063_" gradientUnits="userSpaceOnUse" x1="317.1891" y1="434.1669" x2="295.3767" y2="396.3867">
			<stop  offset="0" style="stop-color:#020203"/>
			<stop  offset="0.1058" style="stop-color:#241F20"/>
			<stop  offset="0.2325" style="stop-color:#4F3E38"/>
			<stop  offset="0.3613" style="stop-color:#7A5C4B"/>
			<stop  offset="0.4898" style="stop-color:#A2785C"/>
			<stop  offset="0.618" style="stop-color:#C49068"/>
			<stop  offset="0.7459" style="stop-color:#DEA371"/>
			<stop  offset="0.8733" style="stop-color:#EEAF77"/>
			<stop  offset="1" style="stop-color:#F4B379"/>
		</linearGradient>
		<path style="fill:url(#SVGID_00000036939311840683264050000004306681133002683063_);" d="M317,385.2c-0.7-0.4-1.5-0.4-2.2,0
			c-1.5,0.9-2.7,3.8-3.4,7.5c-0.5-1.5-1.2-2.6-2-3.1c-0.7-0.4-1.5-0.4-2.2,0c-1.5,0.9-2.7,3.8-3.4,7.5c-0.5-1.5-1.2-2.6-2-3.1
			c-0.7-0.4-1.5-0.4-2.3,0c-1.5,0.9-2.7,3.8-3.4,7.5c-0.5-1.5-1.2-2.6-2-3.1c-0.7-0.4-1.5-0.4-2.2,0c-2.9,1.7-4.4,10.5-4.4,18.3
			c0,8,1.9,10.3,3.7,12.6c1.9,2.4,3.9,4.9,3.9,15.5c0,0.6,0.5,1.2,1.2,1.2c0.6,0,1.2-0.5,1.2-1.2c0-11.5-2.4-14.4-4.5-17
			c-1.7-2.1-3.2-4-3.2-11.2c0-8.9,1.9-15.4,3.2-16.3c0.8,0.5,2.1,4.4,2.1,11.8c0,0.6,0.5,1.2,1.2,1.2c0.6,0,1.2-0.5,1.2-1.2
			c0-8.9,1.9-15.4,3.2-16.3c0.8,0.5,2.1,4.4,2.1,11.8c0,0.6,0.5,1.2,1.2,1.2c0.6,0,1.2-0.5,1.2-1.2c0-8.9,1.9-15.4,3.2-16.3
			c0.8,0.5,2.1,4.4,2.1,11.8c0,0.6,0.5,1.2,1.2,1.2c0.6,0,1.2-0.5,1.2-1.2c0-8.9,1.9-15.4,3.2-16.3c0.8,0.5,2.1,4.4,2.1,11.8
			c0,7.4-1.7,11.4-3.4,15.6c-2,4.8-4.3,10.3-4.3,21.4c0,0.6,0.5,1.2,1.2,1.2c0.6,0,1.2-0.5,1.2-1.2c0-10.6,2.1-15.6,4.1-20.5
			c1.8-4.5,3.6-8.7,3.6-16.5C320.4,393.3,319.5,386.6,317,385.2z"/>
	</g>
</g>
<linearGradient id="SVGID_00000165935736794829051390000008750120118746016649_" gradientUnits="userSpaceOnUse" x1="390.674" y1="743.0627" x2="417.5046" y2="678.6694">
	<stop  offset="0" style="stop-color:#C3C9E7"/>
	<stop  offset="1" style="stop-color:#FFFFFF"/>
</linearGradient>
<path style="fill:url(#SVGID_00000165935736794829051390000008750120118746016649_);" d="M381.6,720.7c5.5-4.7,11.3-9.7,17.5-14.5
	c0.4-1.2,0.6-2.4,0.6-3.6c1.6-0.7,3.1-1.2,3.8-1.1c5,0.3,8.6-0.1,11.5-1c0,0,0,0,0,0c10.2-2.6,22.1-10.7,25.6-13.5
	c-5.1-4.6-9.9-0.7-9.8-0.8c-1.7,1,6.3-8.9,12.3-13.7c-21.6-1.2-30.7,23.9-34.9,25c0,0,0,0,0,0c-2.8,0.9-6.5,1.3-11.5,1
	c-0.7,0-2.2,0.5-3.8,1.1c0,1.2-0.2,2.4-0.6,3.6c-6.2,4.8-12,9.8-17.5,14.5C374.8,727,380.8,721.8,381.6,720.7z"/>
<linearGradient id="SVGID_00000179606418119001978330000006401918009573838997_" gradientUnits="userSpaceOnUse" x1="432.6063" y1="825.712" x2="482.35" y2="706.3271">
	<stop  offset="0" style="stop-color:#C3C9E7"/>
	<stop  offset="1" style="stop-color:#FFFFFF"/>
</linearGradient>
<path style="fill:url(#SVGID_00000179606418119001978330000006401918009573838997_);" d="M552.3,705.1c-3.9-2.5-9.1-4.7-10.6-5.4
	c-0.4-0.2-0.8-0.4-1.3-0.5c1.7,0.8,3.5,1.8,5.1,2.8c6.6,4.1,1.3,9.6-5.6,9.6c-6.9,0-8.3,2.2-14.5,8.4c-6.2,6.2-11.6,19.9-31.9,18.6
	c-0.1,0.9-0.2,1.9-0.6,2.9c-28.5,22-46.6,46.5-82.2,43.3c-10.6-0.9-21.2-3.7-32.2-8.3c13.5,6.6,26.2,10.3,39,11.5
	c35.6,3.1,53.7-21.4,82.2-43.3c0.3-1,0.5-1.9,0.6-2.9c20.3,1.2,25.7-12.5,31.9-18.6c6.2-6.2,7.6-8.4,14.5-8.4
	C553.6,714.8,558.9,709.3,552.3,705.1z"/>
<linearGradient id="SVGID_00000057124010339212102580000013757220748045693090_" gradientUnits="userSpaceOnUse" x1="507.8004" y1="1065.955" x2="630.197" y2="1065.955">
	<stop  offset="0" style="stop-color:#C3C9E7"/>
	<stop  offset="1" style="stop-color:#FFFFFF"/>
</linearGradient>
<rect x="507.8" y="1044.3" style="fill:url(#SVGID_00000057124010339212102580000013757220748045693090_);" width="122.4" height="43.4"/>
<linearGradient id="SVGID_00000078765018353226687290000012164296055218183065_" gradientUnits="userSpaceOnUse" x1="438.0426" y1="1020.0556" x2="560.4392" y2="1020.0556">
	<stop  offset="0" style="stop-color:#C3C9E7"/>
	<stop  offset="1" style="stop-color:#FFFFFF"/>
</linearGradient>
<rect x="438" y="998.4" style="fill:url(#SVGID_00000078765018353226687290000012164296055218183065_);" width="122.4" height="43.4"/>
<g>
	<defs>
		<polygon id="SVGID_00000066487550089244910250000007463308302622153640_" points="675.1,972.9 164.1,677.9 164.1,690.6 
			164.9,690.3 112.2,961.6 622.8,1256.4 675.5,984.9 674.7,985.4 		"/>
	</defs>
	<clipPath id="SVGID_00000069397255288333529530000007199452691177453743_">
		<use xlink:href="#SVGID_00000066487550089244910250000007463308302622153640_"  style="overflow:visible;"/>
	</clipPath>
	<g style="clip-path:url(#SVGID_00000069397255288333529530000007199452691177453743_);">
		<path class="st20" d="M413.5,1028.3c0-34.2,21.7-35.2,21.7-35.2s11.7,0,30.8-7.9c18.8-7.8,45.3-4.8,30.5,22.5
			c-0.1,0.3-0.3,0.7-0.5,1c-0.9,1.5-2.5,2.9-4.8,4.2l-47.4,27.8C436.6,1044.9,413.6,1035.4,413.5,1028.3z"/>
		<path class="st59" d="M413.6,1025.3C413.6,1025.3,413.6,1025.3,413.6,1025.3c0.4,7,23,16.4,30.2,12.3l47.4-27.8
			c1.6-0.9,4.3-2.7,6.7-4.9c-0.4,0.9-0.8,1.8-1.4,2.9c-0.1,0.3-0.3,0.7-0.5,1c-0.9,1.5-2.5,2.9-4.8,4.2l-47.4,27.8
			c-6.8,3.9-27.3-4.3-30-11.1c-0.1-0.5-0.2-1-0.2-1.4C413.5,1027.3,413.6,1026.3,413.6,1025.3z"/>
		<path class="st11" d="M422.3,988.7c5.6,0,25.2,5,25.2,5s0.1,2.7,1.8,5.1c0.2,0.2,0.4,0.4,0.5,0.7c0,0,0,0,0,0
			c3.9,2.7,7.8,7-1.4,12.7c-7.5,4.7-13.7,1.7-16.6-1.2c-1.2-2.2-2.9-4.7-5.3-6.1c-2.5-1.4-4-2.1-5.1-2.2c0-0.2-0.1-0.5-0.1-0.5
			S419.9,988.7,422.3,988.7z"/>
		<path class="st59" d="M237.7,938.3c8.8-31.8,12.7-65.4,21.3-102.7c20.5-4.1,184.5-83.7,206.6-40.9c0.8,1.5,1.1,3.2,1.1,5.1h0
			c7.9,39.9-18.4,195.9-18.4,195.9h0c-0.4,1.5-1.6,3-3.7,4.2c-5.2,3-13.5,3-18.7,0c-2.3-1.3-4.3-3.1-4.5-4.9h0
			c0,0-11.4-92.8-7.9-133.9C357.1,904.9,271.7,949.7,237.7,938.3z"/>
	</g>
</g>
<g>
	
		<linearGradient id="SVGID_00000166665248489568755720000000883532461748747672_" gradientUnits="userSpaceOnUse" x1="290.2732" y1="1232.0283" x2="412.6696" y2="1232.0283">
		<stop  offset="0" style="stop-color:#C4CBE8"/>
		<stop  offset="1" style="stop-color:#FFFFFF"/>
	</linearGradient>
	
		<rect x="290.3" y="1223.7" style="fill:url(#SVGID_00000166665248489568755720000000883532461748747672_);" width="122.4" height="16.7"/>
	
		<linearGradient id="SVGID_00000111876333249896085260000009165430668376824497_" gradientUnits="userSpaceOnUse" x1="448.072" y1="1140.9227" x2="570.4704" y2="1140.9227">
		<stop  offset="0" style="stop-color:#C4CBE8"/>
		<stop  offset="1" style="stop-color:#FFFFFF"/>
	</linearGradient>
	
		<rect x="448.1" y="1132.6" style="fill:url(#SVGID_00000111876333249896085260000009165430668376824497_);" width="122.4" height="16.7"/>
	
		<linearGradient id="SVGID_00000132787182723017300010000004304793391959909507_" gradientUnits="userSpaceOnUse" x1="153.0368" y1="1152.7939" x2="275.4334" y2="1152.7939">
		<stop  offset="0" style="stop-color:#C4CBE8"/>
		<stop  offset="1" style="stop-color:#FFFFFF"/>
	</linearGradient>
	
		<rect x="153" y="1144.5" style="fill:url(#SVGID_00000132787182723017300010000004304793391959909507_);" width="122.4" height="16.7"/>
	<g>
		
			<linearGradient id="SVGID_00000057832813605849224530000003113150208229282489_" gradientUnits="userSpaceOnUse" x1="310.8356" y1="1061.6884" x2="433.2322" y2="1061.6884">
			<stop  offset="0" style="stop-color:#C4CBE8"/>
			<stop  offset="1" style="stop-color:#FFFFFF"/>
		</linearGradient>
		
			<rect x="310.8" y="1053.4" style="fill:url(#SVGID_00000057832813605849224530000003113150208229282489_);" width="122.4" height="16.7"/>
		<polygon class="st64" points="323.4,1062.8 310.8,1070 288,904.9 300.6,897.6 		"/>
		<polygon class="st37" points="310.8,1070 298.3,1062.8 275.4,897.6 288,904.9 		"/>
		<polygon class="st19" points="290.3,1240.4 302.8,1233.1 325.7,1041.6 313.1,1048.8 		"/>
		<polygon class="st65" points="277.7,1233.1 290.3,1240.4 313.1,1048.8 300.6,1041.6 		"/>
		<polygon class="st19" points="460.6,1142 448.1,1149.3 425.2,984.1 437.8,976.8 		"/>
		<polygon class="st65" points="448.1,1149.3 435.5,1142 412.7,976.8 425.2,984.1 		"/>
		<polygon class="st65" points="140.5,1153.9 153,1161.1 175.9,969.6 163.3,962.3 		"/>
		<polygon class="st19" points="153,1161.1 165.6,1153.9 188.4,962.3 175.9,969.6 		"/>
	</g>
	
		<linearGradient id="SVGID_00000011018708355908462040000007460134064460349825_" gradientUnits="userSpaceOnUse" x1="460.082" y1="969.5868" x2="137.8588" y2="969.5868">
		<stop  offset="0.356" style="stop-color:#A6ACCC"/>
		<stop  offset="0.6991" style="stop-color:#B8BEDD"/>
		<stop  offset="1" style="stop-color:#C4CBE8"/>
	</linearGradient>
	<path style="fill:url(#SVGID_00000011018708355908462040000007460134064460349825_);" d="M452.5,980.3c10.2-5.9,10.2-15.5,0-21.4
		l-133.4-77c-10.2-5.9-26.8-5.9-37,0l-133.4,77c-10.2,5.9-10.2,15.5,0,21.4l133.4,77c10.2,5.9,26.8,5.9,37,0L452.5,980.3z"/>
</g>
<g>
	<defs>
		<polygon id="SVGID_00000056421422208071820980000009278513619114332304_" points="675.1,972.9 164.1,677.9 164.1,690.6 
			164.9,690.3 112.2,961.6 622.8,1256.4 675.5,984.9 674.7,985.4 		"/>
	</defs>
	<clipPath id="SVGID_00000005962320188066557850000006289711510621111944_">
		<use xlink:href="#SVGID_00000056421422208071820980000009278513619114332304_"  style="overflow:visible;"/>
	</clipPath>
	<g style="clip-path:url(#SVGID_00000005962320188066557850000006289711510621111944_);">
		
			<linearGradient id="SVGID_00000044855972099232796680000003547250609930236580_" gradientUnits="userSpaceOnUse" x1="1450.9625" y1="1057.5927" x2="1538.2633" y2="1057.5927" gradientTransform="matrix(-1 0 0 1 2018.9935 0)">
			<stop  offset="0" style="stop-color:#4F54A0"/>
			<stop  offset="0.6252" style="stop-color:#3F3C90"/>
			<stop  offset="1" style="stop-color:#37348B"/>
		</linearGradient>
		<path style="fill:url(#SVGID_00000044855972099232796680000003547250609930236580_);" d="M480.7,1074.3
			c0-34.2,21.7-35.2,21.7-35.2s11.7,0,30.8-7.9c18.8-7.8,45.3-4.8,30.5,22.5c-0.1,0.3-0.3,0.7-0.5,1c-0.9,1.5-2.5,2.9-4.8,4.2
			l-47.3,27.8C503.8,1090.9,480.9,1081.3,480.7,1074.3z"/>
		<path class="st59" d="M480.9,1071.2C480.9,1071.2,480.9,1071.2,480.9,1071.2c0.4,7,23,16.4,30.2,12.3l47.3-27.8
			c1.6-0.9,4.3-2.7,6.7-4.9c-0.4,0.9-0.8,1.8-1.4,2.9c-0.1,0.3-0.3,0.7-0.5,1c-0.9,1.5-2.5,2.9-4.8,4.2l-47.3,27.8
			c-6.8,3.9-27.3-4.2-30-11.1c-0.1-0.5-0.2-1-0.2-1.4C480.7,1073.2,480.8,1072.2,480.9,1071.2z"/>
		<path class="st11" d="M489.5,1034.6c5.6,0,25.2,5,25.2,5s0.1,2.7,1.8,5.1c0.2,0.2,0.4,0.4,0.5,0.7c0,0,0,0,0,0
			c3.9,2.7,7.8,7-1.4,12.7c-7.5,4.7-13.7,1.7-16.6-1.2c-1.2-2.2-2.9-4.7-5.3-6.1c-2.5-1.4-4-2.1-5.1-2.2c0-0.1-0.1-0.5-0.1-0.5
			S487.2,1034.6,489.5,1034.6z"/>
		
			<linearGradient id="SVGID_00000012469944482752795580000000666605564878682515_" gradientUnits="userSpaceOnUse" x1="1483.6019" y1="938.0695" x2="1821.3513" y2="938.0695" gradientTransform="matrix(-1 0 0 1 2018.9935 0)">
			<stop  offset="0" style="stop-color:#4F54A0"/>
			<stop  offset="5.378031e-02" style="stop-color:#4B4E9C"/>
			<stop  offset="0.2434" style="stop-color:#403E92"/>
			<stop  offset="0.4217" style="stop-color:#3A368C"/>
			<stop  offset="0.5761" style="stop-color:#37348B"/>
		</linearGradient>
		<path style="fill:url(#SVGID_00000012469944482752795580000000666605564878682515_);" d="M326.2,881.5
			c20.5-4.1,184.5-83.7,206.6-40.9c0.8,1.5,1.1,3.2,1.1,5.1h0c7.9,39.9-18.4,195.9-18.4,195.9h0c-0.4,1.5-1.6,3-3.7,4.2
			c-5.2,3-13.5,3-18.7,0c-2.3-1.3-4.3-3.1-4.5-4.8h0c0,0-11.4-92.8-7.9-133.9c-56.4,43.7-141.8,88.5-175.8,77.1
			c-55.1-18.4-82.8-32.9-100.3-70.3c-5.8-12.3-7-46.7-7-61.5C258.6,822.3,306.2,849.5,326.2,881.5z"/>
	</g>
</g>
<path class="st70" d="M442.2,664.8c-3.9-2.5-9.1-4.7-10.6-5.4c-6.9-3.3-17.9-0.7-20.9,1.5c-3.1,2.1-22,13.8-25.6,21.3
	c0,0-7.1,3.7-9.9,5.1l10.4,15.9c0,0,9.1-4.8,11.3-4.7c5,0.3,8.6-0.1,11.5-1c0,0,0,0,0,0c10.2-2.6,22.1-10.7,25.6-13.5
	c-5.1-4.6-10.7,0.5-14.5,2.5c0.8-1.3,1.7-2.6,2.8-3.7c6.2-6.2,7.6-8.4,14.5-8.4C443.5,674.4,448.8,668.9,442.2,664.8z"/>
<linearGradient id="SVGID_00000068654289992748272660000016160721266437498537_" gradientUnits="userSpaceOnUse" x1="390.5725" y1="725.7073" x2="181.2397" y2="677.7075">
	<stop  offset="0" style="stop-color:#E09200"/>
	<stop  offset="0.6058" style="stop-color:#F2AD0A"/>
	<stop  offset="1" style="stop-color:#FBBA10"/>
</linearGradient>
<path style="fill:url(#SVGID_00000068654289992748272660000016160721266437498537_);" d="M392.4,703.1c3.7-10.9-9.3-20.5-16.9-19.8
	c-35.7,15.6-53.1,24.8-65.3,21.2c-51.4-24-30.5,39.2,0,41.9C345.8,749.6,363.9,725.1,392.4,703.1z"/>
<g>
	<path class="st44" d="M243.6,622.8c-25.8,5.7-58.2,22.2-36.7,67.2C221.6,720.8,243.6,622.8,243.6,622.8z"/>
	
		<linearGradient id="SVGID_00000083075222584605667600000017208349241137601668_" gradientUnits="userSpaceOnUse" x1="1641.8162" y1="781.1111" x2="1821.3513" y2="781.1111" gradientTransform="matrix(-1 0 0 1 2018.9935 0)">
		<stop  offset="0" style="stop-color:#E09200"/>
		<stop  offset="0.3875" style="stop-color:#E89E04"/>
		<stop  offset="1" style="stop-color:#FBBA10"/>
	</linearGradient>
	<path style="fill:url(#SVGID_00000083075222584605667600000017208349241137601668_);" d="M248.3,923.7
		c50.6,28.4,119.4,18,128.9-21.9c-34.5-115.7-42.2-192.5-41.4-239.6C313.4,645,294.4,629.7,278,626c-17.1-3.8-39.7-6.8-49.7,2.8
		c-31.1,41.9-23,114.4-30.7,223.6C203,887.4,223.4,909.7,248.3,923.7z"/>
	<path class="st70" d="M254.4,624.8c8.6-8.1,11.2-21.3,12.7-36.1c-0.9-8.2-0.4-17,1.9-25.8c8.1-31.9,34.8-52.6,59.8-46.3
		c25,6.3,38.7,37.3,30.6,69.2c-7.5,29.5-33.4,45.9-56.7,48.3c-1.2,2.5,3.2,6.1,7.3,8.8c-19.1,5.1-36.8-4.9-46.1-10
		C259,630.1,255.6,627.5,254.4,624.8z"/>
	<path class="st59" d="M270.3,518.6c9.3-8.9,20-0.4,25.4-3.2c0.9-0.4,1.9-0.9,2.9-1.4c0,0,0,0,0,0c7-4.2,3.7-7.3,10.2-11.2
		c6.4-3.8,12.7,1.5,16.9,0.1l0,0c9.9-3.1,18.9-4.4,22.8-0.8c1.9,1.8,3.6,4.1,5.1,6.7l0,0c3.3,5.6,14.9-1.6,14.2,10.5
		c-0.7,11.3-4.9,15.1-6.7,32.5c-0.1,1-0.1,2-0.3,3c0,0.2,0,0.4,0,0.6c0,0,0,0,0,0c-1.4,11.2-4.8,21.2-10.7,26.8
		c-1.7,1.6-3.5,3.1-5.3,4.6c1.5-6.1-7.9-23.5-14.7,3.6c-0.7,2.9,1.3,4-1.6,7.4c-2.9,3.4-17.7,10-27.8,16
		c-14.2,8.5-18.3-3.4-37.5-6.1c2-8,1-12.6-0.6-18.3c-1-3.6-2.8-17.7,0.1-32.8c0,0,0,0,0-0.1C266.3,541.7,261.2,527.4,270.3,518.6z"
		/>
</g>
<path class="st70" d="M477.2,723.4c2.8-1.4,7.3-3.8,7.3-3.8c0.1-1.6,5.7-19.5,21-24c3.1,4.8-2.3,8.6-6.7,13.1
	c5.3-4.2,12.2-8.5,15.2-10.6c3.1-2.1,14-4.7,20.9-1.5c1.5,0.7,6.7,2.9,10.6,5.4c6.6,4.1,1.3,9.6-5.6,9.6c-6.9,0-8.3,2.2-14.5,8.4
	c-6.2,6.2-11.6,19.9-32,18.6c-2.1-0.1-4.6,1.7-4.6,1.7L477.2,723.4z"/>
<linearGradient id="SVGID_00000183970602556754674660000007774339550263855806_" gradientUnits="userSpaceOnUse" x1="480.7399" y1="753.9338" x2="287.4062" y2="699.267">
	<stop  offset="0" style="stop-color:#E09200"/>
	<stop  offset="0.6058" style="stop-color:#F2AD0A"/>
	<stop  offset="1" style="stop-color:#FBBA10"/>
</linearGradient>
<path style="fill:url(#SVGID_00000183970602556754674660000007774339550263855806_);" d="M493.1,741.5c3.7-10.9-9.3-20.5-16.9-19.8
	c-35.7,15.6-53.1,24.8-65.3,21.2c-51.4-24-62.4-68.9-75.1-80.7c-28.7-20.4-63.2,24.8-25.6,65.4c39.7,37.2,70.3,54.5,100.7,57.1
	C446.6,788,464.6,763.5,493.1,741.5z"/>
<linearGradient id="SVGID_00000072260900917322969630000011910270712939728549_" gradientUnits="userSpaceOnUse" x1="460.0818" y1="912.4567" x2="137.8591" y2="912.4567">
	<stop  offset="0.356" style="stop-color:#BBC0E2"/>
	<stop  offset="0.498" style="stop-color:#CBCEE9"/>
	<stop  offset="0.8254" style="stop-color:#EAEBF7"/>
	<stop  offset="1" style="stop-color:#F7F6FB"/>
</linearGradient>
<path style="fill:url(#SVGID_00000072260900917322969630000011910270712939728549_);" d="M140.5,969.6
	c-3.4-26.1-19.6-145.6-22.4-165.8c-3.6-26.6,24.7-45.5,65.5-22.4c40.8,23.1,83.2,52.8,124.4,113.2c21.2,31.1,72.4,20.4,93.9,6.7
	c30.2-19.1,58.1,2.9,58.1,68.3c-16.6,12-130.5,74.9-144.9,81.3c-14.4,6.4-26.2,3.8-57.5-16.3C226.4,1014.6,140.5,969.6,140.5,969.6z
	"/>
<g>
	
		<linearGradient id="SVGID_00000076573013712199061860000015438352867071040130_" gradientUnits="userSpaceOnUse" x1="785.1536" y1="673.5643" x2="830.1279" y2="673.5643">
		<stop  offset="0" style="stop-color:#D2D7EE"/>
		<stop  offset="0.5738" style="stop-color:#EBEDF8"/>
		<stop  offset="1" style="stop-color:#FFFFFF"/>
	</linearGradient>
	<path style="fill:url(#SVGID_00000076573013712199061860000015438352867071040130_);" d="M828.8,682.2l-18.2-22.8
		c-3.3-4.2-10.9-6-17.6-4.2c-4,1.1-6.7,3.1-7.6,5.7c-0.6,1.9-0.2,4,1.3,5.9l13.7,17.2c0.4,0.6,1.3,0.6,1.8,0.2
		c0.6-0.4,0.6-1.3,0.2-1.8l-13.7-17.2c-0.6-0.8-1.3-2.1-0.9-3.5c0.6-1.7,2.7-3.2,5.8-4c5.7-1.5,12.2,0,14.9,3.3l18.2,22.8
		c0.5,0.6,1,1.6,0.7,2.7c-0.4,1.3-2.1,2.4-4.4,3.1c-0.2,0-0.3,0.1-0.5,0.1c-4.6,1.1-10-0.1-12-2.6l-12.2-15.3
		c-0.4-0.5-0.6-1.1-0.4-1.6c0.3-0.8,1.4-1.9,3.6-2.5c3.5-0.9,7.8-0.1,9.3,1.8l7.7,9.7c0.4,0.6,1.3,0.6,1.8,0.2
		c0.6-0.4,0.6-1.3,0.2-1.8l-7.7-9.7c-2.2-2.7-7.5-3.9-12-2.7c-2.8,0.8-4.8,2.3-5.4,4.2c-0.5,1.4-0.2,2.8,0.8,4l12.2,15.3
		c2,2.5,6.1,4,10.4,4c1.6,0,3.2-0.2,4.7-0.6c0.2-0.1,0.3-0.1,0.5-0.2c3-0.9,5-2.5,5.7-4.6C830.4,685.6,830,683.8,828.8,682.2z"/>
	
		<linearGradient id="SVGID_00000169548565038079500230000015376190319306772867_" gradientUnits="userSpaceOnUse" x1="816.3042" y1="686.1585" x2="798.7591" y2="663.662">
		<stop  offset="0" style="stop-color:#FBBA13"/>
		<stop  offset="7.368302e-02" style="stop-color:#F8B511"/>
		<stop  offset="0.6297" style="stop-color:#E39609"/>
		<stop  offset="0.9355" style="stop-color:#DC8B06"/>
	</linearGradient>
	<path style="fill:url(#SVGID_00000169548565038079500230000015376190319306772867_);" d="M809,685.7l-12.2-15.3
		c-0.4-0.5-0.6-1.1-0.4-1.6c0.3-0.8,1.4-1.9,3.6-2.5c3.5-0.9,7.8-0.1,9.3,1.8l7.7,9.7c0.4,0.6,1.3,0.6,1.8,0.2
		c0.6-0.4,0.6-1.3,0.2-1.8l-7.7-9.7c-2.2-2.7-7.5-3.9-12-2.7c-2.8,0.7-4.8,2.3-5.4,4.2c-0.5,1.4-0.2,2.8,0.8,4l12.2,15.3
		c2,2.5,6.1,4,10.4,4c1.6,0,3.2-0.2,4.7-0.6c0.2,0,0.3-0.1,0.5-0.2l-1.6-2.2C816.3,689.3,811,688.2,809,685.7z"/>
	<path class="st77" d="M827.1,680.9L808.9,658c-3.3-4.2-10.9-6-17.6-4.2c-4,1.1-6.7,3.1-7.6,5.7c-0.6,2-0.2,4,1.3,5.9l13.7,17.2
		c0.4,0.6,1.3,0.6,1.8,0.2c0.6-0.4,0.7-1.3,0.2-1.8l-13.7-17.2c-0.6-0.8-1.3-2.1-0.9-3.5c0.6-1.7,2.7-3.2,5.8-4
		c5.7-1.5,12.2,0,14.9,3.3l18.2,22.8c0.5,0.6,1,1.6,0.7,2.7c-0.4,1.3-2.1,2.4-4.4,3.1c-0.2,0-0.3,0.1-0.5,0.1l1.6,2.2
		c3-0.9,5-2.5,5.7-4.6C828.8,684.3,828.4,682.5,827.1,680.9z"/>
</g>
<g>
	
		<linearGradient id="SVGID_00000168798869470975241660000008814977487298665645_" gradientUnits="userSpaceOnUse" x1="397.2126" y1="581.1522" x2="451.7868" y2="581.1522">
		<stop  offset="0" style="stop-color:#D2D7EE"/>
		<stop  offset="0.5371" style="stop-color:#ECEEF9"/>
		<stop  offset="1" style="stop-color:#FFFFFF"/>
	</linearGradient>
	<path style="fill:url(#SVGID_00000168798869470975241660000008814977487298665645_);" d="M447.7,566.1c-5.2-3-13.3-2.9-18.8,0.3
		l-23.2,13.4c-0.6,0.4-0.8,1.1-0.5,1.8c0.4,0.6,1.1,0.8,1.8,0.5l23.2-13.4c4.7-2.7,11.8-2.8,16.2-0.3c1.8,1.1,2.8,2.4,2.8,3.6
		c0,1.4-1.2,3-3.3,4.2L415.1,594c-3.8,2.2-9.3,2.3-12.9,0.3c-0.1,0-0.1-0.1-0.2-0.1c-1.4-0.9-2.2-1.9-2.2-3c0-1.1,0.8-2.2,2.4-3.1
		l20.6-11.9c2.7-1.6,7.3-1.6,10.1,0c1.1,0.6,1.7,1.4,1.7,2.2c0,0.7-0.6,1.5-1.7,2.2l-13,7.5c-0.6,0.4-0.8,1.1-0.5,1.8
		c0.4,0.6,1.1,0.8,1.8,0.5l13-7.5c1.9-1.1,3-2.7,3-4.4c0-1.7-1.1-3.3-3-4.4c-3.5-2.1-9.1-2.1-12.7,0l-20.6,11.9
		c-2.4,1.4-3.7,3.3-3.7,5.4c0,1.7,0.9,3.3,2.6,4.6c0.3,0.3,0.7,0.5,1.1,0.7c2.1,1.2,4.7,1.8,7.3,1.8c2.9,0,5.8-0.7,8.2-2.1
		l30.8-17.8c3-1.7,4.6-4,4.6-6.4C451.8,569.8,450.3,567.7,447.7,566.1z"/>
	
		<linearGradient id="SVGID_00000166634087462487550640000016068109120008916904_" gradientUnits="userSpaceOnUse" x1="402.5634" y1="590.6222" x2="432.5945" y2="573.2924">
		<stop  offset="0" style="stop-color:#434697"/>
		<stop  offset="0.285" style="stop-color:#3B3A83"/>
		<stop  offset="0.7046" style="stop-color:#302F6E"/>
		<stop  offset="0.9355" style="stop-color:#2B2B66"/>
	</linearGradient>
	<path style="fill:url(#SVGID_00000166634087462487550640000016068109120008916904_);" d="M398.2,589.8c0-1.1,0.8-2.2,2.4-3.1
		l20.6-11.9c2.7-1.6,7.3-1.6,10.1,0c1.1,0.6,1.7,1.4,1.7,2.2c0,0.7-0.6,1.5-1.7,2.2l-13,7.5c-0.6,0.4-0.8,1.1-0.5,1.8
		c0.4,0.6,1.1,0.8,1.8,0.5l13-7.5c1.9-1.1,3-2.7,3-4.4c0-1.7-1.1-3.3-3-4.4c-3.6-2-9.1-2-12.7,0l-20.6,11.9
		c-2.4,1.4-3.7,3.3-3.7,5.4c0,1.7,0.9,3.3,2.6,4.6l2.2-1.6C399,591.9,398.2,590.9,398.2,589.8z"/>
	<path class="st4" d="M446,564.8c-5.2-3-13.3-2.9-18.8,0.3l-23.2,13.4c-0.6,0.4-0.8,1.1-0.5,1.8c0.4,0.6,1.1,0.8,1.8,0.5l23.2-13.4
		c4.7-2.7,11.8-2.8,16.2-0.3c1.8,1.1,2.8,2.3,2.8,3.6c0,1.4-1.2,3-3.3,4.2l-30.8,17.8c-3.8,2.2-9.3,2.3-12.9,0.3
		c-0.1,0-0.1-0.1-0.2-0.1l-2.2,1.6c0.3,0.3,0.7,0.5,1.1,0.7c2.1,1.2,4.7,1.8,7.3,1.8c2.8,0,5.8-0.7,8.2-2.1l30.8-17.8
		c3-1.7,4.6-4,4.6-6.4C450.2,568.4,448.7,566.3,446,564.8z"/>
</g>
<linearGradient id="SVGID_00000126301398863743517560000003097708306271670205_" gradientUnits="userSpaceOnUse" x1="735.1482" y1="729.0517" x2="819.7244" y2="729.0517">
	<stop  offset="0" style="stop-color:#C7CCE7"/>
	<stop  offset="0.2373" style="stop-color:#D8DBEF"/>
	<stop  offset="0.6877" style="stop-color:#F5F5FB"/>
	<stop  offset="0.9355" style="stop-color:#FFFFFF"/>
</linearGradient>
<rect x="735.1" y="707.9" style="fill:url(#SVGID_00000126301398863743517560000003097708306271670205_);" width="84.6" height="42.4"/>
<g>
	
		<linearGradient id="SVGID_00000079481304537491061230000017019285965161971626_" gradientUnits="userSpaceOnUse" x1="700.902" y1="714.6227" x2="769.3942" y2="714.6227">
		<stop  offset="0" style="stop-color:#CFD2EB"/>
		<stop  offset="0.337" style="stop-color:#C7CBE8"/>
		<stop  offset="0.9011" style="stop-color:#B0B6DD"/>
		<stop  offset="1" style="stop-color:#ABB2DB"/>
	</linearGradient>
	<path style="fill:url(#SVGID_00000079481304537491061230000017019285965161971626_);" d="M759.4,693c-13.4,7.7-35.1,7.7-48.4,0
		c-6.7-3.9-10-8.9-10-14v51.5c0,5.1,3.3,10.1,10,14c13.4,7.7,35.1,7.7,48.4,0c6.7-3.9,10-8.9,10-14V679l0,0
		C769.4,684.1,766,689.1,759.4,693z"/>
	<path class="st15" d="M700.9,679c0-5.1,3.3-10.1,10-14c13.4-7.7,35.1-7.7,48.4,0c6.7,3.9,10,8.9,10,14c0,5.1-3.3,10.1-10,14
		c-13.4,7.7-35.1,7.7-48.4,0C704.2,689.1,700.9,684.1,700.9,679z"/>
	<path class="st0" d="M759.4,665c-0.2-0.1-0.3-0.2-0.5-0.3l-1.2,3.6h6.3C762.7,667.2,761.1,666,759.4,665z"/>
	
		<linearGradient id="SVGID_00000054983069651912203480000000302402795028694456_" gradientUnits="userSpaceOnUse" x1="706.0408" y1="673.8115" x2="764.2536" y2="673.8115">
		<stop  offset="0" style="stop-color:#BBC0E2"/>
		<stop  offset="1" style="stop-color:#CFD2EB"/>
	</linearGradient>
	<path style="fill:url(#SVGID_00000054983069651912203480000000302402795028694456_);" d="M714.6,680c11.4-6.6,29.8-6.6,41.2,0
		c2.8,1.6,4.9,3.5,6.3,5.4c1.5-2.1,2.2-4.2,2.2-6.4c0-4.3-2.8-8.6-8.5-11.9c-11.4-6.6-29.8-6.6-41.2,0c-5.7,3.3-8.5,7.6-8.5,11.9
		c0,2.2,0.7,4.4,2.2,6.4C709.7,683.5,711.8,681.6,714.6,680z"/>
	
		<linearGradient id="SVGID_00000138536207999092059970000009752471442283096714_" gradientUnits="userSpaceOnUse" x1="708.2576" y1="685.4294" x2="762.0368" y2="685.4294">
		<stop  offset="0" style="stop-color:#2B2B66"/>
		<stop  offset="1" style="stop-color:#4F54A0"/>
	</linearGradient>
	<path style="fill:url(#SVGID_00000138536207999092059970000009752471442283096714_);" d="M714.6,690.9c11.4,6.6,29.8,6.6,41.2,0
		c2.8-1.6,4.9-3.5,6.3-5.4c-1.4-2-3.5-3.8-6.3-5.4c-11.4-6.6-29.8-6.6-41.2,0c-2.8,1.6-4.9,3.5-6.3,5.4
		C709.7,687.4,711.8,689.3,714.6,690.9z"/>
	<path class="st40" d="M704.7,734.6c-1.6,0.9-2.9,0.1-2.9-1.7V715c0-1.8,1.3-4.1,2.9-5.1c0,0,3.9-2.3,8.1-4.7V700l-8.1,4.7
		c-4.1,2.4-7.5,8.3-7.5,13.1v17.9c0,4.8,3.4,6.7,7.5,4.4l8.1-4.7V730C708.6,732.4,704.7,734.6,704.7,734.6z"/>
	
		<linearGradient id="SVGID_00000117676202056130163050000010013811130119713174_" gradientUnits="userSpaceOnUse" x1="690.9512" y1="735.63" x2="711.8396" y2="699.4504">
		<stop  offset="0.4326" style="stop-color:#CFD2EB"/>
		<stop  offset="0.8708" style="stop-color:#F7F6FB"/>
	</linearGradient>
	<path style="fill:url(#SVGID_00000117676202056130163050000010013811130119713174_);" d="M697.1,735.6v-17.9
		c0-4.8,3.4-10.7,7.5-13.1l8.1-4.7l-3.6-2.1l-8.1,4.7c-4.1,2.4-7.5,8.3-7.5,13.1v17.9c0,2.2,0.7,3.8,1.9,4.7v0l0,0
		c0.2,0.1,0.3,0.2,0.5,0.3l3.2,1.9C697.9,739.6,697.1,737.9,697.1,735.6z"/>
	<path class="st15" d="M709.2,727.9c-3.1,1.8-6.1,3.5-7.4,4.3v0.8c0,1.8,1.3,2.6,2.9,1.7c0,0,3.9-2.3,8.1-4.7L709.2,727.9z"/>
</g>
<g>
	
		<linearGradient id="SVGID_00000071546630511369567650000007272069405382240953_" gradientUnits="userSpaceOnUse" x1="743.4742" y1="690.8386" x2="747.9461" y2="681.0292">
		<stop  offset="0" style="stop-color:#020203"/>
		<stop  offset="1" style="stop-color:#37348B"/>
	</linearGradient>
	<polygon style="fill:url(#SVGID_00000071546630511369567650000007272069405382240953_);" points="745.8,680.1 749.9,681.9 
		744.9,693.4 741,691 	"/>
	
		<linearGradient id="SVGID_00000155123839033249201720000009912803364984385468_" gradientUnits="userSpaceOnUse" x1="746.0377" y1="691.9413" x2="750.6605" y2="681.8009">
		<stop  offset="0" style="stop-color:#020203"/>
		<stop  offset="1" style="stop-color:#2B2B66"/>
	</linearGradient>
	<polygon style="fill:url(#SVGID_00000155123839033249201720000009912803364984385468_);" points="744.9,693.4 745.9,693.7 
		751.2,681.8 749.9,681.9 	"/>
	<path class="st15" d="M764.7,642.9c1.6,0.9,2.1,3.2,1.2,5.2c0,0-15.1,32-16.5,34.9c-2.6,0.7-3.8-1.1-3.8-2.5
		c0.6-1.3,14.5-35.4,14.5-35.4c0-0.1,0.1-0.2,0.1-0.3C761.1,642.9,763.1,642,764.7,642.9z"/>
	<path class="st40" d="M766,643.2c-0.3-0.1-0.5-0.2-0.8-0.3l-1.3-0.3c0.3,0.1,0.5,0.2,0.8,0.3c1.6,0.9,2.1,3.2,1.2,5.2L749.5,683
		c0,0,1.3-0.2,1.6-1.1c0.4-0.9,16.2-33.5,16.2-33.5C768.1,646.5,767.6,644.1,766,643.2z"/>
</g>
<linearGradient id="SVGID_00000075132063726357296440000005251663787123006603_" gradientUnits="userSpaceOnUse" x1="824.5944" y1="754.3273" x2="958.8044" y2="754.3273">
	<stop  offset="0" style="stop-color:#C5C9E5"/>
	<stop  offset="0.2193" style="stop-color:#C9CEE7"/>
	<stop  offset="0.4921" style="stop-color:#D6D9ED"/>
	<stop  offset="0.7921" style="stop-color:#ECEDF7"/>
	<stop  offset="1" style="stop-color:#FFFFFF"/>
</linearGradient>
<path style="fill:url(#SVGID_00000075132063726357296440000005251663787123006603_);" d="M844.2,726.9c26.2-15.1,68.7-15.1,94.9,0
	c13.1,7.6,19.7,17.5,19.7,27.4c0,9.9-6.6,19.8-19.7,27.4c-26.2,15.1-68.7,15.1-94.9,0C818,766.6,818,742.1,844.2,726.9z"/>
<g>
	<g>
		<path class="st15" d="M829.2,718.2c26.2-15.1,68.7-15.1,94.9,0c13.1,7.6,19.7,17.5,19.7,27.4c0,9.9-6.6,19.8-19.7,27.4
			c-26.2,15.1-68.7,15.1-94.9,0C803,757.9,803,733.4,829.2,718.2z"/>
		
			<linearGradient id="SVGID_00000031182194529372368110000009915498229527250320_" gradientUnits="userSpaceOnUse" x1="887.2966" y1="745.3749" x2="943.7614" y2="745.3749">
			<stop  offset="0" style="stop-color:#D2D7EE"/>
			<stop  offset="1" style="stop-color:#FFFFFF"/>
		</linearGradient>
		<path style="fill:url(#SVGID_00000031182194529372368110000009915498229527250320_);" d="M911.6,730.5h-23.3
			c0.7,2-0.3,29.6-1.1,29.7h17.3l15.6-9h22.8c0.5-1.8,0.7-3.7,0.7-5.6c0-3.4-0.8-6.8-2.3-10.1h-21.2L911.6,730.5z"/>
		
			<linearGradient id="SVGID_00000099623260713502762330000003587307141453668030_" gradientUnits="userSpaceOnUse" x1="809.5564" y1="769.355" x2="943.7614" y2="769.355">
			<stop  offset="0" style="stop-color:#5F65AC"/>
			<stop  offset="0.2912" style="stop-color:#4F539F"/>
			<stop  offset="0.7505" style="stop-color:#3C3B8F"/>
			<stop  offset="1" style="stop-color:#34348B"/>
		</linearGradient>
		<path style="fill:url(#SVGID_00000099623260713502762330000003587307141453668030_);" d="M924.1,773c-26.2,15.1-68.7,15.1-94.9,0
			c-13.1-7.6-19.6-17.5-19.6-27.4v8.7c0,9.9,6.6,19.8,19.6,27.4c26.2,15.1,68.7,15.1,94.9,0c13.1-7.6,19.6-17.5,19.7-27.4v-8.7
			C943.8,755.6,937.2,765.5,924.1,773z"/>
	</g>
	<g>
		<path class="st90" d="M900.9,742.3c0-6.1-4.3-8.6-9.6-5.6c-5.3,3.1-9.6,10.5-9.6,16.7c0,6.1,4.3,8.6,9.6,5.5
			C896.6,755.8,900.9,748.4,900.9,742.3z"/>
		
			<linearGradient id="SVGID_00000004517266068064407070000000704097459723474579_" gradientUnits="userSpaceOnUse" x1="1792.0549" y1="749.1837" x2="1778.4587" y2="725.6344" gradientTransform="matrix(-1 0 0 1 2658.4995 0)">
			<stop  offset="0" style="stop-color:#CFD1EB"/>
			<stop  offset="1" style="stop-color:#F5F5FA"/>
		</linearGradient>
		<path style="fill:url(#SVGID_00000004517266068064407070000000704097459723474579_);" d="M855.3,742.8c0,0,29.1,16.8,29.1,16.8
			c-1.7-1-2.8-3.2-2.8-6.2c0-6.1,4.3-13.6,9.6-16.7c2.6-1.5,5-1.7,6.8-0.7c0,0-29-16.7-29-16.7c-1.8-1.1-4.2-1.1-7,0.5
			c-5.3,3.1-9.6,10.5-9.6,16.7C852.4,739.6,853.6,741.8,855.3,742.8z"/>
	</g>
	<g>
		<path class="st92" d="M885.6,733.4c-3.8,2.2-7.1,6.6-8.6,11.2l54.4-193.3l12.7-1.6l-51.6,183.1
			C890.7,731.8,888.3,731.9,885.6,733.4z"/>
		<polygon class="st93" points="877,744.7 863.4,736.8 917.8,543.5 931.4,551.3 		"/>
	</g>
	<g>
		<path class="st90" d="M957.2,542.1c0-6.1-4.3-8.6-9.6-5.6c-5.3,3.1-9.6,10.5-9.6,16.7c0,6.1,4.3,8.6,9.6,5.5
			C952.9,555.7,957.2,548.3,957.2,542.1z"/>
		
			<linearGradient id="SVGID_00000115504360899971904130000006184956997697659325_" gradientUnits="userSpaceOnUse" x1="1735.7456" y1="549.0563" x2="1722.1484" y2="525.5054" gradientTransform="matrix(-1 0 0 1 2658.4995 0)">
			<stop  offset="0" style="stop-color:#CFD1EB"/>
			<stop  offset="1" style="stop-color:#F5F5FA"/>
		</linearGradient>
		<path style="fill:url(#SVGID_00000115504360899971904130000006184956997697659325_);" d="M911.6,542.6c0,0,29.1,16.8,29.1,16.8
			c-1.7-1-2.8-3.1-2.8-6.2c0-6.1,4.3-13.6,9.6-16.7c2.6-1.5,5-1.7,6.8-0.7c0,0-29-16.7-29-16.7c-1.8-1.1-4.2-1.1-7,0.5
			c-5.3,3.1-9.6,10.5-9.6,16.7C908.8,539.5,909.9,541.6,911.6,542.6z"/>
	</g>
	<g>
		<path class="st92" d="M930.1,548.7c0,0.4,0.1,0.7,0.1,1.1l-110-40.6l8.6-17.1l110,40.6C934,536.1,930.1,543,930.1,548.7z"/>
		<polygon class="st93" points="938.9,532.7 925.3,524.9 815.3,484.2 828.9,492.1 		"/>
	</g>
	<g>
		<path class="st90" d="M842.3,499.2c0-6.1-4.3-8.6-9.6-5.6c-5.3,3.1-9.6,10.5-9.6,16.7c0,6.1,4.3,8.6,9.6,5.5
			C838,512.8,842.3,505.3,842.3,499.2z"/>
		
			<linearGradient id="SVGID_00000150102679118429783440000004593611321384343742_" gradientUnits="userSpaceOnUse" x1="1850.6034" y1="506.0924" x2="1837.0072" y2="482.543" gradientTransform="matrix(-1 0 0 1 2658.4995 0)">
			<stop  offset="0" style="stop-color:#CFD1EB"/>
			<stop  offset="1" style="stop-color:#F5F5FA"/>
		</linearGradient>
		<path style="fill:url(#SVGID_00000150102679118429783440000004593611321384343742_);" d="M796.8,499.7c0,0,29.1,16.8,29.1,16.8
			c-1.7-1-2.8-3.2-2.8-6.2c0-6.1,4.3-13.6,9.6-16.7c2.6-1.5,5-1.7,6.8-0.7c0,0-29-16.7-29-16.7c-1.8-1.1-4.2-1.1-7,0.5
			c-5.3,3.1-9.6,10.5-9.6,16.7C793.9,496.5,795,498.7,796.8,499.7z"/>
	</g>
	<g>
		
			<linearGradient id="SVGID_00000031896437628782111900000008573795460287684750_" gradientUnits="userSpaceOnUse" x1="1837.4757" y1="522.6559" x2="1908.0956" y2="489.2324" gradientTransform="matrix(-1 0 0 1 2658.4995 0)">
			<stop  offset="0" style="stop-color:#34348B"/>
			<stop  offset="0.3608" style="stop-color:#464798"/>
			<stop  offset="0.768" style="stop-color:#585DA6"/>
			<stop  offset="1" style="stop-color:#5F65AC"/>
		</linearGradient>
		<path style="fill:url(#SVGID_00000031896437628782111900000008573795460287684750_);" d="M713.1,531.8c0-0.1,70.7-94.3,70.7-94.3
			l56.8,27.2l-28.2,114c0,1.5-3.6,1.4-11-0.7c-17.2-5-48.6-19.1-70-31.6C718.3,538.7,712,533.5,713.1,531.8z"/>
		<path class="st92" d="M790,438.3c-9.9-2.9-7.9,0.6,4.3,7.7c12.3,7.1,30.2,15.2,40.1,18.1c9.9,2.9,7.9-0.6-4.3-7.7
			C817.8,449.2,799.8,441.1,790,438.3z"/>
		
			<linearGradient id="SVGID_00000142151856648029479990000005431259218637072288_" gradientUnits="userSpaceOnUse" x1="1824.0406" y1="446.7854" x2="1864.3348" y2="446.7854" gradientTransform="matrix(-1 0 0 1 2658.4995 0)">
			<stop  offset="0" style="stop-color:#34348B"/>
			<stop  offset="0.2748" style="stop-color:#3E3E92"/>
			<stop  offset="0.7246" style="stop-color:#4B4F9D"/>
			<stop  offset="1" style="stop-color:#5056A2"/>
		</linearGradient>
		<path style="fill:url(#SVGID_00000142151856648029479990000005431259218637072288_);" d="M794.3,442.5l4.2-8.9l36,17.1l-4.3,9.1
			c-0.2,0.4-1.5,0.3-3.9-0.4c-6.2-1.8-17.6-6.9-25.4-11.4C795.9,445,793.7,443.1,794.3,442.5z"/>
		<path class="st92" d="M802.5,433.9c-6.2-1.8-5,0.4,2.7,4.9c7.8,4.5,19.1,9.6,25.4,11.4c6.2,1.8,5-0.4-2.7-4.9
			C820.1,440.8,808.7,435.7,802.5,433.9z"/>
	</g>
</g>
<linearGradient id="SVGID_00000093892438812254349830000000345005433768835740_" gradientUnits="userSpaceOnUse" x1="891.9993" y1="849.1942" x2="1022.693" y2="849.1942" gradientTransform="matrix(1 0 0 1 -149.5508 0)">
	<stop  offset="0" style="stop-color:#D2D7EE"/>
	<stop  offset="0.1935" style="stop-color:#DBDFF2"/>
	<stop  offset="1" style="stop-color:#FFFFFF"/>
</linearGradient>
<path style="fill:url(#SVGID_00000093892438812254349830000000345005433768835740_);" d="M873.1,828.3l-30.7-17.8l-43.3,24.7
	l16.1,9.3L750,882.2l-0.6,0.3l-1.4-0.8l-0.2,0.1v1.6l-0.6,0.3l-4,2.3c-1.7,1-0.3,1.7,3,1.7h17.2c3.3,0,7.4-0.8,9-1.7l4-2.3l0.6-0.3
	l-1.1-1l2.7,0.1l0.6-0.3l50.6-29.2L873.1,828.3z"/>
<polygon class="st39" points="743.2,882.9 668.2,839.6 668.2,828.7 743.2,872 "/>
<polygon class="st19" points="737.3,882.8 740.2,881.1 744.5,883.6 741.7,885.3 "/>
<path class="st19" d="M662.6,839.6l70.8,40.9l2.8-1.6L665.4,838L662.6,839.6z M668.2,836.3l-2.8,1.6l2.8,1.6V836.3z"/>
<polygon class="st19" points="734.5,865.6 836.2,806.9 764.2,765.4 662.6,824.1 "/>
<polygon class="st59" points="734.5,867.2 836.2,808.5 836.2,806.9 734.5,865.6 "/>
<polygon class="st4" points="736.1,868.1 837.8,809.4 836.2,808.5 734.5,867.2 "/>
<path class="st20" d="M737.3,870.2l-0.6-0.3l-2.8-1.6l-0.6-0.3v-1.6l-70.8-40.9v-1.4l71.4,41.2l0.6,0.3v1.6l1.6,0.9v-1.6l0.6,0.3
	l4,2.3c1.7,1,3,3.3,3,5.2v10c0,1.9-1.3,2.7-3,1.7l-4-2.3l-0.6-0.3v-1.6l-1.6-0.9v1.6l-0.6-0.3L662.6,841v-1.4l70.8,40.9v-0.9v-0.7
	l0.6,0.3l2.8,1.6l0.6,0.3v1.6l3.4,2c1,0.6,1.8,0.1,1.8-1v-10c0-1.1-0.8-2.5-1.8-3.1l-3.4-2V870.2z"/>
<polygon class="st19" points="740.8,869.2 842.4,810.5 837.8,807.9 736.1,866.6 "/>
<linearGradient id="SVGID_00000147936306938577724400000014820451239066597007_" gradientUnits="userSpaceOnUse" x1="2032.1516" y1="855.1037" x2="2040.0902" y2="841.3535" gradientTransform="matrix(-1 0 0 1 2829.1067 0)">
	<stop  offset="0.6411" style="stop-color:#2B2B66"/>
	<stop  offset="0.7839" style="stop-color:#3A387B"/>
	<stop  offset="1" style="stop-color:#4F54A0"/>
</linearGradient>
<path style="fill:url(#SVGID_00000147936306938577724400000014820451239066597007_);" d="M743.8,884.4v-10c0-1.9-1.3-4.3-3-5.2
	l101.6-58.7c1.7,1,3,3.3,3,5.2v10c0,1-0.4,1.7-0.9,2v0L743,886.3v0C743.5,885.9,743.8,885.3,743.8,884.4z"/>
<polygon class="st19" points="733.3,878.9 736.1,877.3 740.2,879.6 737.3,881.2 "/>
<polygon class="st20" points="737.3,868.6 738.7,869.4 737.3,870.2 "/>
<polygon class="st59" points="737.3,881.2 740.2,879.6 740.2,881.1 737.3,882.8 "/>
<polygon class="st20" points="734.5,881 735.9,881.7 734.5,882.5 "/>
<path class="st77" d="M706.2,884.8c0.2,2.5,1.4,9.3,1.9,12.2c8.8-13.6,15.8-19.8,24.7-25c-2.3-1.3-8.9-5.1-13.9-8
	c-8.8,5.1-18.6,16-24.7,25C698,887.2,702.1,885.7,706.2,884.8z"/>
<linearGradient id="SVGID_00000028310529086585371910000016555337880708224681_" gradientUnits="userSpaceOnUse" x1="626.8946" y1="888.5688" x2="679.8727" y2="888.5688">
	<stop  offset="0.4265" style="stop-color:#C3C9E7"/>
	<stop  offset="0.6283" style="stop-color:#DCE0F2"/>
	<stop  offset="0.8647" style="stop-color:#F6F7FC"/>
	<stop  offset="1" style="stop-color:#FFFFFF"/>
</linearGradient>
<path style="fill:url(#SVGID_00000028310529086585371910000016555337880708224681_);" d="M672.1,877.7c-5.5-3.2-12.9-4.7-20.1-4.5
	h-11.3v1.9c-2.2,0.7-4.2,1.5-6,2.6c-10.3,6-10.2,15.7,0.1,21.7c1.8,1,3.8,1.9,5.9,2.5v1.9h13.6c6.5-0.1,13-1.6,18-4.5
	C682.5,893.4,682.4,883.7,672.1,877.7z"/>
<g>
	
		<linearGradient id="SVGID_00000165929670522627004310000010943067359776397980_" gradientUnits="userSpaceOnUse" x1="615.2146" y1="891.7057" x2="668.2204" y2="891.7057">
		<stop  offset="0" style="stop-color:#7377B7"/>
		<stop  offset="1" style="stop-color:#434697"/>
	</linearGradient>
	<path style="fill:url(#SVGID_00000165929670522627004310000010943067359776397980_);" d="M623,899.4c-5.2-3-7.8-7-7.8-10.9l0-9
		c0,4,2.6,7.9,7.8,10.9c10.4,6,27.2,6,37.5,0c5.1-3,7.7-6.9,7.7-10.8l0,9c0,3.9-2.6,7.8-7.7,10.8C650.2,905.4,633.4,905.4,623,899.4
		z"/>
	<path class="st11" d="M623.1,890.4c-10.4-6-10.4-15.7-0.1-21.7c10.3-6,27.1-6,37.5,0c10.4,6,10.4,15.7,0.1,21.7
		C650.2,896.4,633.4,896.4,623.1,890.4z"/>
	<polygon class="st102" points="653.1,872.7 647.8,878.7 656,883.4 644.6,882.3 639.3,888.3 637.5,881.7 626.1,880.7 636.4,877.6 
		634.6,871 642.8,875.7 	"/>
</g>
<linearGradient id="SVGID_00000070826885854296321040000002328039679002067105_" gradientUnits="userSpaceOnUse" x1="594.5322" y1="809.2997" x2="704.557" y2="809.2997">
	<stop  offset="0" style="stop-color:#CBCACA"/>
	<stop  offset="0.2437" style="stop-color:#D2D1D2"/>
	<stop  offset="0.6392" style="stop-color:#E7E6E7"/>
	<stop  offset="1" style="stop-color:#FFFFFF"/>
</linearGradient>
<path style="fill:url(#SVGID_00000070826885854296321040000002328039679002067105_);" d="M700,775.9c-0.8,0-1.6,0.2-2.3,0.6
	c-0.4,0.2-1.5,0.9-2.5,1.5l-0.5-0.3c-0.2-0.1-0.5-0.1-0.8,0c-0.1,0-9,5.2-9,5.2c-0.1,0.1-0.2,0.1-0.3,0.2l-0.4,0.6l-82.5,50.8
	l-5.3,8.2l13.9-4.4l78.2-45.1c0.2,0.1,0.5,0.1,0.8,0c0,0,9-5.2,9-5.2c0.1-0.1,0.2-0.1,0.3-0.2l0.6-0.9l3.3-1.9
	c1.4-0.9,2.3-2.4,2.3-4.2C704.8,778.1,702.7,775.9,700,775.9z"/>
<g>
	
		<linearGradient id="SVGID_00000086662879391719983750000003201063105625047993_" gradientUnits="userSpaceOnUse" x1="690.0826" y1="774.8473" x2="695.1181" y2="783.2071">
		<stop  offset="0" style="stop-color:#5D62AA"/>
		<stop  offset="1" style="stop-color:#37348B"/>
	</linearGradient>
	<path style="fill:url(#SVGID_00000086662879391719983750000003201063105625047993_);" d="M692.1,774.2c-0.8,0-1.6,0.2-2.3,0.6
		c-0.4,0.3-2,1.2-3.2,1.8c0.3,0.1,0.6,0.2,0.9,0.4c2.2,1.3,3.9,4.3,3.9,6.8c0,0.6-0.1,1-0.3,1.4l3.5-2c1.4-0.9,2.3-2.4,2.3-4.2
		C697,776.4,694.8,774.2,692.1,774.2z"/>
	
		<linearGradient id="SVGID_00000013880282543749677080000004061467408554449837_" gradientUnits="userSpaceOnUse" x1="600.1292" y1="837.108" x2="595.3967" y2="828.8054">
		<stop  offset="0" style="stop-color:#BBC0E2"/>
		<stop  offset="0.9067" style="stop-color:#F1F1F9"/>
		<stop  offset="1" style="stop-color:#F7F6FB"/>
	</linearGradient>
	<path style="fill:url(#SVGID_00000013880282543749677080000004061467408554449837_);" d="M592.9,834.8c0.7,0.4,1.3,1.4,1.3,2.2
		c0,0.5-0.2,0.8-0.5,0.9l8.9-1.3l1.9-2.7l-1.9-4.9l-3.8-2.2l-6.8,8C592.1,834.6,592.5,834.6,592.9,834.8z"/>
	
		<linearGradient id="SVGID_00000149360976117560884750000004326183366590497185_" gradientUnits="userSpaceOnUse" x1="592.1994" y1="838.52" x2="590.2065" y2="835.9459">
		<stop  offset="0" style="stop-color:#37348B"/>
		<stop  offset="1" style="stop-color:#7276B7"/>
	</linearGradient>
	<path style="fill:url(#SVGID_00000149360976117560884750000004326183366590497185_);" d="M592.9,834.8c-0.4-0.2-0.8-0.2-1,0
		l-0.1,0.1l-3.2,3.7l4.9-0.7l0.1,0c0.3-0.1,0.5-0.4,0.5-0.9C594.2,836.2,593.6,835.3,592.9,834.8z"/>
	<path class="st39" d="M677.6,789.7c-0.3-0.2-0.7-0.6-0.9-1l-1.5-4c-0.1-0.4-0.1-0.9,0.2-1.2l1.5-2.1c0.2-0.3,0.7-0.4,1-0.2l3.1,1.8
		c0.3,0.2,0.7,0.6,0.9,1l1.5,4c0.1,0.4,0.1,0.9-0.2,1.2l-1.5,2.1c-0.2,0.3-0.7,0.4-1,0.2L677.6,789.7z"/>
	<polygon class="st19" points="683,788.5 604.4,833.9 602.5,829 681.1,783.6 	"/>
	<polygon class="st20" points="681.1,791.2 602.5,836.6 604.4,833.9 683,788.5 	"/>
	<polygon class="st37" points="681.1,783.6 602.5,829 598.7,826.8 677.3,781.4 	"/>
	<g>
		
			<linearGradient id="SVGID_00000169532225272990872960000007313475959721935530_" gradientUnits="userSpaceOnUse" x1="687.5281" y1="787.4761" x2="682.0024" y2="778.1851">
			<stop  offset="7.383770e-02" style="stop-color:#A3A9D0"/>
			<stop  offset="0.137" style="stop-color:#CFD2EB"/>
			<stop  offset="0.5586" style="stop-color:#CFD2EB"/>
			<stop  offset="0.6895" style="stop-color:#F7F6FB"/>
		</linearGradient>
		<path style="fill:url(#SVGID_00000169532225272990872960000007313475959721935530_);" d="M692.3,782.8l-1.5-4
			c-0.1-0.4-0.5-0.8-0.9-1l-3.1-1.8c-0.2-0.1-0.5-0.1-0.8,0c-0.1,0-9,5.2-9,5.2c0.2-0.1,0.5-0.1,0.7,0l3.1,1.8
			c0.3,0.2,0.7,0.6,0.9,1l1.5,4c0.1,0.4,0.1,0.9-0.2,1.2l-1.5,2.1c-0.1,0.1-0.1,0.1-0.2,0.2l8.9-5.1c0.1-0.1,0.2-0.1,0.3-0.2
			l1.5-2.1C692.4,783.7,692.4,783.1,692.3,782.8z"/>
		
			<linearGradient id="SVGID_00000174594544889252318550000013289255653386222522_" gradientUnits="userSpaceOnUse" x1="684.5596" y1="789.5858" x2="677.6905" y2="780.8588">
			<stop  offset="0.5586" style="stop-color:#D2D7EE"/>
			<stop  offset="0.6895" style="stop-color:#F1F1F6"/>
		</linearGradient>
		<path style="fill:url(#SVGID_00000174594544889252318550000013289255653386222522_);" d="M682.8,790.7c0.1-0.1,0.1-0.1,0.2-0.2
			l1.5-2.1c0.2-0.3,0.3-0.9,0.1-1.2l-1.5-4c-0.1-0.4-0.5-0.8-0.9-1l-3.1-1.8c-0.2-0.1-0.5-0.1-0.7,0c0,0-0.6,0.4-0.6,0.4
			c0.2-0.1,0.5-0.1,0.7,0l3.1,1.8c0.3,0.2,0.7,0.6,0.9,1l1.5,4c0.1,0.4,0.1,0.9-0.1,1.2l-1.5,2.1c-0.1,0.1-0.1,0.1-0.2,0.2
			L682.8,790.7z"/>
		
			<linearGradient id="SVGID_00000078737215635743904740000005382019276261426604_" gradientUnits="userSpaceOnUse" x1="685.9024" y1="788.8096" x2="679.0333" y2="780.0826">
			<stop  offset="0.5586" style="stop-color:#D2D7EE"/>
			<stop  offset="0.6895" style="stop-color:#F1F1F6"/>
		</linearGradient>
		<path style="fill:url(#SVGID_00000078737215635743904740000005382019276261426604_);" d="M684.1,790c0.1,0,0.1-0.1,0.2-0.2
			l1.5-2.1c0.2-0.3,0.3-0.9,0.2-1.2l-1.5-4c-0.1-0.4-0.5-0.8-0.9-1l-3.1-1.8c-0.2-0.1-0.5-0.1-0.7,0c0,0-0.6,0.4-0.6,0.4
			c0.2-0.1,0.5-0.1,0.7,0l3.1,1.8c0.3,0.2,0.7,0.6,0.9,1l1.5,4c0.1,0.4,0.1,0.9-0.2,1.2l-1.5,2.1c-0.1,0.1-0.1,0.1-0.2,0.2
			L684.1,790z"/>
		
			<linearGradient id="SVGID_00000058567753614206164270000011076957227263884678_" gradientUnits="userSpaceOnUse" x1="687.2477" y1="788.0336" x2="680.3782" y2="779.3062">
			<stop  offset="0.5586" style="stop-color:#D2D7EE"/>
			<stop  offset="0.6895" style="stop-color:#F1F1F6"/>
		</linearGradient>
		<path style="fill:url(#SVGID_00000058567753614206164270000011076957227263884678_);" d="M685.5,789.2c0.1-0.1,0.2-0.1,0.2-0.2
			l1.5-2.1c0.2-0.3,0.3-0.9,0.2-1.2l-1.5-4c-0.1-0.4-0.5-0.8-0.9-1l-3.1-1.8c-0.2-0.1-0.5-0.1-0.7,0c0,0-0.7,0.4-0.7,0.4
			c0.2-0.1,0.5-0.1,0.7,0l3.1,1.8c0.3,0.2,0.7,0.6,0.9,1l1.5,4c0.1,0.4,0.1,0.9-0.2,1.2l-1.5,2.1c-0.1,0.1-0.1,0.1-0.2,0.2
			L685.5,789.2z"/>
	</g>
</g>
<linearGradient id="SVGID_00000084496463599811957730000009372753124918792859_" gradientUnits="userSpaceOnUse" x1="104.7166" y1="578.9681" x2="245.2926" y2="578.9681">
	<stop  offset="0.4164" style="stop-color:#C7CCE7"/>
	<stop  offset="0.5706" style="stop-color:#D1D5EC"/>
	<stop  offset="0.8507" style="stop-color:#EEEFF8"/>
	<stop  offset="1" style="stop-color:#FFFFFF"/>
</linearGradient>
<path style="fill:url(#SVGID_00000084496463599811957730000009372753124918792859_);" d="M245.3,562.9c-3.3-4.6-8.2-9-14.7-12.7
	c-23.4-13.5-59.7-15-85.9-4.4l-11.2,2.7c-3.2,1.3-6.3,2.7-9.1,4.4c-13.1,7.6-19.7,17.5-19.7,27.4c0,9.9,6.6,19.9,19.7,27.4
	c26.2,15.1,68.8,15.1,95,0c12.3-7.1,18.9-16.3,19.6-25.7c0.4-5.6-1.2-11.2-4.9-16.5L245.3,562.9z"/>
<g>
	<path class="st37" d="M120.7,522.9l38.4,31.8l47.5-27.4C183.3,513.8,146.9,512.3,120.7,522.9z"/>
	<path class="st38" d="M206.7,527.3l-47.5,27.4l62.2-14.7C218.1,535.4,213.2,531,206.7,527.3z"/>
	<path class="st15" d="M159.1,566.8L120.7,535c-3.2,1.3-6.3,2.7-9.1,4.4C98.5,546.9,92,556.9,92,566.8c0,9.9,6.6,19.9,19.7,27.4
		c26.2,15.2,68.8,15.2,95,0c12.3-7.1,18.9-16.3,19.6-25.7c0.4-5.6-1.2-11.2-4.9-16.5L159.1,566.8z"/>
	
		<linearGradient id="SVGID_00000142867196997465268710000013346822581846085006_" gradientUnits="userSpaceOnUse" x1="91.9548" y1="593.8259" x2="226.3278" y2="593.8259">
		<stop  offset="0" style="stop-color:#CFD2EB"/>
		<stop  offset="0.1439" style="stop-color:#CCCFEA"/>
		<stop  offset="1" style="stop-color:#BBC0E2"/>
	</linearGradient>
	<path style="fill:url(#SVGID_00000142867196997465268710000013346822581846085006_);" d="M226.3,568.6c-0.7,9.3-7.3,18.5-19.6,25.7
		c-26.2,15.2-68.8,15.1-95,0c-12.3-7.1-18.9-16.3-19.6-25.7H92v11.7c0,9.9,6.6,19.9,19.7,27.4c26.2,15.1,68.8,15.1,95,0
		c12.3-7.1,18.9-16.3,19.6-25.7c0.1-1.1,0.1-2.1,0-3.2V568.6z"/>
</g>
<polygon class="st44" points="221.3,552.1 159.1,566.8 159.1,554.7 221.3,540 "/>
<polygon class="st19" points="159.1,566.8 120.7,535 120.7,522.9 159.1,554.7 "/>
<linearGradient id="SVGID_00000080185201975490909380000003338382230713856690_" gradientUnits="userSpaceOnUse" x1="159.1482" y1="559.4276" x2="223.6814" y2="559.4276">
	<stop  offset="0" style="stop-color:#C4CAE8"/>
	<stop  offset="6.779206e-02" style="stop-color:#C7CCE9"/>
	<stop  offset="0.5965" style="stop-color:#D5DAF0"/>
	<stop  offset="1" style="stop-color:#DADFF2"/>
</linearGradient>
<path style="fill:url(#SVGID_00000080185201975490909380000003338382230713856690_);" d="M223.7,556c-0.7-1.3-1.4-2.6-2.3-3.9
	l-62.2,14.7h19.1L223.7,556z"/>
<g>
	<path class="st15" d="M573.2,377.9c0-5.6-4-12.6-8.9-15.4l-59.1-34.1c-4.9-2.8-8.9-0.5-8.9,5.1V390c0,5.6,4,12.6,8.9,15.4
		l59.1,34.1c4.9,2.8,8.9,0.5,8.9-5.1V377.9z"/>
	
		<linearGradient id="SVGID_00000038401425149412432900000000812105450346880945_" gradientUnits="userSpaceOnUse" x1="519.322" y1="316.0457" x2="585.8599" y2="431.2926">
		<stop  offset="0.4551" style="stop-color:#4F54A0"/>
		<stop  offset="0.5113" style="stop-color:#45478F"/>
		<stop  offset="0.6241" style="stop-color:#2E2D69"/>
		<stop  offset="0.6348" style="stop-color:#2B2B66"/>
	</linearGradient>
	<path style="fill:url(#SVGID_00000038401425149412432900000000812105450346880945_);" d="M573.2,434.4v-56.4c0-5.6-4-12.6-8.9-15.4
		l-59.1-34.1c-2.4-1.4-4.6-1.5-6.2-0.6l4.6-2.7l0,0c1.6-1,3.9-1,6.4,0.5l59.1,34.1c4.9,2.8,8.9,9.7,8.9,15.4v56.4c0,3-1.1,5-2.8,5.8
		l-4.4,2.6C572.3,439,573.2,437.1,573.2,434.4z"/>
</g>
<g>
	<path class="st15" d="M631.2,304c0-5.6-4-12.6-8.9-15.4l-60.8-35.1c-4.9-2.8-8.9-0.5-8.9,5.1V315c0,5.6,4,12.6,8.9,15.4l60.8,35.1
		c4.9,2.8,8.9,0.5,8.9-5.1V304z"/>
	
		<linearGradient id="SVGID_00000031921628994296147230000000156551659380937109_" gradientUnits="userSpaceOnUse" x1="3065.0662" y1="240.857" x2="2997.6917" y2="357.553" gradientTransform="matrix(-1 0 0 1 3641.0715 0)">
		<stop  offset="0.4551" style="stop-color:#4F54A0"/>
		<stop  offset="0.5113" style="stop-color:#45478F"/>
		<stop  offset="0.6241" style="stop-color:#2E2D69"/>
		<stop  offset="0.6348" style="stop-color:#2B2B66"/>
	</linearGradient>
	<path style="fill:url(#SVGID_00000031921628994296147230000000156551659380937109_);" d="M631.2,360.4V304c0-5.6-4-12.6-8.9-15.4
		l-60.8-35.1c-2.4-1.4-4.6-1.5-6.2-0.6l4.6-2.7l0,0c1.6-1,3.9-1,6.4,0.5l60.8,35.1c4.9,2.8,8.9,9.7,8.9,15.4v56.4c0,3-1.1,5-2.8,5.8
		l-4.4,2.6C630.2,365,631.2,363.1,631.2,360.4z"/>
</g>
<g>
	<path class="st15" d="M539.8,251.2c0-5.6-4-12.6-8.9-15.4l-60.8-35.1c-4.9-2.8-8.9-0.5-8.9,5.1v56.4c0,5.6,4,12.6,8.9,15.4
		l60.8,35.1c4.9,2.8,8.9,0.5,8.9-5.1V251.2z"/>
	
		<linearGradient id="SVGID_00000178898499076319605290000007301805038857723013_" gradientUnits="userSpaceOnUse" x1="2574.2419" y1="188.0779" x2="2506.8682" y2="304.7729" gradientTransform="matrix(-1 0 0 1 3058.8374 0)">
		<stop  offset="0.4551" style="stop-color:#4F54A0"/>
		<stop  offset="0.5113" style="stop-color:#45478F"/>
		<stop  offset="0.6241" style="stop-color:#2E2D69"/>
		<stop  offset="0.6348" style="stop-color:#2B2B66"/>
	</linearGradient>
	<path style="fill:url(#SVGID_00000178898499076319605290000007301805038857723013_);" d="M539.8,307.6v-56.4c0-5.6-4-12.6-8.9-15.4
		l-60.8-35.1c-2.4-1.4-4.6-1.5-6.2-0.6l4.6-2.7l0,0c1.6-1,3.9-1,6.4,0.5l60.8,35.1c4.9,2.8,8.9,9.7,8.9,15.4v56.4c0,3-1.1,5-2.8,5.8
		l-4.4,2.6C538.8,312.2,539.8,310.3,539.8,307.6z"/>
</g>
<g>
	<path class="st0" d="M498.3,253.2l-1.7-9.1c-1.1-5.8-1.6-9.7-1.6-11.6c0-1.8,0.5-3,1.5-3.6c1-0.6,2.3-0.4,3.9,0.5
		c1.6,0.9,2.9,2.3,3.9,4c1,1.7,1.5,3.6,1.5,5.5c0,2.1-0.5,5.3-1.5,9.6l-1.7,7.2c-0.8,3.6-1.3,6.7-1.5,9.5l-1.5-0.8
		C499.3,260.2,498.9,256.5,498.3,253.2z M504.1,274c1,1.8,1.5,3.5,1.5,5.2c0,1.7-0.5,2.8-1.5,3.4c-1,0.6-2.3,0.5-3.7-0.4
		c-1.5-0.8-2.7-2.2-3.7-3.9c-1-1.8-1.5-3.5-1.5-5.2c0-1.7,0.5-2.8,1.5-3.4c1-0.6,2.3-0.5,3.7,0.4C501.8,270.9,503.1,272.2,504.1,274
		z"/>
</g>
<g>
	<path class="st15" d="M664.6,430.7c0-5.6-4-12.6-8.9-15.4l-59.1-34.1c-4.9-2.8-8.9-0.5-8.9,5.1v56.4c0,5.6,4,12.6,8.9,15.4
		l59.1,34.1c4.9,2.8,8.9,0.5,8.9-5.1V430.7z"/>
	
		<linearGradient id="SVGID_00000085953936006210596810000002310128377470454434_" gradientUnits="userSpaceOnUse" x1="610.7321" y1="368.8239" x2="677.27" y2="484.0709">
		<stop  offset="0.427" style="stop-color:#FBBA13"/>
		<stop  offset="0.5406" style="stop-color:#EFA90A"/>
		<stop  offset="0.6629" style="stop-color:#E09200"/>
	</linearGradient>
	<path style="fill:url(#SVGID_00000085953936006210596810000002310128377470454434_);" d="M664.6,487.2v-56.4c0-5.6-4-12.6-8.9-15.4
		l-59.1-34.1c-2.4-1.4-4.6-1.5-6.2-0.6l4.6-2.7l0,0c1.6-1,3.9-1,6.4,0.5l59.1,34.1c4.9,2.8,8.9,9.7,8.9,15.4v56.4c0,3-1.1,5-2.8,5.8
		l-4.4,2.6C663.7,491.8,664.6,489.8,664.6,487.2z"/>
</g>
<path class="st39" d="M638.3,453.6c-3.6,0.9-7.8,0-12.1-2.6c-4.2-2.4-8.3-6.2-11.8-10.9c-0.8-1.1-1.9-1.5-2.4-0.9
	c-0.5,0.6-0.3,2,0.5,3c4,5.5,8.8,9.9,13.7,12.7c5.1,2.9,10,4,14.1,3c0.8-0.2,1-1.3,0.4-2.6C640.2,454.2,639.1,453.4,638.3,453.6z
	 M639.3,428.5c-1.8-1-3.2,0.8-3.2,4c0,3.2,1.4,6.6,3.2,7.7c1.8,1,3.2-0.8,3.2-4C642.5,433,641.1,429.5,639.3,428.5z M616.3,421
	c0-3.2-1.4-6.6-3.2-7.7c-1.8-1-3.2,0.8-3.2,4c0,3.2,1.4,6.6,3.2,7.7C614.8,426,616.3,424.2,616.3,421z"/>
<g>
	<path class="st15" d="M722.6,356.7c0-5.6-4-12.6-8.9-15.4l-60.8-35.1c-4.9-2.8-8.9-0.5-8.9,5.1v56.4c0,5.6,4,12.6,8.9,15.4
		l60.8,35.1c4.9,2.8,8.9,0.5,8.9-5.1V356.7z"/>
	
		<linearGradient id="SVGID_00000132798758284009424300000014873370348789951396_" gradientUnits="userSpaceOnUse" x1="2973.656" y1="293.6374" x2="2906.2817" y2="410.3333" gradientTransform="matrix(-1 0 0 1 3641.0715 0)">
		<stop  offset="0.4551" style="stop-color:#4F54A0"/>
		<stop  offset="0.5113" style="stop-color:#45478F"/>
		<stop  offset="0.6241" style="stop-color:#2E2D69"/>
		<stop  offset="0.6348" style="stop-color:#2B2B66"/>
	</linearGradient>
	<path style="fill:url(#SVGID_00000132798758284009424300000014873370348789951396_);" d="M722.6,413.2v-56.4c0-5.6-4-12.6-8.9-15.4
		l-60.8-35.1c-2.4-1.4-4.6-1.5-6.2-0.6l4.6-2.7l0,0c1.6-1,3.9-1,6.4,0.5l60.8,35.1c4.9,2.8,8.9,9.7,8.9,15.4v56.4c0,3-1.1,5-2.8,5.8
		l-4.4,2.6C721.7,417.8,722.6,415.9,722.6,413.2z"/>
</g>
<path class="st39" d="M676.9,342.1l8.6,40.9c0.2,1.1,1.1,2.1,1.9,2.3c0.8,0.2,1.3-0.5,1.1-1.5l-8.6-40.9c-0.2-1.1-1.1-2.1-1.9-2.3
	C677.1,340.4,676.7,341.1,676.9,342.1z M690.2,357.5l12.6,17.3l-12.6,2.7c-0.7,0.1-0.9,1.1-0.4,2.2c0.5,1.1,1.4,1.8,2.1,1.7
	l14.4-3.1c0.4-0.1,0.7-0.5,0.7-1.1c0-0.6-0.2-1.2-0.7-1.8l-14.4-19.8c-0.7-0.9-1.6-1.3-2.1-0.8C689.3,355.4,689.5,356.6,690.2,357.5
	z M657.2,348.5c0,0.6,0.2,1.2,0.7,1.8l14.4,19.8c0.7,0.9,1.6,1.3,2.1,0.8c0.5-0.5,0.3-1.7-0.4-2.6l-12.6-17.3l12.6-2.7
	c0.7-0.1,0.9-1.1,0.4-2.2c-0.5-1.1-1.4-1.8-2.1-1.7l-14.4,3.1C657.5,347.5,657.2,347.9,657.2,348.5z"/>
<g>
	<path class="st39" d="M512.5,373c0-2.7,1.9-3.8,4.3-2.5c2.4,1.4,4.3,4.7,4.3,7.4c0,2.7-1.9,3.8-4.3,2.5
		C514.4,379.1,512.5,375.8,512.5,373z"/>
	<path class="st39" d="M529.1,382.6c0-2.7,1.9-3.8,4.3-2.5c2.4,1.4,4.3,4.7,4.3,7.4c0,2.7-1.9,3.8-4.3,2.5
		C531,388.7,529.1,385.4,529.1,382.6z"/>
	<path class="st39" d="M545.7,392.2c0-2.7,1.9-3.8,4.3-2.5c2.4,1.4,4.3,4.7,4.3,7.4c0,2.7-1.9,3.8-4.3,2.5
		C547.6,398.3,545.7,394.9,545.7,392.2z"/>
</g>
<path class="st39" d="M604.2,322.5c0.5-2.1,4.5-0.3,6,0.6l0-5.3c-1.6-0.9-5.5-3.7-6-6.3c-0.2-0.9-0.5-1.8-0.8-2.7
	c-1.1-2.7,1.4-4.8,2.5-5.5l-3.2-5.6c-1,0.5-3.2,1.3-5,0.3c-0.4-0.2-0.7-0.5-1-0.9c-0.6-0.7-1.3-1.4-1.9-2c-2.1-1.8-2.5-6.6-2.5-8.4
	l-4.6-2.7c0,1.8-0.5,6-2.5,5.5c-0.7-0.1-1.3-0.2-1.9-0.2c-0.3,0-0.7-0.1-1-0.3c-1.8-1-4-4.5-5-6l-3.3,1.9c1.3,2,3.6,6.9,2.5,8.4
	c-0.3,0.5-0.6,1.1-0.8,1.7c-0.5,2.1-4.5,0.3-6-0.6l0,5.3c1.6,0.9,5.5,3.7,6,6.3c0.2,0.9,0.5,1.8,0.8,2.7c1.1,2.7-1.4,4.8-2.5,5.5
	l3.2,5.6c0.9-0.5,3.2-1.3,5-0.3c0.4,0.2,0.7,0.5,1,0.9c0.6,0.7,1.3,1.4,1.9,2c2.1,2.3,2.5,6.5,2.5,8.4l4.6,2.7c0-1.8,0.5-6,2.5-5.5
	c0.7,0.1,1.3,0.2,1.9,0.2c0.3,0,0.7,0.1,1,0.3c1.8,1,4,4.5,5,6l3.3-1.9c-1.1-1.9-3.6-6.9-2.5-8.4
	C603.7,323.7,603.9,323.1,604.2,322.5z M589.9,318.1c-4.5-2.6-8.2-8.9-8.1-14.1c0-5.2,3.7-7.3,8.2-4.7c4.5,2.6,8.2,8.9,8.1,14.1
	C598,318.6,594.4,320.7,589.9,318.1z"/>
<g>
	<path class="st39" d="M591.2,170.2v-59.1c28.3,16.3,51.2,56,51.2,88.6c0,32.6-22.9,45.8-51.2,29.5c-28.2-16.3-51.2-56-51.2-88.6
		c0-4,0.3-7.7,1-11.1L591.2,170.2z"/>
	<path class="st77" d="M591.2,111.2v59.1l-45-54.1C554.8,102.7,571.7,99.9,591.2,111.2z"/>
	<path class="st20" d="M591.2,170.2L541,129.6c1-5.3,2.8-9.8,5.2-13.5L591.2,170.2z"/>
	<path class="st40" d="M596.8,107.9c28.2,16.3,51.2,56,51.2,88.6c0,16.1-5.6,27.4-14.6,32.9l0,0l-0.2,0.1c-0.1,0.1-0.3,0.2-0.4,0.2
		l-5.1,2.9c9.1-5.4,14.7-16.8,14.7-32.9c0-32.6-22.9-72.3-51.2-88.6l0,0L596.8,107.9L596.8,107.9z"/>
	<path class="st119" d="M560.6,104.4c9.3-5.4,22.1-4.6,36.2,3.5l-5.6,3.2c-13.7-7.9-26.2-8.9-35.4-4l0,0L560.6,104.4z"/>
</g>
</svg>
