<?xml version="1.0" encoding="utf-8"?>
<!-- Generator: Adobe Illustrator 26.5.0, SVG Export Plug-In . SVG Version: 6.00 Build 0)  -->
<svg version="1.1" id="Warstwa_1" xmlns="http://www.w3.org/2000/svg" xmlns:xlink="http://www.w3.org/1999/xlink" x="0px" y="0px"
	 viewBox="0 0 453 172.9" style="enable-background:new 0 0 453 172.9;" xml:space="preserve">
<style type="text/css">
	.st0{fill:none;}
	.st1{fill:#162022;}
</style>
<rect x="19.3" y="107.3" class="st0" width="205.1" height="41.4"/>
<g>
	<path class="st1" d="M39,98.8l-10.8,17.9c-0.8,0.1-1.5,0.2-2.2,0.2c-0.8,0-1.6-0.1-2.5-0.2l-3-18.2l-0.1-0.3l-1.5-0.8l0.1-0.3h3.9
		l2.9,18c0.1,0.1,0.4,0.1,0.6,0.1s0.4,0,0.5-0.1l10.6-17.9c0.9-0.1,1.6-0.2,2.3-0.2s1.4,0,2.2,0.2l3,17.9c0.1,0.1,0.4,0.1,0.5,0.1
		s0.4,0,0.6-0.1l10.5-18h2.6l-11.6,19.7c-0.9,0.1-1.7,0.2-2.6,0.2c-0.7,0-1.3-0.1-2.1-0.2l-3.1-17.9c-0.1,0-0.3,0-0.4,0
		S39.2,98.8,39,98.8z"/>
	<path class="st1" d="M85,115l-0.4,1.7c-3.5,0.3-6.9,0.4-10.3,0.4c-3.9,0-7.8-0.1-11.6-0.4l3.4-16.1l-1.4-0.7l0.1-0.3
		c1.6-0.1,5.7-0.2,9.7-0.3c0.2,0,0.5,0,0.7,0h0.9c0.8,0,1.6,0,2.4,0c3.3,0,6.5,0.1,9.8,0.4l-0.4,1.7c-3-0.3-6.5-0.4-9.6-0.4
		c-3.2,0-6.6,0.1-9.9,0.3l-1.3,6.2h14.2l-0.3,1.3H66.8l-1.3,6.3c3.2,0.2,6.7,0.3,10,0.3C78.5,115.4,81.9,115.3,85,115z"/>
	<path class="st1" d="M116.3,107l2.4,0.1c0,1.6-0.2,3.2-0.6,4.9c-0.4,1.7-0.7,3.2-1.5,4.9c-3.8,0.1-7.9,0.3-11.7,0.3
		c-3.1,0-6.5-0.2-11.2-0.3h-0.4l3.4-16.2l-1.5-0.8l0.1-0.3c2.2-0.1,7.5-0.2,12.3-0.2c3.2,0,6.7,0.1,10,0.2c0,1.5-0.1,2.7-0.4,4.2
		C117.1,104.8,116.8,105.9,116.3,107z M114.9,115.5c0.4-1.2,0.7-2.3,0.9-3.5c0.2-1.2,0.4-2.3,0.5-3.5c-2.8-0.1-5.8-0.1-8.7-0.1h-10
		l-1.5,7c3,0.1,6.1,0.2,9.2,0.2C108.6,115.7,111.8,115.6,114.9,115.5z M97.9,106.9h8.4c3.1,0,4.8,0,7.7-0.1c0.4-1,0.7-2,0.9-3.1
		c0.2-1.1,0.3-1.9,0.4-2.9c-2.6,0-5.3-0.1-7.9-0.1c-2.8,0-5.6,0.1-8.2,0.1L97.9,106.9z"/>
	<path class="st1" d="M172.9,97.4c0.4,3.2,0.1,6.3-0.5,9.5c-0.7,3.2-1.8,6.3-3.5,9.5c-4.5,0.5-9.1,0.7-13.5,0.7
		c-3.7,0-7.5-0.1-13.1-0.3l4-18.6l-1.6-0.8l0.1-0.3c2.1-0.1,8.6-0.3,13.9-0.3h1.2C164.1,96.7,168.6,96.9,172.9,97.4z M166.9,115
		c1.3-2.7,2.2-5.3,2.7-8.1c0.6-2.8,0.8-5.4,0.7-8.1c-3.6-0.3-7.1-0.4-11-0.4c-3.7,0-7.3,0.1-10.9,0.3L145,115
		c3.5,0.2,7,0.4,10.7,0.4C159.6,115.4,163.2,115.3,166.9,115z"/>
	<path class="st1" d="M202.8,115l-0.4,1.7c-3.5,0.3-6.9,0.4-10.3,0.4c-3.9,0-7.8-0.1-11.6-0.4l3.5-16.1l-1.4-0.7l0.1-0.3
		c1.6-0.1,5.7-0.2,9.7-0.3c0.2,0,0.5,0,0.7,0h0.9c0.8,0,1.6,0,2.4,0c3.3,0,6.5,0.1,9.8,0.4l-0.4,1.7c-3-0.3-6.5-0.4-9.6-0.4
		c-3.2,0-6.6,0.1-9.9,0.3l-1.3,6.2h14.2l-0.3,1.3h-14.2l-1.3,6.3c3.2,0.2,6.7,0.3,10,0.3C196.4,115.4,199.8,115.3,202.8,115z"/>
	<path class="st1" d="M225.8,115l11.5-15.5h2.6l-12.7,17.2c-1.6,0.1-3,0.2-4.5,0.2s-2.9-0.1-4.4-0.2l-4.7-15.3l-0.3-0.8l-1.4-0.8
		l0.1-0.3h3.7l4.9,15.5c0.8,0.1,1.6,0.1,2.5,0.1S224.9,115.1,225.8,115z"/>
	<path class="st1" d="M266.3,115l-0.4,1.7c-3.5,0.3-6.9,0.4-10.3,0.4c-3.9,0-7.8-0.1-11.6-0.4l3.4-16.1l-1.4-0.7l0.1-0.3
		c1.6-0.1,5.7-0.2,9.7-0.3c0.2,0,0.5,0,0.7,0h0.9c0.8,0,1.6,0,2.4,0c3.3,0,6.5,0.1,9.8,0.4l-0.4,1.7c-3-0.3-6.5-0.4-9.6-0.4
		c-3.2,0-6.6,0.1-9.9,0.3l-1.3,6.2h14.2l-0.3,1.3h-14.2l-1.3,6.3c3.2,0.2,6.7,0.3,10,0.3C259.9,115.4,263.3,115.3,266.3,115z"/>
	<path class="st1" d="M280.8,99.5l-0.7,3.5c-0.8,3.9-1.6,8.1-2.2,12c2.4,0.3,5.1,0.4,7.6,0.4s5.2-0.1,7.8-0.4
		c0.4-0.9,0.7-1.8,0.9-2.8h2.4c-0.4,1.5-0.9,2.9-1.5,4.5c-3.4,0.3-6.7,0.5-10,0.5s-6.5-0.1-9.8-0.5c0.6-4.4,1.4-9.2,2.4-13.6
		l0.5-2.4l-1.5-0.8l0.1-0.3L280.8,99.5L280.8,99.5z"/>
	<path class="st1" d="M315.3,117.1c-4,0-7.9-0.2-11.9-0.6c0.4-2.9,0.8-5.5,1.4-8.4s1.3-5.5,2.1-8.4c4.1-0.4,8.2-0.5,12.2-0.5
		s7.9,0.2,11.9,0.5c-0.4,2.9-0.8,5.5-1.4,8.4s-1.3,5.5-2.1,8.4C323.4,116.9,319.3,117.1,315.3,117.1z M306.2,115
		c3.1,0.3,6.3,0.4,9.5,0.4s6.4-0.1,9.7-0.4c0.7-2.3,1.2-4.5,1.7-6.8s0.9-4.5,1.2-6.8c-3.1-0.3-6.3-0.4-9.5-0.4s-6.4,0.1-9.7,0.4
		c-0.7,2.3-1.2,4.5-1.8,6.8C306.9,110.5,306.5,112.7,306.2,115z"/>
	<path class="st1" d="M351.4,99.2h0.4c3.3,0,6.7,0.2,10,0.5c0,1.6-0.2,3.2-0.6,4.9c-0.4,1.6-0.8,3.2-1.5,4.9
		c-3.4,0.3-6.9,0.5-10.3,0.5c-2.3,0-4.9-0.1-8.2-0.1l-1.5,6.9h-2.4l3.4-16.2l-1.5-0.8l0.1-0.3C341.6,99.4,346.6,99.2,351.4,99.2z
		 M357.8,108.1c0.4-1.2,0.7-2.3,1-3.4c0.2-1.2,0.4-2.3,0.5-3.4c-2.4-0.2-5.3-0.3-7.9-0.3c-2.8,0-5.6,0.1-8.2,0.2l0,0l-1.5,7.2l0,0
		c2.6,0.1,5.3,0.2,8.2,0.2C352.6,108.4,355.2,108.3,357.8,108.1z"/>
	<path class="st1" d="M389,115l-0.4,1.7c-3.5,0.3-6.9,0.4-10.3,0.4c-3.9,0-7.8-0.1-11.6-0.4l3.4-16.1l-1.4-0.7l0.1-0.3
		c1.6-0.1,5.7-0.2,9.7-0.3c0.2,0,0.5,0,0.7,0h0.9c0.8,0,1.6,0,2.4,0c3.3,0,6.5,0.1,9.8,0.4l-0.4,1.7c-3-0.3-6.5-0.4-9.6-0.4
		c-3.2,0-6.6,0.1-9.9,0.3l-1.3,6.2h14.2l-0.3,1.3h-14.2l-1.3,6.3c3.2,0.2,6.7,0.3,10,0.3C382.6,115.4,385.9,115.3,389,115z"/>
	<path class="st1" d="M399.8,116.8h-2.4l3.4-16.2l-1.5-0.8l0.1-0.3h12.7c3.5,0,7.5,0,11,0.3c-0.1,1.7-0.2,3-0.5,4.7
		c-0.4,1.8-0.9,3.6-1.6,5.5c-3,0.1-6.3,0.2-9.4,0.2l8.2,6.7h-3.2l-9.5-7.7l0.1-0.5h4.4c2.5,0,5,0,7.4-0.1c0.4-1.3,0.8-2.6,1.1-3.8
		c0.3-1.3,0.4-2.2,0.5-3.4c-2.9-0.1-5.8-0.1-8.9-0.1H403L399.8,116.8z"/>
</g>
<g>
	<path class="st1" d="M199,36.6l20.1,43.1H200l-3.1-6.5h-35.7l-3,6.5H139l20.2-43.1c7.3-0.5,13.3-0.7,19.9-0.7
		C185.7,36,191.8,36.1,199,36.6z M172.7,48.7l-5.9,12.7h24.6l-5.9-12.7c-1.1-0.2-4.6-0.2-6.4-0.2C177.3,48.4,173.8,48.5,172.7,48.7z
		"/>
	<path class="st1" d="M231.7,79.7c0-13.2,0.4-28.5,1.1-41.9c13.3-1.4,26.3-2,39.6-2s26.3,0.6,39.7,2c0.8,13.3,1.1,28.7,1.1,41.9H294
		c0-9.5-0.1-21.2-0.7-30.6c-3.7-0.2-7.5-0.4-11.3-0.5v31.2h-19.2V48.6c-3.8,0.1-7.6,0.3-11.2,0.5c-0.5,9.5-0.7,21.1-0.7,30.6H231.7z
		"/>
</g>
</svg>
