<?xml version="1.0" encoding="utf-8"?>
<!-- Generator: Adobe Illustrator 26.5.0, SVG Export Plug-In . SVG Version: 6.00 Build 0)  -->
<svg version="1.1" id="Warstwa_1" xmlns="http://www.w3.org/2000/svg" xmlns:xlink="http://www.w3.org/1999/xlink" x="0px" y="0px"
	 viewBox="0 0 179.5 62.2" style="enable-background:new 0 0 179.5 62.2;" xml:space="preserve">
<style type="text/css">
	.st0{fill:none;}
	.st1{fill:#162022;}
</style>
<rect x="7.1" y="44.4" class="st0" width="83.1" height="17.9"/>
<g>
	<path class="st1" d="M15,40.7l-4.4,7.7c-0.3,0-0.6,0.1-0.9,0.1c-0.3,0-0.6,0-1-0.1l-1.2-7.9l0-0.1l-0.6-0.3l0-0.1h1.6l1.2,7.8
		c0,0,0.2,0,0.2,0c0.1,0,0.2,0,0.2,0l4.3-7.7c0.4,0,0.6-0.1,0.9-0.1c0.3,0,0.6,0,0.9,0.1l1.2,7.7c0,0,0.2,0,0.2,0c0,0,0.2,0,0.2,0
		l4.3-7.8h1.1l-4.7,8.5c-0.4,0-0.7,0.1-1.1,0.1c-0.3,0-0.5,0-0.9-0.1l-1.3-7.7c0,0-0.1,0-0.2,0S15.1,40.7,15,40.7z"/>
	<path class="st1" d="M33.7,47.7l-0.2,0.7c-1.4,0.1-2.8,0.2-4.2,0.2c-1.6,0-3.2,0-4.7-0.2l1.4-7l-0.6-0.3l0-0.1
		c0.6,0,2.3-0.1,3.9-0.1c0.1,0,0.2,0,0.3,0h0.4c0.3,0,0.6,0,1,0c1.3,0,2.6,0,4,0.2l-0.2,0.7c-1.2-0.1-2.6-0.2-3.9-0.2
		c-1.3,0-2.7,0-4,0.1l-0.5,2.7h5.8L32.1,45h-5.8l-0.5,2.7c1.3,0.1,2.7,0.1,4,0.1C31,47.9,32.4,47.8,33.7,47.7z"/>
	<path class="st1" d="M46.3,44.2l1,0c0,0.7-0.1,1.4-0.2,2.1c-0.2,0.7-0.3,1.4-0.6,2.1c-1.5,0-3.2,0.1-4.7,0.1
		c-1.3,0-2.6-0.1-4.5-0.1H37l1.4-7l-0.6-0.3l0-0.1c0.9,0,3-0.1,5-0.1c1.3,0,2.7,0,4,0.1c0,0.6,0,1.2-0.2,1.8
		C46.7,43.3,46.5,43.8,46.3,44.2z M45.8,47.9c0.2-0.5,0.3-1,0.4-1.5s0.2-1,0.2-1.5c-1.1,0-2.3,0-3.5,0h-4l-0.6,3
		c1.2,0,2.5,0.1,3.7,0.1C43.2,48,44.5,47.9,45.8,47.9z M38.9,44.2h3.4c1.3,0,1.9,0,3.1,0c0.2-0.4,0.3-0.9,0.4-1.3
		c0.1-0.5,0.1-0.8,0.2-1.3c-1.1,0-2.1,0-3.2,0c-1.1,0-2.3,0-3.3,0L38.9,44.2z"/>
	<path class="st1" d="M69.3,40.1c0.2,1.4,0,2.7-0.2,4.1c-0.3,1.4-0.7,2.7-1.4,4.1c-1.8,0.2-3.7,0.3-5.5,0.3c-1.5,0-3,0-5.3-0.1
		l1.6-8l-0.6-0.3l0-0.1c0.9,0,3.5-0.1,5.6-0.1H64C65.7,39.8,67.5,39.9,69.3,40.1z M66.8,47.7c0.5-1.2,0.9-2.3,1.1-3.5
		c0.2-1.2,0.3-2.3,0.3-3.5c-1.5-0.1-2.9-0.2-4.5-0.2c-1.5,0-3,0-4.4,0.1l-1.4,7c1.4,0.1,2.8,0.2,4.3,0.2
		C63.9,47.9,65.3,47.8,66.8,47.7z"/>
	<path class="st1" d="M81.4,47.7l-0.2,0.7c-1.4,0.1-2.8,0.2-4.2,0.2c-1.6,0-3.2,0-4.7-0.2l1.4-7l-0.6-0.3l0-0.1
		c0.6,0,2.3-0.1,3.9-0.1c0.1,0,0.2,0,0.3,0h0.4c0.3,0,0.6,0,1,0c1.3,0,2.6,0,4,0.2l-0.2,0.7c-1.2-0.1-2.6-0.2-3.9-0.2
		c-1.3,0-2.7,0-4,0.1l-0.5,2.7h5.8L79.8,45H74l-0.5,2.7c1.3,0.1,2.7,0.1,4,0.1C78.8,47.9,80.2,47.8,81.4,47.7z"/>
	<path class="st1" d="M90.7,47.7l4.7-6.7h1.1l-5.1,7.4c-0.6,0-1.2,0.1-1.8,0.1c-0.6,0-1.2,0-1.8-0.1l-1.9-6.6l-0.1-0.3l-0.6-0.3
		l0-0.1h1.5l2,6.7c0.3,0,0.6,0,1,0C90,47.7,90.3,47.7,90.7,47.7z"/>
	<path class="st1" d="M107.1,47.7l-0.2,0.7c-1.4,0.1-2.8,0.2-4.2,0.2c-1.6,0-3.2,0-4.7-0.2l1.4-7l-0.6-0.3l0-0.1
		c0.6,0,2.3-0.1,3.9-0.1c0.1,0,0.2,0,0.3,0h0.4c0.3,0,0.6,0,1,0c1.3,0,2.6,0,4,0.2l-0.2,0.7c-1.2-0.1-2.6-0.2-3.9-0.2
		c-1.3,0-2.7,0-4,0.1l-0.5,2.7h5.8l-0.1,0.6h-5.8l-0.5,2.7c1.3,0.1,2.7,0.1,4,0.1C104.5,47.9,105.9,47.8,107.1,47.7z"/>
	<path class="st1" d="M113,41l-0.3,1.5c-0.3,1.7-0.6,3.5-0.9,5.2c1,0.1,2.1,0.2,3.1,0.2s2.1,0,3.2-0.2c0.2-0.4,0.3-0.8,0.4-1.2h1
		c-0.2,0.6-0.4,1.3-0.6,1.9c-1.4,0.1-2.7,0.2-4,0.2s-2.6,0-4-0.2c0.2-1.9,0.6-4,1-5.9l0.2-1l-0.6-0.3l0-0.1L113,41L113,41z"/>
	<path class="st1" d="M126.9,48.6c-1.6,0-3.2-0.1-4.8-0.3c0.2-1.3,0.3-2.4,0.6-3.6s0.5-2.4,0.9-3.6c1.7-0.2,3.3-0.2,4.9-0.2
		c1.6,0,3.2,0.1,4.8,0.2c-0.2,1.3-0.3,2.4-0.6,3.6c-0.2,1.3-0.5,2.4-0.9,3.6C130.2,48.5,128.6,48.6,126.9,48.6z M123.3,47.7
		c1.3,0.1,2.6,0.2,3.8,0.2c1.3,0,2.6,0,3.9-0.2c0.3-1,0.5-1.9,0.7-2.9s0.4-1.9,0.5-2.9c-1.3-0.1-2.6-0.2-3.8-0.2
		c-1.3,0-2.6,0-3.9,0.2c-0.3,1-0.5,1.9-0.7,2.9C123.5,45.7,123.4,46.7,123.3,47.7z"/>
	<path class="st1" d="M141.6,40.9h0.2c1.3,0,2.7,0.1,4,0.2c0,0.7-0.1,1.4-0.2,2.1c-0.2,0.7-0.3,1.4-0.6,2.1
		c-1.4,0.1-2.8,0.2-4.2,0.2c-0.9,0-2,0-3.3,0l-0.6,3h-1l1.4-7l-0.6-0.3l0-0.1C137.6,40.9,139.6,40.9,141.6,40.9z M144.2,44.7
		c0.2-0.5,0.3-1,0.4-1.5c0.1-0.5,0.2-1,0.2-1.5c-1-0.1-2.1-0.1-3.2-0.1c-1.1,0-2.3,0-3.3,0.1l0,0l-0.6,3.1l0,0
		c1.1,0,2.1,0.1,3.3,0.1C142,44.8,143.1,44.8,144.2,44.7z"/>
	<path class="st1" d="M156.8,47.7l-0.2,0.7c-1.4,0.1-2.8,0.2-4.2,0.2c-1.6,0-3.2,0-4.7-0.2l1.4-7l-0.6-0.3l0-0.1
		c0.6,0,2.3-0.1,3.9-0.1c0.1,0,0.2,0,0.3,0h0.4c0.3,0,0.6,0,1,0c1.3,0,2.6,0,4,0.2l-0.2,0.7c-1.2-0.1-2.6-0.2-3.9-0.2
		c-1.3,0-2.7,0-4,0.1l-0.5,2.7h5.8l-0.1,0.6h-5.8l-0.5,2.7c1.3,0.1,2.7,0.1,4,0.1C154.2,47.9,155.5,47.8,156.8,47.7z"/>
	<path class="st1" d="M161.2,48.5h-1l1.4-7l-0.6-0.3l0-0.1h5.1c1.4,0,3,0,4.5,0.1c0,0.7-0.1,1.3-0.2,2c-0.2,0.8-0.4,1.6-0.6,2.4
		c-1.2,0-2.6,0.1-3.8,0.1l3.3,2.9H168l-3.8-3.3l0-0.2h1.8c1,0,2,0,3,0c0.2-0.6,0.3-1.1,0.4-1.6c0.1-0.6,0.2-1,0.2-1.5
		c-1.2,0-2.3,0-3.6,0h-3.5L161.2,48.5z"/>
</g>
<g>
	<path class="st1" d="M79.8,13.8L88,32.4h-7.7L79,29.6H64.5l-1.2,2.8h-7.8l8.2-18.6c3-0.2,5.4-0.3,8.1-0.3
		C74.5,13.5,76.9,13.6,79.8,13.8z M69.2,19l-2.4,5.5h10L74.4,19c-0.4-0.1-1.9-0.1-2.6-0.1C71.1,18.9,69.6,18.9,69.2,19z"/>
	<path class="st1" d="M93.1,32.4c0-5.7,0.2-12.3,0.4-18.1c5.4-0.6,10.7-0.9,16-0.9c5.4,0,10.7,0.3,16.1,0.9
		c0.3,5.7,0.4,12.4,0.4,18.1h-7.8c0-4.1,0-9.2-0.3-13.2c-1.5-0.1-3-0.2-4.6-0.2v13.5h-7.8V19c-1.5,0-3.1,0.1-4.5,0.2
		c-0.2,4.1-0.3,9.1-0.3,13.2H93.1z"/>
</g>
</svg>
