<?xml version="1.0" encoding="utf-8"?>
<!-- Generator: Adobe Illustrator 26.5.0, SVG Export Plug-In . SVG Version: 6.00 Build 0)  -->
<svg version="1.1" id="Warstwa_1" xmlns="http://www.w3.org/2000/svg" xmlns:xlink="http://www.w3.org/1999/xlink" x="0px" y="0px"
	 viewBox="0 0 1145.5 1202.8" style="enable-background:new 0 0 1145.5 1202.8;" xml:space="preserve">
<style type="text/css">
	.st0{fill:url(#SVGID_1_);}
	.st1{fill:url(#SVGID_00000012471835485898085240000014460045687838283703_);}
	.st2{fill:url(#SVGID_00000147932755559550525090000012616894907217687218_);}
	.st3{fill:#434697;}
	.st4{fill:#5D62AA;}
	.st5{fill:#424596;}
	.st6{fill:#CDD0EA;}
	.st7{fill:#BABEE1;}
	.st8{fill:#EFEFF3;}
	.st9{fill:url(#SVGID_00000108300536664175439320000001941443871503343286_);}
	.st10{fill:#FFFFFF;}
	.st11{fill:url(#SVGID_00000122691467238684557470000017639529397716254636_);}
	.st12{fill:url(#SVGID_00000010306670602825499130000002147028148230658234_);}
	.st13{fill:url(#SVGID_00000040533976326831397620000010146741812492752561_);}
	.st14{fill:#F7F6FB;}
	.st15{fill:url(#SVGID_00000066494833553194643560000004144912306187767443_);}
	.st16{fill:url(#SVGID_00000127740604586855076790000012047933164566482335_);}
	.st17{fill:url(#SVGID_00000082365232945442013420000011310544528894350011_);}
	.st18{fill:#4F54A0;}
	.st19{fill:#37348B;}
	.st20{fill:url(#SVGID_00000047060130017202675740000002113871787824090285_);}
	.st21{fill:url(#SVGID_00000093894060699319335720000013736000728198066872_);}
	.st22{fill:url(#SVGID_00000127034219372740699200000006989063855109057183_);}
	.st23{fill:url(#SVGID_00000078728993054122025130000001012519991038840744_);}
	.st24{fill:url(#SVGID_00000177469019874091474100000007986768310130573702_);}
	.st25{fill:url(#SVGID_00000056392204719022990620000009760559346034236032_);}
	.st26{fill:url(#SVGID_00000053533853491164337630000010219979501654354835_);}
	.st27{fill:url(#SVGID_00000018222234131415974750000008472138512089740195_);}
	.st28{fill:url(#SVGID_00000070803650780912382090000007766693875807067545_);}
	.st29{fill:url(#SVGID_00000121239243667474187920000011755100273246820764_);}
	.st30{fill:url(#SVGID_00000147919522223026127690000004796180658353932733_);}
	.st31{fill:url(#SVGID_00000145029739854428463220000015075265313716531080_);}
	.st32{fill:url(#SVGID_00000154412967456191552440000007556744137261922706_);}
	.st33{fill:url(#SVGID_00000114070873693856742970000004602825087028497559_);}
	.st34{fill:#DADFF2;}
	.st35{fill:url(#SVGID_00000057843115426042527760000007439929561632177576_);}
	.st36{fill:#F1F1F6;}
	.st37{fill:#7377B7;}
	.st38{fill:#FFD141;}
	.st39{fill:#CFD2EB;}
	.st40{fill:#BBC0E2;}
	.st41{fill:url(#SVGID_00000047054037984175262780000002148777047517402552_);}
	.st42{fill:url(#SVGID_00000103252745107593185220000006462256499232890497_);}
	.st43{fill:url(#SVGID_00000070076674960158957990000006408506483729695641_);}
	.st44{fill:#E09200;}
	.st45{fill:#C4CAE8;}
	.st46{fill:url(#SVGID_00000144311282071664083650000000798272818364095115_);}
	.st47{fill:#414798;}
	.st48{fill:url(#SVGID_00000021087005534930384400000004589360466542822075_);}
	.st49{fill:url(#SVGID_00000057851425689843483890000013263833376848751526_);}
	.st50{fill:url(#SVGID_00000160894832750592431720000017067571619228503982_);}
	.st51{fill:url(#SVGID_00000049939514110957362740000015709682027396364709_);}
	.st52{fill:url(#SVGID_00000103963053962851156520000017829937769825532048_);}
	.st53{fill:url(#SVGID_00000144318713991368733650000003631969451293919901_);}
	.st54{fill:url(#SVGID_00000140713362654536972490000002107770119996966808_);}
	.st55{fill:url(#SVGID_00000164480031610244587720000017716678858984523153_);}
	.st56{fill:url(#SVGID_00000142854448795310414000000003241533079809219222_);}
	.st57{fill:url(#SVGID_00000119814845868588470590000011424818349518207926_);}
	.st58{clip-path:url(#SVGID_00000024690974157174065080000017008701630290509986_);}
	.st59{fill:#2B2B66;}
	.st60{fill:url(#SVGID_00000096026901285199257590000002403899447169089209_);}
	.st61{fill:url(#SVGID_00000080901350228774059200000013339157195486673066_);}
	.st62{fill:url(#SVGID_00000027605308352332700560000014556287049832913033_);}
	.st63{fill:url(#SVGID_00000089542286331190834210000010429448794581363329_);}
	.st64{fill:#5054A0;}
	.st65{fill:#7276B7;}
	.st66{fill:url(#SVGID_00000155845175051022945410000010119422454799467424_);}
	.st67{clip-path:url(#SVGID_00000049922253730001558080000009982090951483127994_);}
	.st68{fill:url(#SVGID_00000011002993668282535370000010491420440677458850_);}
	.st69{fill:url(#SVGID_00000061460472479085189000000008440650047354801814_);}
	.st70{fill:#FBD0A8;}
	.st71{fill:url(#SVGID_00000091726108256392235050000012935500663239500446_);}
	.st72{fill:url(#SVGID_00000033350434179740198120000004300848065863673990_);}
	.st73{fill:url(#SVGID_00000160877159369654472690000008995388987894236826_);}
	.st74{fill:url(#SVGID_00000120526501490818260300000003669111061456395188_);}
	.st75{fill:url(#SVGID_00000119820532668192757560000000127556328306295486_);}
	.st76{fill:url(#SVGID_00000136411721826542549470000002892038512096224129_);}
	.st77{fill:#FBBA13;}
	.st78{fill:url(#SVGID_00000088113136326130493130000016920646246793468040_);}
	.st79{fill:url(#SVGID_00000051378868675184653850000008161114251968414130_);}
	.st80{fill:url(#SVGID_00000020401167276568708970000009469337000453120399_);}
	.st81{fill:url(#SVGID_00000135671297532672691160000011151365732622192570_);}
	.st82{fill:url(#SVGID_00000023999556265711787090000013584016912967853491_);}
	.st83{fill:url(#SVGID_00000152958113185231375020000014744012934569004453_);}
	.st84{fill:url(#SVGID_00000139289989380787597040000013972156703407528325_);}
	.st85{fill:url(#SVGID_00000016039145263114719870000012948658086012197261_);}
	.st86{fill:url(#SVGID_00000170257725399939155970000014058041909726748595_);}
	.st87{fill:url(#SVGID_00000088099184626633673930000013670202914363599783_);}
	.st88{fill:url(#SVGID_00000038413859334476665230000007670506440721875107_);}
	.st89{fill:url(#SVGID_00000050633756363171643730000012766233444932563359_);}
	.st90{fill:#BBBFE2;}
	.st91{fill:url(#SVGID_00000093138064945215050720000014822214669216112568_);}
	.st92{fill:#2A2B62;}
	.st93{fill:#414797;}
	.st94{fill:url(#SVGID_00000008112702766882644250000017648094516336000394_);}
	.st95{fill:url(#SVGID_00000061472609538572117140000017783956854441470379_);}
	.st96{fill:url(#SVGID_00000017487848506151263340000010566304706938803597_);}
	.st97{fill:url(#SVGID_00000067210973114423937880000001067956834728642979_);}
	.st98{fill:url(#SVGID_00000036249693498129465140000001927993227725279149_);}
	.st99{fill:url(#SVGID_00000035489114718378508180000002928682799122648470_);}
	.st100{fill:url(#SVGID_00000152226343654394728260000010130836687469741483_);}
	.st101{fill:url(#SVGID_00000016780149746462205710000007630140260020963252_);}
	.st102{fill:#BABFE2;}
	.st103{fill:url(#SVGID_00000007397001300441606820000001288148481396492707_);}
	.st104{fill:url(#SVGID_00000037657519088650391520000017057504726320848783_);}
	.st105{fill:url(#SVGID_00000145029851560934019800000006562167516153791413_);}
	.st106{fill:url(#SVGID_00000033347183187473738090000014466226258573989310_);}
	.st107{fill:url(#SVGID_00000049910520152686898850000004821959736114014911_);}
	.st108{fill:url(#SVGID_00000142155292387498658250000015169395038345300378_);}
	.st109{fill:url(#SVGID_00000054961468502806885290000017489734769294287021_);}
	.st110{fill:url(#SVGID_00000150104460094912258200000007448743170740943782_);}
	.st111{fill:url(#SVGID_00000170269211155952051720000001539540366211290278_);}
	.st112{fill:url(#SVGID_00000169544684722971766900000006158511833375373751_);}
	.st113{fill:url(#SVGID_00000117647860475315005240000003842231500980016574_);}
	.st114{fill:url(#SVGID_00000150078985807366992370000001206935421315259529_);}
	.st115{fill:url(#SVGID_00000074436038071334350770000009721944203920059034_);}
	.st116{fill:url(#SVGID_00000031922401054675872470000015524479014342162342_);}
	.st117{fill:url(#SVGID_00000058557114807486895430000008492555696808073657_);}
	.st118{fill:url(#SVGID_00000066516316870715242350000003792000181904542087_);}
	.st119{fill:#FFEA53;}
</style>
<linearGradient id="SVGID_1_" gradientUnits="userSpaceOnUse" x1="622.8" y1="-14.3435" x2="791" y2="-14.3435" gradientTransform="matrix(1 0 0 -1 0 1152.8131)">
	<stop  offset="0" style="stop-color:#C3C9E7"/>
	<stop  offset="1" style="stop-color:#FFFFFF"/>
</linearGradient>
<rect x="622.8" y="1156.5" class="st0" width="168.2" height="21.3"/>
<linearGradient id="SVGID_00000093157153692634827350000012451814145053474453_" gradientUnits="userSpaceOnUse" x1="112.2" y1="280.4566" x2="280.4" y2="280.4566" gradientTransform="matrix(1 0 0 -1 0 1152.8131)">
	<stop  offset="0" style="stop-color:#C3C9E7"/>
	<stop  offset="1" style="stop-color:#FFFFFF"/>
</linearGradient>
<rect x="112.2" y="861.7" style="fill:url(#SVGID_00000093157153692634827350000012451814145053474453_);" width="168.2" height="21.3"/>
<linearGradient id="SVGID_00000065048214741272464350000015445410289311872132_" gradientUnits="userSpaceOnUse" x1="956.3" y1="178.1565" x2="1124.5" y2="178.1565" gradientTransform="matrix(1 0 0 -1 0 1152.8131)">
	<stop  offset="0" style="stop-color:#C3C9E7"/>
	<stop  offset="1" style="stop-color:#FFFFFF"/>
</linearGradient>
<rect x="956.3" y="964" style="fill:url(#SVGID_00000065048214741272464350000015445410289311872132_);" width="168.2" height="21.3"/>
<g>
	<g>
		<polygon class="st3" points="956.3,985.3 899.3,760.4 916.7,750.4 973.6,975.3 		"/>
		<polygon class="st3" points="640.1,1167.8 697.1,877.2 679.7,887.2 622.8,1177.8 		"/>
		<polygon class="st4" points="622.8,1177.8 605.5,1167.8 662.4,877.2 679.7,887.2 		"/>
		<polygon class="st4" points="956.3,985.3 939,975.3 882,750.4 899.3,760.4 		"/>
		<polygon class="st3" points="674.7,850.8 674.7,906.8 950.5,747.5 950.5,691.5 		"/>
		<polygon class="st4" points="628.5,824.1 628.5,880.1 674.7,906.8 674.7,850.8 		"/>
	</g>
	<g>
		<polygon class="st5" points="445.7,656.7 388.7,465.6 406.1,455.6 463,646.7 		"/>
		<polygon class="st3" points="129.5,873 186.5,582.4 169.2,592.4 112.2,883 		"/>
		<polygon class="st4" points="112.2,883 94.9,873 151.8,582.4 169.2,592.4 		"/>
		<polygon class="st4" points="445.7,656.7 428.4,646.7 371.4,455.6 388.7,465.6 		"/>
		<polygon class="st5" points="164.1,556 164.1,612 440,452.7 440,396.7 		"/>
		<polygon class="st4" points="118,529.3 118,585.3 164.1,612 164.1,556 		"/>
	</g>
	<polygon class="st6" points="675.1,894.3 42.6,529.1 42.6,513.1 675.1,878.3 	"/>
	<polygon class="st7" points="675.1,878.3 1025.9,675.7 1025.9,691.7 675.1,894.3 	"/>
	<polygon class="st8" points="42.6,513.1 393.4,310.6 1025.9,675.7 675.1,878.3 	"/>
</g>
<g>
	
		<linearGradient id="SVGID_00000084505512794835669610000017308969859958201482_" gradientUnits="userSpaceOnUse" x1="561.24" y1="423.1566" x2="613.1879" y2="423.1566" gradientTransform="matrix(1 0 0 -1 0 1152.8131)">
		<stop  offset="0" style="stop-color:#C3C9E7"/>
		<stop  offset="1" style="stop-color:#FFFFFF"/>
	</linearGradient>
	<path style="fill:url(#SVGID_00000084505512794835669610000017308969859958201482_);" d="M607.2,715.9c0,0-1.3,5-4.1,6.6
		l-26.4,15.3l-1.3-0.9c0,0-6.2,3.2-14,6.5c14.9,0,17.1-1,19.9-2.4c16.5-7.3,23.8-11.3,31.8-18.2
		C614.8,721.1,607.2,715.9,607.2,715.9z"/>
	<path class="st10" d="M603,708.1c2.6,1.5,4.1,3.1,4.2,4.5c0.1,1.6-1.6,3.1-4.5,4.1c-11.9,4.6-18.7,8.8-31.5,18.4
		c-5.5,4.4-14.6,6.1-20.1,2.9c-2.6-1.5-3.9-2.2-6.4-3.7c-2.8-1.6-4.1-4-4.1-6.6c-0.1-2.6,1.1-5.2,3.9-7.5
		c12.1-9.8,20.3-14.3,31.7-18.6c5.5-2,14.9-0.5,20.5,2.7C599.1,705.9,600.4,706.6,603,708.1z"/>
	
		<linearGradient id="SVGID_00000031205578322325511300000017897118108008011916_" gradientUnits="userSpaceOnUse" x1="540.5" y1="424.8565" x2="607.105" y2="424.8565" gradientTransform="matrix(1 0 0 -1 0 1152.8131)">
		<stop  offset="0.264" style="stop-color:#5D62AA"/>
		<stop  offset="0.3716" style="stop-color:#5256A1"/>
		<stop  offset="0.4944" style="stop-color:#424596"/>
	</linearGradient>
	<path style="fill:url(#SVGID_00000031205578322325511300000017897118108008011916_);" d="M602.6,716.8
		c-11.9,4.6-18.7,8.8-31.5,18.4c-5.5,4.4-14.6,6.1-20.1,2.9c-2.6-1.5-3.9-2.2-6.4-3.7c-2.8-1.6-4.1-4-4.1-6.6v3.3c0,0.2,0,0.4,0,0.6
		v0.1l0,0c0.2,2,1.5,3.9,4.1,5.4l6.4,3.7c5.5,3.2,14.5,3.2,20.1,0l31.9-18.4c2.8-1.6,4.2-3.7,4.1-5.9l0,0v-4
		C607.2,714.3,605.5,715.7,602.6,716.8z"/>
	<path class="st7" d="M582.3,712.9c-1.3-0.7-1.3-1.8-0.1-2.2c1.3-0.4,3.3,0,4.6,0.7c1.1,0.6,1.2,1.4,0,1.9
		C585.5,713.8,583.5,713.6,582.3,712.9z"/>
</g>
<linearGradient id="SVGID_00000040571793772910755660000017296286062120707729_" gradientUnits="userSpaceOnUse" x1="420.9" y1="724.9066" x2="528.2" y2="724.9066" gradientTransform="matrix(1 0 0 -1 0 1152.8131)">
	<stop  offset="0" style="stop-color:#C7CCE7"/>
	<stop  offset="0.1934" style="stop-color:#D9DCEF"/>
	<stop  offset="0.4762" style="stop-color:#EEEFF8"/>
	<stop  offset="0.7375" style="stop-color:#FBFBFD"/>
	<stop  offset="0.9551" style="stop-color:#FFFFFF"/>
</linearGradient>
<polygon style="fill:url(#SVGID_00000040571793772910755660000017296286062120707729_);" points="528.2,393.1 420.9,404 
	420.9,451.7 528.2,462.7 "/>
<g>
	
		<linearGradient id="SVGID_00000116953903031997629280000003448523328325204130_" gradientUnits="userSpaceOnUse" x1="365.8" y1="750.394" x2="474.8" y2="750.394" gradientTransform="matrix(1 0 0 -1 0 1152.8131)">
		<stop  offset="0" style="stop-color:#CFD2EB"/>
		<stop  offset="0.5358" style="stop-color:#C2C6E5"/>
		<stop  offset="1" style="stop-color:#BBC0E2"/>
	</linearGradient>
	<path style="fill:url(#SVGID_00000116953903031997629280000003448523328325204130_);" d="M365.8,353.1l13.9,75.2
		c0,6,4,12,11.9,16.6c15.8,9.1,41.6,9.1,57.4,0c7.9-4.6,11.9-10.6,11.9-16.6l13.9-75.2H365.8z"/>
	<path class="st14" d="M365.8,353.1c0-8.1,5.3-16.1,16-22.3c21.3-12.3,55.8-12.3,77.1,0c10.6,6.1,16,14.2,16,22.3
		c0,8.1-5.3,16.1-16,22.3c-21.3,12.3-55.8,12.3-77.1,0C371.2,369.2,365.8,361.2,365.8,353.1z"/>
	
		<linearGradient id="SVGID_00000135666927055299664200000018227363068067105929_" gradientUnits="userSpaceOnUse" x1="377.7" y1="810.1566" x2="463.1" y2="810.1566" gradientTransform="matrix(1 0 0 -1 0 1152.8131)">
		<stop  offset="0" style="stop-color:#BBC0E2"/>
		<stop  offset="1" style="stop-color:#CFD2EB"/>
	</linearGradient>
	<path style="fill:url(#SVGID_00000135666927055299664200000018227363068067105929_);" d="M390.2,343.1c16.7-9.6,43.7-9.6,60.4,0
		c6.7,3.9,10.7,8.7,12,13.7c0.3-1.2,0.5-2.5,0.5-3.7c0-6.3-4.2-12.6-12.5-17.4c-16.7-9.6-43.7-9.6-60.4,0
		c-8.3,4.8-12.5,11.1-12.5,17.4c0,1.2,0.2,2.5,0.5,3.7C379.5,351.8,383.5,347,390.2,343.1z"/>
	<path class="st3" d="M390.2,370.6c16.7,9.6,43.7,9.6,60.4,0c6.7-3.9,10.7-8.7,12-13.7c-1.3-5-5.3-9.9-12-13.7
		c-16.7-9.6-43.7-9.6-60.4,0c-6.7,3.9-10.7,8.7-12,13.7C379.5,361.9,383.5,366.7,390.2,370.6z"/>
	
		<linearGradient id="SVGID_00000104699345037067094270000017873488047498618796_" gradientUnits="userSpaceOnUse" x1="416.5838" y1="798.0565" x2="462.5838" y2="798.0565" gradientTransform="matrix(1 0 0 -1 0 1152.8131)">
		<stop  offset="0" style="stop-color:#C4CAE8"/>
		<stop  offset="0.2446" style="stop-color:#C8CDE9"/>
		<stop  offset="0.4699" style="stop-color:#D1D5ED"/>
		<stop  offset="0.6876" style="stop-color:#E1E4F4"/>
		<stop  offset="0.8994" style="stop-color:#F8F9FD"/>
		<stop  offset="0.9551" style="stop-color:#FFFFFF"/>
	</linearGradient>
	<path style="fill:url(#SVGID_00000104699345037067094270000017873488047498618796_);" d="M419.3,372.4c5.8,0,15.3,0.3,26,0.7
		c1.8-0.8,3.6-1.6,5.2-2.5c6.7-3.9,10.7-8.7,12-13.7c-1.3-5-5.3-9.9-12-13.7c-6.4-3.7-14.4-6-22.8-6.8c-6.7,1.8-11.2,3.1-11.2,3.1
		L419.3,372.4z"/>
	
		<linearGradient id="SVGID_00000167378432630578110520000002839645960351318451_" gradientUnits="userSpaceOnUse" x1="429.1072" y1="806.6065" x2="474.8942" y2="806.6065" gradientTransform="matrix(1 0 0 -1 0 1152.8131)">
		<stop  offset="0" style="stop-color:#C7CCE7"/>
		<stop  offset="0.2979" style="stop-color:#D4D7ED"/>
		<stop  offset="0.8707" style="stop-color:#F7F7FC"/>
		<stop  offset="1" style="stop-color:#FFFFFF"/>
	</linearGradient>
	<path style="fill:url(#SVGID_00000167378432630578110520000002839645960351318451_);" d="M458.9,330.9c-4.2-2.4-8.9-4.3-13.9-5.8
		c-5.8,1.3-11.3,2.7-16,3.9c7.9,0.9,15.4,3.2,21.5,6.7c8.3,4.8,12.5,11.1,12.5,17.4c0,1.2-0.2,2.5-0.5,3.7c-0.9,3.5-3.1,6.8-6.5,9.8
		c4.3,0.2,8.7,0.5,13,0.7c3.9-4.5,5.9-9.4,5.9-14.3C474.9,345.1,469.6,337,458.9,330.9z"/>
</g>
<g>
	<path class="st18" d="M473.4,295c-14.3-14.4-34.5,15.9-39.8,24c0,0,0.6,1.4,1.9,3.6C448.5,309.4,466.9,298.7,473.4,295z"/>
	<path class="st19" d="M474.9,296.6c-0.5-0.6-0.9-1.1-1.4-1.6c-6.6,3.7-24.9,14.4-37.9,27.6c1.2,2,3,4.8,5.4,7.8
		C465.9,324.5,485.7,310.4,474.9,296.6z"/>
</g>
<g>
	<path class="st4" d="M399.9,213c10.2-10.3,24.8,11.4,28.6,17.2c0,0-0.4,1-1.4,2.6C417.7,223.3,404.6,215.6,399.9,213z"/>
	<path class="st18" d="M398.8,214.1c0.3-0.4,0.7-0.8,1-1.2c4.7,2.6,17.9,10.4,27.2,19.8c-0.9,1.5-2.1,3.4-3.8,5.6
		C405.2,234.2,391,224,398.8,214.1z"/>
</g>
<g>
	
		<linearGradient id="SVGID_00000164503798402288165250000002186258394448684426_" gradientUnits="userSpaceOnUse" x1="388.2611" y1="831.8055" x2="447.7872" y2="826.58" gradientTransform="matrix(1 0 0 -1 0 1152.8131)">
		<stop  offset="0" style="stop-color:#5D62AA"/>
		<stop  offset="0.2726" style="stop-color:#5055A1"/>
		<stop  offset="0.62" style="stop-color:#464A9A"/>
		<stop  offset="0.8989" style="stop-color:#434697"/>
	</linearGradient>
	<path style="fill:url(#SVGID_00000164503798402288165250000002186258394448684426_);" d="M419.3,277.4
		c-15.9,6.2-31.4,21.2-17.8,89.7c0.5,0.4,5.7,1.4,8.1,2.1C402.5,300.9,409.4,286.1,419.3,277.4z"/>
	
		<linearGradient id="SVGID_00000176750908964717162330000012256379050589291150_" gradientUnits="userSpaceOnUse" x1="387.6943" y1="830.7811" x2="448.0175" y2="825.4855" gradientTransform="matrix(1 0 0 -1 0 1152.8131)">
		<stop  offset="0" style="stop-color:#7377B7"/>
		<stop  offset="0.3245" style="stop-color:#5F64AB"/>
		<stop  offset="0.6434" style="stop-color:#5358A3"/>
		<stop  offset="0.8989" style="stop-color:#4F54A0"/>
	</linearGradient>
	<path style="fill:url(#SVGID_00000176750908964717162330000012256379050589291150_);" d="M409.6,369.1c3,1.7,5.8,2.6,9.7,3.2v-95
		C409.4,286.1,402.5,300.9,409.6,369.1z"/>
	
		<linearGradient id="SVGID_00000061473251427005065630000002471078614683348388_" gradientUnits="userSpaceOnUse" x1="388.3194" y1="832.4949" x2="447.8503" y2="827.2689" gradientTransform="matrix(1 0 0 -1 0 1152.8131)">
		<stop  offset="0" style="stop-color:#7377B7"/>
		<stop  offset="0.3245" style="stop-color:#5F64AB"/>
		<stop  offset="0.6434" style="stop-color:#5358A3"/>
		<stop  offset="0.8989" style="stop-color:#4F54A0"/>
	</linearGradient>
	<path style="fill:url(#SVGID_00000061473251427005065630000002471078614683348388_);" d="M419.3,277.4c-42.9,0-27,66.8-22.4,83.5
		c0.7,2.2,2.2,4.3,4.6,6.2C387.9,298.6,403.4,283.6,419.3,277.4z"/>
	
		<linearGradient id="SVGID_00000176732729517261546720000014540223719793970826_" gradientUnits="userSpaceOnUse" x1="388.4635" y1="834.1159" x2="447.9905" y2="828.8902" gradientTransform="matrix(1 0 0 -1 0 1152.8131)">
		<stop  offset="0" style="stop-color:#5D62AA"/>
		<stop  offset="0.2726" style="stop-color:#5055A1"/>
		<stop  offset="0.62" style="stop-color:#464A9A"/>
		<stop  offset="0.8989" style="stop-color:#434697"/>
	</linearGradient>
	<path style="fill:url(#SVGID_00000176732729517261546720000014540223719793970826_);" d="M419.3,277.4
		c16.4,5.7,31.4,21.2,17.8,89.7c2.3-1.8,3.8-3.8,4.5-5.9l0,0c0,0,0-0.1,0.1-0.1c0,0,0-0.1,0.1-0.1
		C446.7,347.6,462,277.4,419.3,277.4z"/>
	
		<linearGradient id="SVGID_00000181073831643405596970000017202770439692270232_" gradientUnits="userSpaceOnUse" x1="388.3174" y1="832.4434" x2="447.8429" y2="827.2178" gradientTransform="matrix(1 0 0 -1 0 1152.8131)">
		<stop  offset="0" style="stop-color:#7377B7"/>
		<stop  offset="0.3245" style="stop-color:#5F64AB"/>
		<stop  offset="0.6434" style="stop-color:#5358A3"/>
		<stop  offset="0.8989" style="stop-color:#4F54A0"/>
	</linearGradient>
	<path style="fill:url(#SVGID_00000181073831643405596970000017202770439692270232_);" d="M419.3,277.4c9.9,8.7,16.7,24,9.5,92.2
		c2.4-0.7,7.8-2.1,8.3-2.5C450.8,298.6,435.7,283.1,419.3,277.4z"/>
	
		<linearGradient id="SVGID_00000065075835302733869050000008201978075940627632_" gradientUnits="userSpaceOnUse" x1="388.351" y1="830.6235" x2="447.454" y2="825.435" gradientTransform="matrix(1 0 0 -1 0 1152.8131)">
		<stop  offset="0" style="stop-color:#5D62AA"/>
		<stop  offset="0.2726" style="stop-color:#5055A1"/>
		<stop  offset="0.62" style="stop-color:#464A9A"/>
		<stop  offset="0.8989" style="stop-color:#434697"/>
	</linearGradient>
	<path style="fill:url(#SVGID_00000065075835302733869050000008201978075940627632_);" d="M419.3,277.4v95c3.5-1,6.5-1.9,9.5-2.8
		C436,301.4,429.3,286.1,419.3,277.4z"/>
</g>
<g>
	
		<linearGradient id="SVGID_00000103245510802039748460000017362411483457070729_" gradientUnits="userSpaceOnUse" x1="236.0179" y1="575.5208" x2="286.0034" y2="571.1328" gradientTransform="matrix(0.8485 0.3116 0.3248 -0.8846 32.8852 670.8152)">
		<stop  offset="0" style="stop-color:#5D62AA"/>
		<stop  offset="0.2726" style="stop-color:#5055A1"/>
		<stop  offset="0.62" style="stop-color:#464A9A"/>
		<stop  offset="0.8989" style="stop-color:#434697"/>
	</linearGradient>
	<path style="fill:url(#SVGID_00000103245510802039748460000017362411483457070729_);" d="M456.3,206.4
		c-14.8,0.5-29.7,10.4-39.9,72.3c0.3,0.5,2,1.3,3.7,2.6C435.5,221.5,445.5,210.8,456.3,206.4z"/>
	
		<linearGradient id="SVGID_00000132800238828998358380000005344763917795809968_" gradientUnits="userSpaceOnUse" x1="233.4206" y1="574.665" x2="288.0879" y2="569.866" gradientTransform="matrix(0.8485 0.3116 0.3248 -0.8846 32.8852 670.8152)">
		<stop  offset="0" style="stop-color:#7377B7"/>
		<stop  offset="0.3245" style="stop-color:#5F64AB"/>
		<stop  offset="0.6434" style="stop-color:#5358A3"/>
		<stop  offset="0.8989" style="stop-color:#4F54A0"/>
	</linearGradient>
	<path style="fill:url(#SVGID_00000132800238828998358380000005344763917795809968_);" d="M420.1,281.3c1.9,2.3,3.2,3.4,6.1,5.1
		l30-80C445.5,210.8,435.5,221.5,420.1,281.3z"/>
	
		<linearGradient id="SVGID_00000059293410165899588470000008927576714222420652_" gradientUnits="userSpaceOnUse" x1="235.2348" y1="575.9033" x2="287.0041" y2="571.3586" gradientTransform="matrix(0.8485 0.3116 0.3248 -0.8846 32.8852 670.8152)">
		<stop  offset="0" style="stop-color:#7377B7"/>
		<stop  offset="0.3245" style="stop-color:#5F64AB"/>
		<stop  offset="0.6434" style="stop-color:#5358A3"/>
		<stop  offset="0.8989" style="stop-color:#4F54A0"/>
	</linearGradient>
	<path style="fill:url(#SVGID_00000059293410165899588470000008927576714222420652_);" d="M456.3,206.4
		c-34.8-12.8-40.8,55.9-42.2,71.4c0.6-0.1,1-0.3,2.4,0.9C426.6,216.7,441.5,206.8,456.3,206.4z"/>
	
		<linearGradient id="SVGID_00000182530653920318486160000001892751510776048003_" gradientUnits="userSpaceOnUse" x1="234.8534" y1="577.3755" x2="287.7379" y2="572.733" gradientTransform="matrix(0.8485 0.3116 0.3248 -0.8846 32.8852 670.8152)">
		<stop  offset="0" style="stop-color:#5D62AA"/>
		<stop  offset="0.2726" style="stop-color:#5055A1"/>
		<stop  offset="0.62" style="stop-color:#464A9A"/>
		<stop  offset="0.8989" style="stop-color:#434697"/>
	</linearGradient>
	<path style="fill:url(#SVGID_00000182530653920318486160000001892751510776048003_);" d="M456.3,206.4
		c11.5,9.7,16.8,27.3-15.5,81.1C454.5,275.3,489.1,220.8,456.3,206.4z"/>
	
		<linearGradient id="SVGID_00000145029763347097690350000003416778085229736636_" gradientUnits="userSpaceOnUse" x1="234.816" y1="575.965" x2="287.5116" y2="571.339" gradientTransform="matrix(0.8485 0.3116 0.3248 -0.8846 32.8852 670.8152)">
		<stop  offset="0" style="stop-color:#7377B7"/>
		<stop  offset="0.3245" style="stop-color:#5F64AB"/>
		<stop  offset="0.6434" style="stop-color:#5358A3"/>
		<stop  offset="0.8989" style="stop-color:#4F54A0"/>
	</linearGradient>
	<path style="fill:url(#SVGID_00000145029763347097690350000003416778085229736636_);" d="M456.3,206.4c5.3,10.3,4.5,25.1-22.5,80.7
		c2.2,0.1,6.4,0.6,7,0.4C473.1,233.6,467.8,216,456.3,206.4z"/>
	
		<linearGradient id="SVGID_00000030450469866368590060000013623324175438082730_" gradientUnits="userSpaceOnUse" x1="235.4272" y1="574.5345" x2="286.5137" y2="570.0498" gradientTransform="matrix(0.8485 0.3116 0.3248 -0.8846 32.8852 670.8152)">
		<stop  offset="0" style="stop-color:#5D62AA"/>
		<stop  offset="0.2726" style="stop-color:#5055A1"/>
		<stop  offset="0.62" style="stop-color:#464A9A"/>
		<stop  offset="0.8989" style="stop-color:#434697"/>
	</linearGradient>
	<path style="fill:url(#SVGID_00000030450469866368590060000013623324175438082730_);" d="M456.3,206.4l-30,80
		c3.2,0.2,4.8,0.5,7.5,0.7C460.8,231.5,461.6,216.7,456.3,206.4z"/>
</g>
<linearGradient id="SVGID_00000140003049012750732680000001414772890281577147_" gradientUnits="userSpaceOnUse" x1="359.15" y1="547.2065" x2="758.5999" y2="547.2065" gradientTransform="matrix(1 0 0 -1 0 1152.8131)">
	<stop  offset="0" style="stop-color:#C5CAE4"/>
	<stop  offset="0.2172" style="stop-color:#CACEE7"/>
	<stop  offset="0.4969" style="stop-color:#D7DAED"/>
	<stop  offset="0.8095" style="stop-color:#EEEFF8"/>
	<stop  offset="1" style="stop-color:#FFFFFF"/>
</linearGradient>
<path style="fill:url(#SVGID_00000140003049012750732680000001414772890281577147_);" d="M758.4,518.6l-10.1-5.8
	c-3-1.7-10.4-3.1-16.3-3.1H492.9c-6,0-131.5,78.5-131.5,78.5c-3,1.7-3,4.6,0,6.3l183.1,105.7c1.5,0.9,3.5,1.3,5.5,1.3l0,0h4.8
	l128.9-74.4l5.3-3.1h69.6V518.6H758.4z"/>
<g>
	<path class="st3" d="M676.2,615.1c0,3.5-2.5,4.9-5.4,3.1L487.7,512.6c-3-1.7-5.4-6-5.4-9.4V365.1c0-3.5,2.5-4.9,5.4-3.1
		l183.1,105.7c3,1.7,5.4,6,5.4,9.4L676.2,615.1L676.2,615.1z"/>
	
		<linearGradient id="SVGID_00000096055487258111714200000007942081403439841957_" gradientUnits="userSpaceOnUse" x1="533.6917" y1="819.9448" x2="692.7338" y2="544.476" gradientTransform="matrix(1 0 0 -1 0 1152.8131)">
		<stop  offset="0.5757" style="stop-color:#7276B7"/>
		<stop  offset="0.6122" style="stop-color:#2B2B66"/>
	</linearGradient>
	<path style="fill:url(#SVGID_00000096055487258111714200000007942081403439841957_);" d="M674.9,465.3L491.8,359.6
		c-1.5-0.9-2.9-0.9-3.9-0.3l0,0l-3.9,2.3l0,0c1-0.5,2.3-0.4,3.7,0.5l183.1,105.7c3,1.7,5.4,6,5.4,9.4v138.1c0,1.7-0.6,2.9-1.6,3.5
		l0,0l3.9-2.3l0,0c1.1-0.5,1.8-1.8,1.8-3.6V474.7C680.4,471.2,677.9,467,674.9,465.3z"/>
	<polygon class="st10" points="670.8,609.8 487.7,504.1 487.7,368.2 670.8,473.9 	"/>
</g>
<g>
	<path class="st10" d="M546.7,692.3c-3,1.7-7.9,1.7-10.9,0L352.7,586.7c-3-1.7-3-4.6,0-6.3l124.8-72c3-1.7,7.9-1.7,10.9,0
		l183.1,105.7c3,1.7,3,4.6,0,6.3L546.7,692.3z"/>
	<g>
		<g>
			<polygon class="st34" points="488.6,523.3 479.6,518.1 484.1,515.6 493,520.7 			"/>
			<polygon class="st34" points="503.6,532 494.7,526.9 499.2,524.3 508.1,529.4 			"/>
			<polygon class="st34" points="518.7,540.7 509.8,535.6 514.2,533 523.2,538.1 			"/>
			<polygon class="st34" points="533.8,549.4 524.8,544.3 529.3,541.7 538.3,546.8 			"/>
			<polygon class="st34" points="548.9,558.1 539.9,553 544.4,550.4 553.4,555.6 			"/>
			<polygon class="st34" points="564,566.8 555,561.7 559.5,559.1 568.4,564.3 			"/>
			<polygon class="st34" points="579,575.5 570.1,570.4 574.6,567.8 583.5,573 			"/>
			<polygon class="st34" points="594.1,584.3 585.2,579.1 589.6,576.5 598.6,581.7 			"/>
			<polygon class="st34" points="609.2,593 600.2,587.8 604.7,585.2 613.7,590.4 			"/>
			<polygon class="st34" points="624.3,601.7 615.3,596.5 619.8,593.9 628.7,599.1 			"/>
			<polygon class="st34" points="639.3,610.4 630.4,605.2 634.9,602.6 643.8,607.8 			"/>
			<polygon class="st34" points="654.4,619.1 645.5,613.9 649.9,611.3 658.9,616.5 			"/>
		</g>
		<polygon class="st34" points="480.6,536.1 464.5,526.9 473.5,521.7 489.6,531 		"/>
		<polygon class="st34" points="472.3,548 450.1,535.2 459,530 481.3,542.9 		"/>
		<polygon class="st34" points="463.4,560.3 435,543.9 444,538.7 472.3,555.1 		"/>
		<polygon class="st34" points="432.9,563.7 416.8,554.4 428.9,547.4 445,556.7 		"/>
		<polygon class="st34" points="455.1,576.6 439,567.3 451.1,560.3 467.2,569.6 		"/>
		<polygon class="st34" points="477.3,589.4 461.2,580.1 473.3,573.1 489.4,582.4 		"/>
		<polygon class="st34" points="553.9,633.6 537.8,624.3 549.9,617.3 566,626.6 		"/>
		<polygon class="st34" points="591.6,655.4 560,637.1 572.1,630.1 603.7,648.4 		"/>
		<polygon class="st34" points="531.7,620.8 483.4,592.9 495.5,585.9 543.9,613.8 		"/>
		<polygon class="st34" points="499.9,547.3 486.8,539.7 495.7,534.5 508.9,542.1 		"/>
		<polygon class="st34" points="491.6,559.2 478.4,551.6 487.4,546.4 500.6,554 		"/>
		<polygon class="st34" points="483.1,571.2 469.9,563.6 478.8,558.4 492,566 		"/>
		<polygon class="st34" points="502.4,582.3 489.2,574.7 498.1,569.5 511.3,577.1 		"/>
		<polygon class="st34" points="521.7,593.4 508.5,585.8 517.4,580.7 530.6,588.3 		"/>
		<polygon class="st34" points="541,604.6 527.8,597 536.7,591.8 549.9,599.4 		"/>
		<polygon class="st34" points="560.3,615.7 547.1,608.1 556,603 569.2,610.6 		"/>
		<polygon class="st34" points="579.5,626.9 566.4,619.3 575.3,614.1 588.5,621.7 		"/>
		<polygon class="st34" points="610.2,644.6 585.7,630.4 594.6,625.2 619.2,639.4 		"/>
		<polygon class="st34" points="510.9,570.3 497.7,562.7 506.7,557.5 519.9,565.1 		"/>
		<polygon class="st34" points="530.2,581.4 517,573.8 526,568.7 539.2,576.3 		"/>
		<polygon class="st34" points="549.5,592.6 536.3,585 545.3,579.8 558.4,587.4 		"/>
		<polygon class="st34" points="568.8,603.7 555.6,596.1 564.6,591 577.7,598.6 		"/>
		<polygon class="st34" points="588.1,614.9 574.9,607.3 583.9,602.1 597,609.7 		"/>
		<polygon class="st34" points="624.9,636.1 594.2,618.4 603.2,613.2 633.8,630.9 		"/>
		<polygon class="st34" points="519.2,558.4 506.1,550.8 515,545.7 528.2,553.3 		"/>
		<polygon class="st34" points="538.5,569.6 525.4,562 534.3,556.8 547.5,564.4 		"/>
		<polygon class="st34" points="557.8,580.7 544.7,573.1 553.6,567.9 566.8,575.5 		"/>
		<polygon class="st34" points="577.1,591.9 563.9,584.2 572.9,579.1 586.1,586.7 		"/>
		<polygon class="st34" points="596.4,603 583.2,595.4 592.2,590.2 605.4,597.8 		"/>
		<polygon class="st34" points="615.7,614.1 602.5,606.5 611.5,601.4 624.7,609 		"/>
		<polygon class="st34" points="639.3,627.8 621.8,617.7 630.8,612.5 648.3,622.6 		"/>
	</g>
	<polygon class="st4" points="647.9,605.4 503.2,521.9 507.6,519.4 652.2,602.9 	"/>
	<polygon class="st34" points="531.7,631.6 457.9,589 412,615.5 485.9,658.1 	"/>
	
		<linearGradient id="SVGID_00000157283549249715372520000001597960547343336092_" gradientUnits="userSpaceOnUse" x1="350.6" y1="512.4318" x2="673.8084" y2="512.4318" gradientTransform="matrix(1 0 0 -1 0 1152.8131)">
		<stop  offset="0.5618" style="stop-color:#4F54A0"/>
		<stop  offset="0.6124" style="stop-color:#2B2B66"/>
	</linearGradient>
	<path style="fill:url(#SVGID_00000157283549249715372520000001597960547343336092_);" d="M671.4,620.3l-124.8,72
		c-2.4,1.4-6,1.7-8.8,0.8c0,0-1.8-0.7-2.1-0.8l-183-105.6c-0.2-0.1-0.4-0.2-0.6-0.4l0,0l0,0l-0.1-0.1c-0.1-0.1-0.2-0.2-0.3-0.3
		l-0.1-0.1c-0.1-0.1-0.2-0.2-0.3-0.3l0,0l0,0c-0.1-0.1-0.2-0.3-0.3-0.4c-0.2-0.4-0.4-0.9-0.4-1.3l0,0v2.6l0,0c0,1.2,0.7,2.3,2.2,3.2
		l183.1,105.7c4.4,2.2,10.6,1.7,12.5,1.3s3.5-0.9,5.5-1.3l117.7-68c1.5-0.9,2.3-2,2.2-3.2v-6.8C673.7,618.3,672.9,619.4,671.4,620.3
		z"/>
</g>
<polygon class="st36" points="538.5,525.7 494.5,500.3 494.5,417.5 538.5,442.9 "/>
<polygon class="st37" points="571.3,450.5 494.5,406.2 494.5,376.9 571.3,421.2 "/>
<polygon class="st36" points="663.3,538.3 632.8,520.7 632.8,474.1 663.3,491.7 "/>
<polygon class="st38" points="663.3,482 580.9,434.5 580.9,426.8 663.3,474.3 "/>
<polygon class="st37" points="544.8,526.6 562.2,536.6 562.2,532.5 544.8,522.4 "/>
<polygon class="st39" points="571.8,487.5 556.7,478.7 556.7,482.9 571.8,491.6 "/>
<polygon class="st39" points="575.3,497.9 556.7,487.1 556.7,491.3 575.3,502.1 "/>
<polygon class="st39" points="544.8,518.2 565.6,530.2 565.6,526 544.8,514 "/>
<polygon class="st37" points="565.6,467 544.8,455 544.8,459.2 565.6,471.2 "/>
<polygon class="st38" points="575.3,481 556.7,470.3 556.7,474.4 575.3,485.2 "/>
<polygon class="st39" points="565.6,458.6 544.8,446.6 544.8,450.7 565.6,462.8 "/>
<polygon class="st39" points="572.7,504.8 556.7,495.6 556.7,499.7 572.7,509 "/>
<polygon class="st39" points="575.3,527.3 575.3,523.2 556.7,512.4 556.7,516.6 "/>
<polygon class="st38" points="575.3,514.8 556.7,504 556.7,508.2 575.3,518.9 "/>
<polygon class="st40" points="578.8,504.1 646.8,543.3 646.8,539.2 578.8,499.9 "/>
<polygon class="st39" points="575.3,493.6 627,523.5 627,519.3 575.3,489.5 "/>
<polygon class="st39" points="569.1,473.2 627,506.6 627,502.5 569.1,469.1 "/>
<polygon class="st39" points="565.7,538.6 619.1,569.5 619.1,565.3 565.7,534.5 "/>
<polygon class="st39" points="569.1,460.6 569.1,464.8 627,498.2 627,494 "/>
<polygon class="st40" points="578.8,487.2 627,515.1 627,510.9 578.8,483.1 "/>
<polygon class="st39" points="578.8,529.4 646.8,568.6 646.8,564.5 578.8,525.2 "/>
<polygon class="st39" points="576.2,511 646.8,551.8 646.8,547.6 576.2,506.9 "/>
<polygon class="st39" points="569.1,532.2 646.8,577.1 646.8,572.9 569.1,528.1 "/>
<polygon class="st40" points="578.8,520.9 646.8,560.2 646.8,556 578.8,516.8 "/>
<g>
	
		<linearGradient id="SVGID_00000168822141017359869890000003332887447318590108_" gradientUnits="userSpaceOnUse" x1="984.864" y1="898.9687" x2="743.7006" y2="973.1216" gradientTransform="matrix(1 0 0 -1 -687.2461 1152.8131)">
		<stop  offset="0" style="stop-color:#5E65AC"/>
		<stop  offset="1" style="stop-color:#37348B"/>
	</linearGradient>
	<path style="fill:url(#SVGID_00000168822141017359869890000003332887447318590108_);" d="M59.7,194.5c0-8.8,6.2-19.6,13.9-24
		L283,49.5c7.6-4.4,13.9-0.8,13.9,8v182.3c0,8.8-6.2,19.6-13.9,24l-209.4,121c-7.6,4.4-13.9,0.8-13.9-8
		C59.7,376.8,59.7,194.5,59.7,194.5z"/>
	
		<linearGradient id="SVGID_00000108286939923321884120000014315102780656939693_" gradientUnits="userSpaceOnUse" x1="716.7917" y1="786.7947" x2="920.0762" y2="1138.8936" gradientTransform="matrix(1 0 0 -1 -687.2461 1152.8131)">
		<stop  offset="0.396" style="stop-color:#434697"/>
		<stop  offset="0.4786" style="stop-color:#5D62AA"/>
	</linearGradient>
	<path style="fill:url(#SVGID_00000108286939923321884120000014315102780656939693_);" d="M59.7,376.8V194.5c0-8.8,6.2-19.6,13.9-24
		L283,49.5c3.8-2.2,7.2-2.4,9.7-1l-5-2.9l0,0c-2.5-1.6-6.1-1.5-10.1,0.8l-209.4,121c-7.6,4.4-13.9,15.2-13.9,24v182.3
		c0,4.6,1.7,7.8,4.4,9.1l4.6,2.7C61.1,384,59.7,381,59.7,376.8z"/>
</g>
<radialGradient id="SVGID_00000070821851180884720670000004101655981809921937_" cx="308.1462" cy="833.5521" r="134.6178" gradientTransform="matrix(1 0 0 -1 0 1152.8131)" gradientUnits="userSpaceOnUse">
	<stop  offset="0.2921" style="stop-color:#FFD141"/>
	<stop  offset="0.4949" style="stop-color:#967B41"/>
	<stop  offset="0.7423" style="stop-color:#3C342A"/>
	<stop  offset="0.9164" style="stop-color:#0F0F10"/>
	<stop  offset="1" style="stop-color:#020203"/>
</radialGradient>
<path style="fill:url(#SVGID_00000070821851180884720670000004101655981809921937_);" d="M168,315.4c0,4.9,0.3,9.7,0.8,14.4
	l114.3-66c7.6-4.4,13.9-15.2,13.9-24v-57.9C225.3,184.4,168,243.2,168,315.4z"/>
<g>
	<polygon class="st3" points="113.3,353.1 110.8,354.6 110.8,161.9 113.3,160.5 	"/>
	<polygon class="st3" points="93.7,202.6 78.6,211.4 78.6,193.9 93.7,185.1 	"/>
	<polygon class="st3" points="93.7,237.6 78.6,246.4 78.6,228.9 93.7,220.1 	"/>
	<polygon class="st3" points="93.7,272.6 78.6,281.4 78.6,263.9 93.7,255.1 	"/>
	<polygon class="st3" points="93.7,307.6 78.6,316.4 78.6,298.9 93.7,290.1 	"/>
</g>
<g>
	<polygon class="st4" points="167.8,151.4 125.5,175.8 125.5,166.8 167.8,142.4 	"/>
	<polygon class="st39" points="145.9,210.6 125.5,222.3 125.5,231.3 145.9,219.6 	"/>
	<polygon class="st4" points="249,252.1 228.6,263.9 228.6,254.9 249,243.1 	"/>
	<polygon class="st44" points="284.6,84 174.9,147.3 174.9,138.2 284.6,75 	"/>
	<polygon class="st45" points="258,117.6 148.4,180.8 148.4,171.8 258,108.6 	"/>
	<polygon class="st4" points="241.3,145.5 139.8,204.1 139.8,195 241.3,136.5 	"/>
	<polygon class="st44" points="167.8,225.9 125.5,250.4 125.5,241.3 167.8,216.9 	"/>
	<polygon class="st4" points="284.6,158.5 174.9,221.8 174.9,212.8 284.6,149.5 	"/>
	<polygon class="st4" points="258,192.1 148.4,255.4 148.4,246.4 258,183.1 	"/>
	<polygon class="st44" points="258,219.7 148.4,282.9 148.4,291.9 258,228.7 	"/>
	<polygon class="st4" points="275.4,200.3 167.8,262.5 167.8,253.5 275.4,191.3 	"/>
</g>
<linearGradient id="SVGID_00000096045564927237240140000009302462245887155859_" gradientUnits="userSpaceOnUse" x1="303.5" y1="748.6566" x2="476" y2="748.6566" gradientTransform="matrix(1 0 0 -1 0 1152.8131)">
	<stop  offset="0" style="stop-color:#C7CCE7"/>
	<stop  offset="3.891988e-02" style="stop-color:#CDD1EA"/>
	<stop  offset="0.2121" style="stop-color:#E3E5F3"/>
	<stop  offset="0.3917" style="stop-color:#F3F4FA"/>
	<stop  offset="0.5803" style="stop-color:#FCFCFE"/>
	<stop  offset="0.7921" style="stop-color:#FFFFFF"/>
</linearGradient>
<polygon style="fill:url(#SVGID_00000096045564927237240140000009302462245887155859_);" points="476,393.1 317.9,393.1 
	303.5,404.1 304.5,415.2 437.6,415.2 "/>
<g>
	<g>
		<path class="st47" d="M276.5,399.7c7.7,7.7,24.2,14.5,28,15.4c3.9-1,20.4-7.8,28-15.4C315,398.7,294.1,398.7,276.5,399.7z"/>
		
			<linearGradient id="SVGID_00000150786531040127958060000009075783078006436261_" gradientUnits="userSpaceOnUse" x1="272.9" y1="763.944" x2="336.105" y2="763.944" gradientTransform="matrix(1 0 0 -1 0 1152.8131)">
			<stop  offset="0" style="stop-color:#4F56A2"/>
			<stop  offset="1" style="stop-color:#35358B"/>
		</linearGradient>
		<path style="fill:url(#SVGID_00000150786531040127958060000009075783078006436261_);" d="M272.9,368.2v23.1
			c0,4.7,3.1,9.3,9.3,12.9c12.3,7.1,32.3,7.1,44.7,0c6.2-3.6,9.3-8.2,9.3-12.9v-23.1H272.9z"/>
		
			<linearGradient id="SVGID_00000002363508868825031770000004687269694040016802_" gradientUnits="userSpaceOnUse" x1="271" y1="763.8441" x2="338.1" y2="763.8441" gradientTransform="matrix(1 0 0 -1 0 1152.8131)">
			<stop  offset="0" style="stop-color:#4F56A2"/>
			<stop  offset="2.963030e-02" style="stop-color:#7479B9"/>
			<stop  offset="1" style="stop-color:#414798"/>
		</linearGradient>
		<path style="fill:url(#SVGID_00000002363508868825031770000004687269694040016802_);" d="M338,380c0-0.6-0.4-1.2-1-1.6
			c0.7-1.6,1-3.3,1-5c0-0.9-0.9-1.8-1.9-1.8c-0.9,0,0,1.8,0,1.8h-0.4c0,4.6-3.2,8.9-8.9,12.2c-12.3,7.1-32.3,7.1-44.6,0
			c-5.7-3.3-8.9-7.6-8.9-12.2h-0.5c0,0,0.9-1.8,0-1.8s-1.8,0.9-1.8,1.8c0,1.7,0.4,3.4,1,5c-0.6,0.3-1,1-1,1.6c0,1.7,0.4,3.4,1,4.9
			c-0.6,0.3-1,1-1,1.6c0,5.4,3.6,10.5,10.1,14.2c12.9,7.5,34,7.5,46.9,0c6.5-3.7,10.1-8.8,10.1-14.2c0-0.6-0.5-1.2-1-1.6
			C337.7,383.3,338.1,381.7,338,380z M326.9,398.7c-12.3,7.1-32.3,7.1-44.6,0c-5.4-3.1-8.5-7.1-8.9-11.4c1.7,2.5,4.3,4.9,7.7,6.8
			c12.9,7.5,34,7.5,46.9,0c3.4-2,6-4.3,7.7-6.8C335.3,391.6,332.2,395.6,326.9,398.7z M326.9,392.2c-12.3,7.1-32.3,7.1-44.6,0
			c-5.4-3.1-8.5-7.1-8.9-11.4c1.7,2.5,4.3,4.9,7.7,6.8c12.9,7.5,34,7.5,46.9,0c3.4-2,6-4.3,7.7-6.8
			C335.4,385,332.2,389.1,326.9,392.2z"/>
	</g>
	<g>
		
			<radialGradient id="SVGID_00000175291079753451284630000002770577390673180037_" cx="277.0154" cy="855.6785" r="106.3159" gradientTransform="matrix(1 0 0 -1 0 1152.8131)" gradientUnits="userSpaceOnUse">
			<stop  offset="0" style="stop-color:#FFD141"/>
			<stop  offset="0.3338" style="stop-color:#FECE3F"/>
			<stop  offset="0.5388" style="stop-color:#FAC738"/>
			<stop  offset="0.709" style="stop-color:#F4BB2C"/>
			<stop  offset="0.8593" style="stop-color:#ECA91C"/>
			<stop  offset="0.9967" style="stop-color:#E19301"/>
			<stop  offset="1" style="stop-color:#E09200"/>
		</radialGradient>
		<path style="fill:url(#SVGID_00000175291079753451284630000002770577390673180037_);" d="M360.5,313.2c0-30.9-25.1-56-56-56
			s-56,25.1-56,56c0,15.7,6.5,29.9,16.9,40.1c4.3,4.3,5.3,12,5.3,14.2c0,5,3.3,10,9.9,13.8c13.2,7.6,34.6,7.6,47.7,0
			c6.6-3.8,9.9-8.8,9.9-13.8c0-2.2,1.1-9.9,5.3-14.2C354,343.1,360.5,328.9,360.5,313.2z"/>
		
			<linearGradient id="SVGID_00000037651478022664234780000011140846121959364031_" gradientUnits="userSpaceOnUse" x1="270.8" y1="785.3066" x2="338.3" y2="785.3066" gradientTransform="matrix(1 0 0 -1 0 1152.8131)">
			<stop  offset="0" style="stop-color:#FFFFFF"/>
			<stop  offset="5.949336e-02" style="stop-color:#FBFCFE"/>
			<stop  offset="0.3735" style="stop-color:#EAEDF8"/>
			<stop  offset="0.6875" style="stop-color:#DFE4F4"/>
			<stop  offset="1" style="stop-color:#DCE1F3"/>
		</linearGradient>
		<path style="fill:url(#SVGID_00000037651478022664234780000011140846121959364031_);" d="M280.7,353.7c13.2-7.6,34.6-7.6,47.7,0
			c13.2,7.6,13.2,19.9,0,27.6c-13.2,7.6-34.6,7.6-47.7,0C267.5,373.6,267.5,361.3,280.7,353.7z"/>
		
			<linearGradient id="SVGID_00000065069045200294182520000016869689565712006064_" gradientUnits="userSpaceOnUse" x1="293.4455" y1="832.6889" x2="324.2303" y2="779.368" gradientTransform="matrix(1 0 0 -1 0 1152.8131)">
			<stop  offset="5.617980e-03" style="stop-color:#FFFFFF"/>
			<stop  offset="1" style="stop-color:#F1F1F6"/>
		</linearGradient>
		<path style="fill:url(#SVGID_00000065069045200294182520000016869689565712006064_);" d="M279.1,328.4l-2.2,1.3l32,18.5
			c3.7,0.3,7.4,0.9,10.8,1.9l-39-22.5L279.1,328.4z M334.7,358.7c1.7,2,2.8,4.1,3.3,6.2l0.5,0.3c0.1-1.3,0.5-2.6,0.8-3.9
			L334.7,358.7z"/>
		<g>
			<path class="st10" d="M259.8,318.2c-2.8,0-5-2.2-5-5c0-27.4,22.3-49.7,49.7-49.7c2.8,0,5,2.2,5,5s-2.2,5-5,5
				c-21.9,0-39.7,17.8-39.7,39.7C264.9,316,262.6,318.2,259.8,318.2z"/>
		</g>
		
			<linearGradient id="SVGID_00000100360396910843225710000007503053128227657878_" gradientUnits="userSpaceOnUse" x1="317.2315" y1="797.3132" x2="295.4377" y2="835.0612" gradientTransform="matrix(1 0 0 -1 0 1152.8131)">
			<stop  offset="0" style="stop-color:#020203"/>
			<stop  offset="0.1058" style="stop-color:#241F20"/>
			<stop  offset="0.2325" style="stop-color:#4F3E38"/>
			<stop  offset="0.3613" style="stop-color:#7A5C4B"/>
			<stop  offset="0.4898" style="stop-color:#A2785C"/>
			<stop  offset="0.618" style="stop-color:#C49068"/>
			<stop  offset="0.7459" style="stop-color:#DEA371"/>
			<stop  offset="0.8733" style="stop-color:#EEAF77"/>
			<stop  offset="1" style="stop-color:#F4B379"/>
		</linearGradient>
		<path style="fill:url(#SVGID_00000100360396910843225710000007503053128227657878_);" d="M317,306.6c-0.7-0.4-1.5-0.4-2.2,0
			c-1.5,0.9-2.7,3.8-3.4,7.5c-0.5-1.5-1.2-2.6-2-3.1c-0.7-0.4-1.5-0.4-2.2,0c-1.5,0.9-2.7,3.8-3.4,7.5c-0.5-1.5-1.2-2.6-2-3.1
			c-0.7-0.4-1.5-0.4-2.3,0c-1.5,0.9-2.7,3.8-3.4,7.5c-0.5-1.5-1.2-2.6-2-3.1c-0.7-0.4-1.5-0.4-2.2,0c-2.9,1.7-4.4,10.5-4.4,18.3
			c0,8,1.9,10.3,3.7,12.6c1.9,2.4,3.9,4.9,3.9,15.5c0,0.6,0.5,1.2,1.2,1.2c0.6,0,1.2-0.5,1.2-1.2c0-11.5-2.4-14.4-4.5-17
			c-1.7-2.1-3.2-4-3.2-11.2c0-8.9,1.9-15.4,3.2-16.3c0.8,0.5,2.1,4.4,2.1,11.8c0,0.6,0.5,1.2,1.2,1.2c0.6,0,1.2-0.5,1.2-1.2
			c0-8.9,1.9-15.4,3.2-16.3c0.8,0.5,2.1,4.4,2.1,11.8c0,0.6,0.5,1.2,1.2,1.2c0.6,0,1.2-0.5,1.2-1.2c0-8.9,1.9-15.4,3.2-16.3
			c0.8,0.5,2.1,4.4,2.1,11.8c0,0.6,0.5,1.2,1.2,1.2c0.6,0,1.2-0.5,1.2-1.2c0-8.9,1.9-15.4,3.2-16.3c0.8,0.5,2.1,4.4,2.1,11.8
			s-1.7,11.4-3.4,15.6c-2,4.8-4.3,10.3-4.3,21.4c0,0.6,0.5,1.2,1.2,1.2c0.6,0,1.2-0.5,1.2-1.2c0-10.6,2.1-15.6,4.1-20.5
			c1.8-4.5,3.6-8.7,3.6-16.5C320.4,314.7,319.5,308,317,306.6z"/>
	</g>
</g>
<linearGradient id="SVGID_00000164480370752400634350000004352783018459252870_" gradientUnits="userSpaceOnUse" x1="390.7271" y1="488.3217" x2="417.5577" y2="552.715" gradientTransform="matrix(1 0 0 -1 0 1152.8131)">
	<stop  offset="0" style="stop-color:#C3C9E7"/>
	<stop  offset="1" style="stop-color:#FFFFFF"/>
</linearGradient>
<path style="fill:url(#SVGID_00000164480370752400634350000004352783018459252870_);" d="M381.6,642.1c5.5-4.7,11.3-9.7,17.5-14.5
	c0.4-1.2,0.6-2.4,0.6-3.6c1.6-0.7,3.1-1.2,3.8-1.1c5,0.3,8.6-0.1,11.5-1l0,0c10.2-2.6,22.1-10.7,25.6-13.5c-5.1-4.6-9.9-0.7-9.8-0.8
	c-1.7,1,6.3-8.9,12.3-13.7c-21.6-1.2-30.7,23.9-34.9,25l0,0c-2.8,0.9-6.5,1.3-11.5,1c-0.7,0-2.2,0.5-3.8,1.1c0,1.2-0.2,2.4-0.6,3.6
	c-6.2,4.8-12,9.8-17.5,14.5C374.8,648.4,380.8,643.2,381.6,642.1z"/>
<linearGradient id="SVGID_00000132788212116325782410000004104525581925453993_" gradientUnits="userSpaceOnUse" x1="432.5604" y1="405.7137" x2="482.3041" y2="525.0986" gradientTransform="matrix(1 0 0 -1 0 1152.8131)">
	<stop  offset="0" style="stop-color:#C3C9E7"/>
	<stop  offset="1" style="stop-color:#FFFFFF"/>
</linearGradient>
<path style="fill:url(#SVGID_00000132788212116325782410000004104525581925453993_);" d="M552.3,626.5c-3.9-2.5-9.1-4.7-10.6-5.4
	c-0.4-0.2-0.8-0.4-1.3-0.5c1.7,0.8,3.5,1.8,5.1,2.8c6.6,4.1,1.3,9.6-5.6,9.6c-6.9,0-8.3,2.2-14.5,8.4s-11.6,19.9-31.9,18.6
	c-0.1,0.9-0.2,1.9-0.6,2.9c-28.5,22-46.6,46.5-82.2,43.3c-10.6-0.9-21.2-3.7-32.2-8.3c13.5,6.6,26.2,10.3,39,11.5
	c35.6,3.1,53.7-21.4,82.2-43.3c0.3-1,0.5-1.9,0.6-2.9c20.3,1.2,25.7-12.5,31.9-18.6c6.2-6.2,7.6-8.4,14.5-8.4
	C553.6,636.2,558.9,630.7,552.3,626.5z"/>
<linearGradient id="SVGID_00000069393147158325114390000001896364953779366847_" gradientUnits="userSpaceOnUse" x1="507.8" y1="165.4065" x2="630.2" y2="165.4065" gradientTransform="matrix(1 0 0 -1 0 1152.8131)">
	<stop  offset="0" style="stop-color:#C3C9E7"/>
	<stop  offset="1" style="stop-color:#FFFFFF"/>
</linearGradient>
<rect x="507.8" y="965.7" style="fill:url(#SVGID_00000069393147158325114390000001896364953779366847_);" width="122.4" height="43.4"/>
<linearGradient id="SVGID_00000075145675376454433460000012582676665388237731_" gradientUnits="userSpaceOnUse" x1="438" y1="211.3065" x2="560.4" y2="211.3065" gradientTransform="matrix(1 0 0 -1 0 1152.8131)">
	<stop  offset="0" style="stop-color:#C3C9E7"/>
	<stop  offset="1" style="stop-color:#FFFFFF"/>
</linearGradient>
<rect x="438" y="919.8" style="fill:url(#SVGID_00000075145675376454433460000012582676665388237731_);" width="122.4" height="43.4"/>
<g>
	<g>
		<defs>
			<polygon id="SVGID_00000056412909183376616060000006240849040981524647_" points="675.1,894.3 164.1,599.3 164.1,612 
				164.9,611.7 112.2,883 622.8,1177.8 675.5,906.3 674.7,906.8 			"/>
		</defs>
		<clipPath id="SVGID_00000078014248844775625460000003037446243530003902_">
			<use xlink:href="#SVGID_00000056412909183376616060000006240849040981524647_"  style="overflow:visible;"/>
		</clipPath>
		<g style="clip-path:url(#SVGID_00000078014248844775625460000003037446243530003902_);">
			<path class="st19" d="M413.5,949.7c0-34.2,21.7-35.2,21.7-35.2s11.7,0,30.8-7.9c18.8-7.8,45.3-4.8,30.5,22.5
				c-0.1,0.3-0.3,0.7-0.5,1c-0.9,1.5-2.5,2.9-4.8,4.2l-47.4,27.8C436.6,966.3,413.6,956.8,413.5,949.7z"/>
			<path class="st59" d="M413.6,946.7L413.6,946.7c0.4,7,23,16.4,30.2,12.3l47.4-27.8c1.6-0.9,4.3-2.7,6.7-4.9
				c-0.4,0.9-0.8,1.8-1.4,2.9c-0.1,0.3-0.3,0.7-0.5,1c-0.9,1.5-2.5,2.9-4.8,4.2l-47.4,27.8c-6.8,3.9-27.3-4.3-30-11.1
				c-0.1-0.5-0.2-1-0.2-1.4C413.5,948.7,413.6,947.7,413.6,946.7z"/>
			<path class="st10" d="M422.3,910.1c5.6,0,25.2,5,25.2,5s0.1,2.7,1.8,5.1c0.2,0.2,0.4,0.4,0.5,0.7l0,0c3.9,2.7,7.8,7-1.4,12.7
				c-7.5,4.7-13.7,1.7-16.6-1.2c-1.2-2.2-2.9-4.7-5.3-6.1c-2.5-1.4-4-2.1-5.1-2.2c0-0.2-0.1-0.5-0.1-0.5S419.9,910.1,422.3,910.1z"
				/>
			<path class="st59" d="M237.7,859.7c8.8-31.8,12.7-65.4,21.3-102.7c20.5-4.1,184.5-83.7,206.6-40.9c0.8,1.5,1.1,3.2,1.1,5.1l0,0
				c7.9,39.9-18.4,195.9-18.4,195.9l0,0c-0.4,1.5-1.6,3-3.7,4.2c-5.2,3-13.5,3-18.7,0c-2.3-1.3-4.3-3.1-4.5-4.9l0,0
				c0,0-11.4-92.8-7.9-133.9C357.1,826.3,271.7,871.1,237.7,859.7z"/>
		</g>
	</g>
</g>
<g>
	
		<linearGradient id="SVGID_00000076568844737464909170000009029823720103789741_" gradientUnits="userSpaceOnUse" x1="290.3" y1="-0.6434" x2="412.7" y2="-0.6434" gradientTransform="matrix(1 0 0 -1 0 1152.8131)">
		<stop  offset="0" style="stop-color:#C4CBE8"/>
		<stop  offset="1" style="stop-color:#FFFFFF"/>
	</linearGradient>
	
		<rect x="290.3" y="1145.1" style="fill:url(#SVGID_00000076568844737464909170000009029823720103789741_);" width="122.4" height="16.7"/>
	
		<linearGradient id="SVGID_00000118359145815385248760000001855276882747423668_" gradientUnits="userSpaceOnUse" x1="448.1" y1="90.4566" x2="570.5" y2="90.4566" gradientTransform="matrix(1 0 0 -1 0 1152.8131)">
		<stop  offset="0" style="stop-color:#C4CBE8"/>
		<stop  offset="1" style="stop-color:#FFFFFF"/>
	</linearGradient>
	
		<rect x="448.1" y="1054" style="fill:url(#SVGID_00000118359145815385248760000001855276882747423668_);" width="122.4" height="16.7"/>
	
		<linearGradient id="SVGID_00000129907126217664949090000005249816238809489336_" gradientUnits="userSpaceOnUse" x1="153" y1="78.5566" x2="275.4" y2="78.5566" gradientTransform="matrix(1 0 0 -1 0 1152.8131)">
		<stop  offset="0" style="stop-color:#C4CBE8"/>
		<stop  offset="1" style="stop-color:#FFFFFF"/>
	</linearGradient>
	
		<rect x="153" y="1065.9" style="fill:url(#SVGID_00000129907126217664949090000005249816238809489336_);" width="122.4" height="16.7"/>
	<g>
		
			<linearGradient id="SVGID_00000036974136240877222910000013629843465644449701_" gradientUnits="userSpaceOnUse" x1="310.8" y1="169.6565" x2="433.2" y2="169.6565" gradientTransform="matrix(1 0 0 -1 0 1152.8131)">
			<stop  offset="0" style="stop-color:#C4CBE8"/>
			<stop  offset="1" style="stop-color:#FFFFFF"/>
		</linearGradient>
		
			<rect x="310.8" y="974.8" style="fill:url(#SVGID_00000036974136240877222910000013629843465644449701_);" width="122.4" height="16.7"/>
		<polygon class="st64" points="323.4,984.2 310.8,991.4 288,826.3 300.6,819 		"/>
		<polygon class="st37" points="310.8,991.4 298.3,984.2 275.4,819 288,826.3 		"/>
		<polygon class="st18" points="290.3,1161.8 302.8,1154.5 325.7,963 313.1,970.2 		"/>
		<polygon class="st65" points="277.7,1154.5 290.3,1161.8 313.1,970.2 300.6,963 		"/>
		<polygon class="st18" points="460.6,1063.4 448.1,1070.7 425.2,905.5 437.8,898.2 		"/>
		<polygon class="st65" points="448.1,1070.7 435.5,1063.4 412.7,898.2 425.2,905.5 		"/>
		<polygon class="st65" points="140.5,1075.3 153,1082.5 175.9,891 163.3,883.7 		"/>
		<polygon class="st18" points="153,1082.5 165.6,1075.3 188.4,883.7 175.9,891 		"/>
	</g>
	
		<linearGradient id="SVGID_00000048476502219301679130000009568898718656067478_" gradientUnits="userSpaceOnUse" x1="460.15" y1="261.8065" x2="137.9268" y2="261.8065" gradientTransform="matrix(1 0 0 -1 0 1152.8131)">
		<stop  offset="0.356" style="stop-color:#A6ACCC"/>
		<stop  offset="0.6991" style="stop-color:#B8BEDD"/>
		<stop  offset="1" style="stop-color:#C4CBE8"/>
	</linearGradient>
	<path style="fill:url(#SVGID_00000048476502219301679130000009568898718656067478_);" d="M452.5,901.7c10.2-5.9,10.2-15.5,0-21.4
		l-133.4-77c-10.2-5.9-26.8-5.9-37,0l-133.4,77c-10.2,5.9-10.2,15.5,0,21.4l133.4,77c10.2,5.9,26.8,5.9,37,0L452.5,901.7z"/>
</g>
<g>
	<g>
		<defs>
			<polygon id="SVGID_00000029759816588831003320000013054065229172666521_" points="675.1,894.3 164.1,599.3 164.1,612 
				164.9,611.7 112.2,883 622.8,1177.8 675.5,906.3 674.7,906.8 			"/>
		</defs>
		<clipPath id="SVGID_00000132803510930942595350000009044415863230868660_">
			<use xlink:href="#SVGID_00000029759816588831003320000013054065229172666521_"  style="overflow:visible;"/>
		</clipPath>
		<g style="clip-path:url(#SVGID_00000132803510930942595350000009044415863230868660_);">
			
				<linearGradient id="SVGID_00000030483991997261095790000014946014940156822699_" gradientUnits="userSpaceOnUse" x1="2096.9761" y1="173.8134" x2="2184.2935" y2="173.8134" gradientTransform="matrix(-1 0 0 -1 2664.9937 1152.8131)">
				<stop  offset="0" style="stop-color:#4F54A0"/>
				<stop  offset="0.6252" style="stop-color:#3F3C90"/>
				<stop  offset="1" style="stop-color:#37348B"/>
			</linearGradient>
			<path style="fill:url(#SVGID_00000030483991997261095790000014946014940156822699_);" d="M480.7,995.7
				c0-34.2,21.7-35.2,21.7-35.2s11.7,0,30.8-7.9c18.8-7.8,45.3-4.8,30.5,22.5c-0.1,0.3-0.3,0.7-0.5,1c-0.9,1.5-2.5,2.9-4.8,4.2
				l-47.3,27.8C503.8,1012.3,480.9,1002.7,480.7,995.7z"/>
			<path class="st59" d="M480.9,992.6L480.9,992.6c0.4,7,23,16.4,30.2,12.3l47.3-27.8c1.6-0.9,4.3-2.7,6.7-4.9
				c-0.4,0.9-0.8,1.8-1.4,2.9c-0.1,0.3-0.3,0.7-0.5,1c-0.9,1.5-2.5,2.9-4.8,4.2l-47.3,27.8c-6.8,3.9-27.3-4.2-30-11.1
				c-0.1-0.5-0.2-1-0.2-1.4C480.7,994.6,480.8,993.6,480.9,992.6z"/>
			<path class="st10" d="M489.5,956c5.6,0,25.2,5,25.2,5s0.1,2.7,1.8,5.1c0.2,0.2,0.4,0.4,0.5,0.7l0,0c3.9,2.7,7.8,7-1.4,12.7
				c-7.5,4.7-13.7,1.7-16.6-1.2c-1.2-2.2-2.9-4.7-5.3-6.1c-2.5-1.4-4-2.1-5.1-2.2c0-0.1-0.1-0.5-0.1-0.5S487.2,956,489.5,956z"/>
			
				<linearGradient id="SVGID_00000082328433739623028980000004679277309774255804_" gradientUnits="userSpaceOnUse" x1="2129.6135" y1="293.3833" x2="2467.3936" y2="293.3833" gradientTransform="matrix(-1 0 0 -1 2664.9937 1152.8131)">
				<stop  offset="0" style="stop-color:#4F54A0"/>
				<stop  offset="5.378031e-02" style="stop-color:#4B4E9C"/>
				<stop  offset="0.2434" style="stop-color:#403E92"/>
				<stop  offset="0.4217" style="stop-color:#3A368C"/>
				<stop  offset="0.5761" style="stop-color:#37348B"/>
			</linearGradient>
			<path style="fill:url(#SVGID_00000082328433739623028980000004679277309774255804_);" d="M326.2,802.9
				c20.5-4.1,184.5-83.7,206.6-40.9c0.8,1.5,1.1,3.2,1.1,5.1l0,0C541.8,807,515.5,963,515.5,963l0,0c-0.4,1.5-1.6,3-3.7,4.2
				c-5.2,3-13.5,3-18.7,0c-2.3-1.3-4.3-3.1-4.5-4.8l0,0c0,0-11.4-92.8-7.9-133.9c-56.4,43.7-141.8,88.5-175.8,77.1
				c-55.1-18.4-82.8-32.9-100.3-70.3c-5.8-12.3-7-46.7-7-61.5C258.6,743.7,306.2,770.9,326.2,802.9z"/>
		</g>
	</g>
</g>
<path class="st70" d="M442.2,586.2c-3.9-2.5-9.1-4.7-10.6-5.4c-6.9-3.3-17.9-0.7-20.9,1.5c-3.1,2.1-22,13.8-25.6,21.3
	c0,0-7.1,3.7-9.9,5.1l10.4,15.9c0,0,9.1-4.8,11.3-4.7c5,0.3,8.6-0.1,11.5-1l0,0c10.2-2.6,22.1-10.7,25.6-13.5
	c-5.1-4.6-10.7,0.5-14.5,2.5c0.8-1.3,1.7-2.6,2.8-3.7c6.2-6.2,7.6-8.4,14.5-8.4C443.5,595.8,448.8,590.3,442.2,586.2z"/>
<linearGradient id="SVGID_00000008125514457422365540000011189316070416882601_" gradientUnits="userSpaceOnUse" x1="390.5841" y1="505.75" x2="181.2513" y2="553.7498" gradientTransform="matrix(1 0 0 -1 0 1152.8131)">
	<stop  offset="0" style="stop-color:#E09200"/>
	<stop  offset="0.6058" style="stop-color:#F2AD0A"/>
	<stop  offset="1" style="stop-color:#FBBA10"/>
</linearGradient>
<path style="fill:url(#SVGID_00000008125514457422365540000011189316070416882601_);" d="M392.4,624.5c3.7-10.9-9.3-20.5-16.9-19.8
	c-35.7,15.6-53.1,24.8-65.3,21.2c-51.4-24-30.5,39.2,0,41.9C345.8,671,363.9,646.5,392.4,624.5z"/>
<g>
	<path class="st44" d="M243.6,544.2c-25.8,5.7-58.2,22.2-36.7,67.2C221.6,642.2,243.6,544.2,243.6,544.2z"/>
	
		<linearGradient id="SVGID_00000134942541482238281950000017887270612883457698_" gradientUnits="userSpaceOnUse" x1="2287.7935" y1="450.3294" x2="2467.3936" y2="450.3294" gradientTransform="matrix(-1 0 0 -1 2664.9937 1152.8131)">
		<stop  offset="0" style="stop-color:#E09200"/>
		<stop  offset="0.3875" style="stop-color:#E89E04"/>
		<stop  offset="1" style="stop-color:#FBBA10"/>
	</linearGradient>
	<path style="fill:url(#SVGID_00000134942541482238281950000017887270612883457698_);" d="M248.3,845.1
		c50.6,28.4,119.4,18,128.9-21.9c-34.5-115.7-42.2-192.5-41.4-239.6c-22.4-17.2-41.4-32.5-57.8-36.2c-17.1-3.8-39.7-6.8-49.7,2.8
		c-31.1,41.9-23,114.4-30.7,223.6C203,808.8,223.4,831.1,248.3,845.1z"/>
	<path class="st70" d="M254.4,546.2c8.6-8.1,11.2-21.3,12.7-36.1c-0.9-8.2-0.4-17,1.9-25.8c8.1-31.9,34.8-52.6,59.8-46.3
		c25,6.3,38.7,37.3,30.6,69.2c-7.5,29.5-33.4,45.9-56.7,48.3c-1.2,2.5,3.2,6.1,7.3,8.8c-19.1,5.1-36.8-4.9-46.1-10
		C259,551.5,255.6,548.9,254.4,546.2z"/>
	<path class="st59" d="M270.3,440c9.3-8.9,20-0.4,25.4-3.2c0.9-0.4,1.9-0.9,2.9-1.4l0,0c7-4.2,3.7-7.3,10.2-11.2
		c6.4-3.8,12.7,1.5,16.9,0.1l0,0c9.9-3.1,18.9-4.4,22.8-0.8c1.9,1.8,3.6,4.1,5.1,6.7l0,0c3.3,5.6,14.9-1.6,14.2,10.5
		c-0.7,11.3-4.9,15.1-6.7,32.5c-0.1,1-0.1,2-0.3,3c0,0.2,0,0.4,0,0.6l0,0c-1.4,11.2-4.8,21.2-10.7,26.8c-1.7,1.6-3.5,3.1-5.3,4.6
		c1.5-6.1-7.9-23.5-14.7,3.6c-0.7,2.9,1.3,4-1.6,7.4s-17.7,10-27.8,16c-14.2,8.5-18.3-3.4-37.5-6.1c2-8,1-12.6-0.6-18.3
		c-1-3.6-2.8-17.7,0.1-32.8c0,0,0,0,0-0.1C266.3,463.1,261.2,448.8,270.3,440z"/>
</g>
<path class="st70" d="M477.2,644.8c2.8-1.4,7.3-3.8,7.3-3.8c0.1-1.6,5.7-19.5,21-24c3.1,4.8-2.3,8.6-6.7,13.1
	c5.3-4.2,12.2-8.5,15.2-10.6c3.1-2.1,14-4.7,20.9-1.5c1.5,0.7,6.7,2.9,10.6,5.4c6.6,4.1,1.3,9.6-5.6,9.6c-6.9,0-8.3,2.2-14.5,8.4
	s-11.6,19.9-32,18.6c-2.1-0.1-4.6,1.7-4.6,1.7L477.2,644.8z"/>
<linearGradient id="SVGID_00000070116344365904713310000014455759840099080381_" gradientUnits="userSpaceOnUse" x1="480.7633" y1="477.5557" x2="287.4296" y2="532.2224" gradientTransform="matrix(1 0 0 -1 0 1152.8131)">
	<stop  offset="0" style="stop-color:#E09200"/>
	<stop  offset="0.6058" style="stop-color:#F2AD0A"/>
	<stop  offset="1" style="stop-color:#FBBA10"/>
</linearGradient>
<path style="fill:url(#SVGID_00000070116344365904713310000014455759840099080381_);" d="M493.1,662.9c3.7-10.9-9.3-20.5-16.9-19.8
	c-35.7,15.6-53.1,24.8-65.3,21.2c-51.4-24-62.4-68.9-75.1-80.7c-28.7-20.4-63.2,24.8-25.6,65.4c39.7,37.2,70.3,54.5,100.7,57.1
	C446.6,709.4,464.6,684.9,493.1,662.9z"/>
<linearGradient id="SVGID_00000132076292644369400800000000031843818557576861_" gradientUnits="userSpaceOnUse" x1="460" y1="318.9041" x2="137.7773" y2="318.9041" gradientTransform="matrix(1 0 0 -1 0 1152.8131)">
	<stop  offset="0.356" style="stop-color:#BBC0E2"/>
	<stop  offset="0.498" style="stop-color:#CBCEE9"/>
	<stop  offset="0.8254" style="stop-color:#EAEBF7"/>
	<stop  offset="1" style="stop-color:#F7F6FB"/>
</linearGradient>
<path style="fill:url(#SVGID_00000132076292644369400800000000031843818557576861_);" d="M140.5,891
	c-3.4-26.1-19.6-145.6-22.4-165.8c-3.6-26.6,24.7-45.5,65.5-22.4S266.8,755.6,308,816c21.2,31.1,72.4,20.4,93.9,6.7
	c30.2-19.1,58.1,2.9,58.1,68.3c-16.6,12-130.5,74.9-144.9,81.3s-26.2,3.8-57.5-16.3C226.4,936,140.5,891,140.5,891z"/>
<g>
	
		<linearGradient id="SVGID_00000062905934807691893380000009440203713540451497_" gradientUnits="userSpaceOnUse" x1="785.1327" y1="557.804" x2="830.107" y2="557.804" gradientTransform="matrix(1 0 0 -1 0 1152.8131)">
		<stop  offset="0" style="stop-color:#D2D7EE"/>
		<stop  offset="0.5738" style="stop-color:#EBEDF8"/>
		<stop  offset="1" style="stop-color:#FFFFFF"/>
	</linearGradient>
	<path style="fill:url(#SVGID_00000062905934807691893380000009440203713540451497_);" d="M828.8,603.6l-18.2-22.8
		c-3.3-4.2-10.9-6-17.6-4.2c-4,1.1-6.7,3.1-7.6,5.7c-0.6,1.9-0.2,4,1.3,5.9l13.7,17.2c0.4,0.6,1.3,0.6,1.8,0.2
		c0.6-0.4,0.6-1.3,0.2-1.8l-13.7-17.2c-0.6-0.8-1.3-2.1-0.9-3.5c0.6-1.7,2.7-3.2,5.8-4c5.7-1.5,12.2,0,14.9,3.3l18.2,22.8
		c0.5,0.6,1,1.6,0.7,2.7c-0.4,1.3-2.1,2.4-4.4,3.1c-0.2,0-0.3,0.1-0.5,0.1c-4.6,1.1-10-0.1-12-2.6l-12.2-15.3
		c-0.4-0.5-0.6-1.1-0.4-1.6c0.3-0.8,1.4-1.9,3.6-2.5c3.5-0.9,7.8-0.1,9.3,1.8l7.7,9.7c0.4,0.6,1.3,0.6,1.8,0.2
		c0.6-0.4,0.6-1.3,0.2-1.8l-7.7-9.7c-2.2-2.7-7.5-3.9-12-2.7c-2.8,0.8-4.8,2.3-5.4,4.2c-0.5,1.4-0.2,2.8,0.8,4l12.2,15.3
		c2,2.5,6.1,4,10.4,4c1.6,0,3.2-0.2,4.7-0.6c0.2-0.1,0.3-0.1,0.5-0.2c3-0.9,5-2.5,5.7-4.6C830.4,607,830,605.2,828.8,603.6z"/>
	
		<linearGradient id="SVGID_00000030451209505405607380000006579038580858296743_" gradientUnits="userSpaceOnUse" x1="816.2721" y1="545.223" x2="798.727" y2="567.7195" gradientTransform="matrix(1 0 0 -1 0 1152.8131)">
		<stop  offset="0" style="stop-color:#FBBA13"/>
		<stop  offset="7.368302e-02" style="stop-color:#F8B511"/>
		<stop  offset="0.6297" style="stop-color:#E39609"/>
		<stop  offset="0.9355" style="stop-color:#DC8B06"/>
	</linearGradient>
	<path style="fill:url(#SVGID_00000030451209505405607380000006579038580858296743_);" d="M809,607.1l-12.2-15.3
		c-0.4-0.5-0.6-1.1-0.4-1.6c0.3-0.8,1.4-1.9,3.6-2.5c3.5-0.9,7.8-0.1,9.3,1.8l7.7,9.7c0.4,0.6,1.3,0.6,1.8,0.2
		c0.6-0.4,0.6-1.3,0.2-1.8l-7.7-9.7c-2.2-2.7-7.5-3.9-12-2.7c-2.8,0.7-4.8,2.3-5.4,4.2c-0.5,1.4-0.2,2.8,0.8,4l12.2,15.3
		c2,2.5,6.1,4,10.4,4c1.6,0,3.2-0.2,4.7-0.6c0.2,0,0.3-0.1,0.5-0.2l-1.6-2.2C816.3,610.7,811,609.6,809,607.1z"/>
	<path class="st77" d="M827.1,602.3l-18.2-22.9c-3.3-4.2-10.9-6-17.6-4.2c-4,1.1-6.7,3.1-7.6,5.7c-0.6,2-0.2,4,1.3,5.9l13.7,17.2
		c0.4,0.6,1.3,0.6,1.8,0.2c0.6-0.4,0.7-1.3,0.2-1.8L787,585.2c-0.6-0.8-1.3-2.1-0.9-3.5c0.6-1.7,2.7-3.2,5.8-4
		c5.7-1.5,12.2,0,14.9,3.3l18.2,22.8c0.5,0.6,1,1.6,0.7,2.7c-0.4,1.3-2.1,2.4-4.4,3.1c-0.2,0-0.3,0.1-0.5,0.1l1.6,2.2
		c3-0.9,5-2.5,5.7-4.6C828.8,605.7,828.4,603.9,827.1,602.3z"/>
</g>
<g>
	
		<linearGradient id="SVGID_00000023257215619055457530000001423254267726430358_" gradientUnits="userSpaceOnUse" x1="397.2" y1="650.1953" x2="451.8" y2="650.1953" gradientTransform="matrix(1 0 0 -1 0 1152.8131)">
		<stop  offset="0" style="stop-color:#D2D7EE"/>
		<stop  offset="0.5371" style="stop-color:#ECEEF9"/>
		<stop  offset="1" style="stop-color:#FFFFFF"/>
	</linearGradient>
	<path style="fill:url(#SVGID_00000023257215619055457530000001423254267726430358_);" d="M447.7,487.5c-5.2-3-13.3-2.9-18.8,0.3
		l-23.2,13.4c-0.6,0.4-0.8,1.1-0.5,1.8c0.4,0.6,1.1,0.8,1.8,0.5l23.2-13.4c4.7-2.7,11.8-2.8,16.2-0.3c1.8,1.1,2.8,2.4,2.8,3.6
		c0,1.4-1.2,3-3.3,4.2l-30.8,17.8c-3.8,2.2-9.3,2.3-12.9,0.3c-0.1,0-0.1-0.1-0.2-0.1c-1.4-0.9-2.2-1.9-2.2-3s0.8-2.2,2.4-3.1
		l20.6-11.9c2.7-1.6,7.3-1.6,10.1,0c1.1,0.6,1.7,1.4,1.7,2.2c0,0.7-0.6,1.5-1.7,2.2l-13,7.5c-0.6,0.4-0.8,1.1-0.5,1.8
		c0.4,0.6,1.1,0.8,1.8,0.5l13-7.5c1.9-1.1,3-2.7,3-4.4s-1.1-3.3-3-4.4c-3.5-2.1-9.1-2.1-12.7,0l-20.6,11.9c-2.4,1.4-3.7,3.3-3.7,5.4
		c0,1.7,0.9,3.3,2.6,4.6c0.3,0.3,0.7,0.5,1.1,0.7c2.1,1.2,4.7,1.8,7.3,1.8c2.9,0,5.8-0.7,8.2-2.1l30.8-17.8c3-1.7,4.6-4,4.6-6.4
		C451.8,491.2,450.3,489.1,447.7,487.5z"/>
	
		<linearGradient id="SVGID_00000083791646781031129840000001018360035305130145_" gradientUnits="userSpaceOnUse" x1="402.6268" y1="640.6746" x2="432.6579" y2="658.0043" gradientTransform="matrix(1 0 0 -1 0 1152.8131)">
		<stop  offset="0" style="stop-color:#434697"/>
		<stop  offset="0.285" style="stop-color:#3B3A83"/>
		<stop  offset="0.7046" style="stop-color:#302F6E"/>
		<stop  offset="0.9355" style="stop-color:#2B2B66"/>
	</linearGradient>
	<path style="fill:url(#SVGID_00000083791646781031129840000001018360035305130145_);" d="M398.2,511.2c0-1.1,0.8-2.2,2.4-3.1
		l20.6-11.9c2.7-1.6,7.3-1.6,10.1,0c1.1,0.6,1.7,1.4,1.7,2.2c0,0.7-0.6,1.5-1.7,2.2l-13,7.5c-0.6,0.4-0.8,1.1-0.5,1.8
		c0.4,0.6,1.1,0.8,1.8,0.5l13-7.5c1.9-1.1,3-2.7,3-4.4s-1.1-3.3-3-4.4c-3.6-2-9.1-2-12.7,0L399.3,506c-2.4,1.4-3.7,3.3-3.7,5.4
		c0,1.7,0.9,3.3,2.6,4.6l2.2-1.6C399,513.3,398.2,512.3,398.2,511.2z"/>
	<path class="st3" d="M446,486.2c-5.2-3-13.3-2.9-18.8,0.3L404,499.9c-0.6,0.4-0.8,1.1-0.5,1.8c0.4,0.6,1.1,0.8,1.8,0.5l23.2-13.4
		c4.7-2.7,11.8-2.8,16.2-0.3c1.8,1.1,2.8,2.3,2.8,3.6c0,1.4-1.2,3-3.3,4.2l-30.8,17.8c-3.8,2.2-9.3,2.3-12.9,0.3
		c-0.1,0-0.1-0.1-0.2-0.1l-2.2,1.6c0.3,0.3,0.7,0.5,1.1,0.7c2.1,1.2,4.7,1.8,7.3,1.8c2.8,0,5.8-0.7,8.2-2.1l30.8-17.8
		c3-1.7,4.6-4,4.6-6.4C450.2,489.8,448.7,487.7,446,486.2z"/>
</g>
<linearGradient id="SVGID_00000132048943359515868700000014748986451064733119_" gradientUnits="userSpaceOnUse" x1="735.1" y1="502.3065" x2="819.7" y2="502.3065" gradientTransform="matrix(1 0 0 -1 0 1152.8131)">
	<stop  offset="0" style="stop-color:#C7CCE7"/>
	<stop  offset="0.2373" style="stop-color:#D8DBEF"/>
	<stop  offset="0.6877" style="stop-color:#F5F5FB"/>
	<stop  offset="0.9355" style="stop-color:#FFFFFF"/>
</linearGradient>
<rect x="735.1" y="629.3" style="fill:url(#SVGID_00000132048943359515868700000014748986451064733119_);" width="84.6" height="42.4"/>
<g>
	
		<linearGradient id="SVGID_00000034052003410628309540000017240070645905258411_" gradientUnits="userSpaceOnUse" x1="700.902" y1="516.769" x2="769.3942" y2="516.769" gradientTransform="matrix(1 0 0 -1 0 1152.8131)">
		<stop  offset="0" style="stop-color:#CFD2EB"/>
		<stop  offset="0.337" style="stop-color:#C7CBE8"/>
		<stop  offset="0.9011" style="stop-color:#B0B6DD"/>
		<stop  offset="1" style="stop-color:#ABB2DB"/>
	</linearGradient>
	<path style="fill:url(#SVGID_00000034052003410628309540000017240070645905258411_);" d="M759.4,614.4c-13.4,7.7-35.1,7.7-48.4,0
		c-6.7-3.9-10-8.9-10-14v51.5c0,5.1,3.3,10.1,10,14c13.4,7.7,35.1,7.7,48.4,0c6.7-3.9,10-8.9,10-14v-51.5l0,0
		C769.4,605.5,766,610.5,759.4,614.4z"/>
	<path class="st14" d="M700.9,600.4c0-5.1,3.3-10.1,10-14c13.4-7.7,35.1-7.7,48.4,0c6.7,3.9,10,8.9,10,14s-3.3,10.1-10,14
		c-13.4,7.7-35.1,7.7-48.4,0C704.2,610.5,700.9,605.5,700.9,600.4z"/>
	<path class="st34" d="M759.4,586.4c-0.2-0.1-0.3-0.2-0.5-0.3l-1.2,3.6h6.3C762.7,588.6,761.1,587.4,759.4,586.4z"/>
	
		<linearGradient id="SVGID_00000008135670191010878680000003819383746150913152_" gradientUnits="userSpaceOnUse" x1="706.0408" y1="557.6315" x2="764.2408" y2="557.6315" gradientTransform="matrix(1 0 0 -1 0 1152.8131)">
		<stop  offset="0" style="stop-color:#BBC0E2"/>
		<stop  offset="1" style="stop-color:#CFD2EB"/>
	</linearGradient>
	<path style="fill:url(#SVGID_00000008135670191010878680000003819383746150913152_);" d="M714.6,601.4c11.4-6.6,29.8-6.6,41.2,0
		c2.8,1.6,4.9,3.5,6.3,5.4c1.5-2.1,2.2-4.2,2.2-6.4c0-4.3-2.8-8.6-8.5-11.9c-11.4-6.6-29.8-6.6-41.2,0c-5.7,3.3-8.5,7.6-8.5,11.9
		c0,2.2,0.7,4.4,2.2,6.4C709.7,604.9,711.8,603,714.6,601.4z"/>
	
		<linearGradient id="SVGID_00000147216649511469028070000014894368462004840374_" gradientUnits="userSpaceOnUse" x1="708.3" y1="545.9066" x2="762.1" y2="545.9066" gradientTransform="matrix(1 0 0 -1 0 1152.8131)">
		<stop  offset="0" style="stop-color:#2B2B66"/>
		<stop  offset="1" style="stop-color:#4F54A0"/>
	</linearGradient>
	<path style="fill:url(#SVGID_00000147216649511469028070000014894368462004840374_);" d="M714.6,612.3c11.4,6.6,29.8,6.6,41.2,0
		c2.8-1.6,4.9-3.5,6.3-5.4c-1.4-2-3.5-3.8-6.3-5.4c-11.4-6.6-29.8-6.6-41.2,0c-2.8,1.6-4.9,3.5-6.3,5.4
		C709.7,608.8,711.8,610.7,714.6,612.3z"/>
	<path class="st40" d="M704.7,656c-1.6,0.9-2.9,0.1-2.9-1.7v-17.9c0-1.8,1.3-4.1,2.9-5.1c0,0,3.9-2.3,8.1-4.7v-5.2l-8.1,4.7
		c-4.1,2.4-7.5,8.3-7.5,13.1v17.9c0,4.8,3.4,6.7,7.5,4.4l8.1-4.7v-5.4C708.6,653.8,704.7,656,704.7,656z"/>
	
		<linearGradient id="SVGID_00000090993585486780085980000007704874063566465160_" gradientUnits="userSpaceOnUse" x1="690.8756" y1="495.8202" x2="711.764" y2="531.9998" gradientTransform="matrix(1 0 0 -1 0 1152.8131)">
		<stop  offset="0.4326" style="stop-color:#CFD2EB"/>
		<stop  offset="0.8708" style="stop-color:#F7F6FB"/>
	</linearGradient>
	<path style="fill:url(#SVGID_00000090993585486780085980000007704874063566465160_);" d="M697.1,657v-17.9c0-4.8,3.4-10.7,7.5-13.1
		l8.1-4.7l-3.6-2.1l-8.1,4.7c-4.1,2.4-7.5,8.3-7.5,13.1v17.9c0,2.2,0.7,3.8,1.9,4.7l0,0l0,0c0.2,0.1,0.3,0.2,0.5,0.3l3.2,1.9
		C697.9,661,697.1,659.3,697.1,657z"/>
	<path class="st14" d="M709.2,649.3c-3.1,1.8-6.1,3.5-7.4,4.3v0.8c0,1.8,1.3,2.6,2.9,1.7c0,0,3.9-2.3,8.1-4.7L709.2,649.3z"/>
</g>
<g>
	
		<linearGradient id="SVGID_00000000216202127735531360000002379552993857555592_" gradientUnits="userSpaceOnUse" x1="743.4841" y1="540.5634" x2="747.9559" y2="550.3729" gradientTransform="matrix(1 0 0 -1 0 1152.8131)">
		<stop  offset="0" style="stop-color:#020203"/>
		<stop  offset="1" style="stop-color:#37348B"/>
	</linearGradient>
	<polygon style="fill:url(#SVGID_00000000216202127735531360000002379552993857555592_);" points="745.8,601.5 749.9,603.3 
		744.9,614.8 741,612.4 	"/>
	
		<linearGradient id="SVGID_00000096021789842969319200000007370030569869579655_" gradientUnits="userSpaceOnUse" x1="746.0165" y1="539.4749" x2="750.6393" y2="549.6153" gradientTransform="matrix(1 0 0 -1 0 1152.8131)">
		<stop  offset="0" style="stop-color:#020203"/>
		<stop  offset="1" style="stop-color:#2B2B66"/>
	</linearGradient>
	<polygon style="fill:url(#SVGID_00000096021789842969319200000007370030569869579655_);" points="744.9,614.8 745.9,615.1 
		751.2,603.2 749.9,603.3 	"/>
	<path class="st14" d="M764.7,564.3c1.6,0.9,2.1,3.2,1.2,5.2c0,0-15.1,32-16.5,34.9c-2.6,0.7-3.8-1.1-3.8-2.5
		c0.6-1.3,14.5-35.4,14.5-35.4c0-0.1,0.1-0.2,0.1-0.3C761.1,564.3,763.1,563.4,764.7,564.3z"/>
	<path class="st40" d="M766,564.6c-0.3-0.1-0.5-0.2-0.8-0.3l-1.3-0.3c0.3,0.1,0.5,0.2,0.8,0.3c1.6,0.9,2.1,3.2,1.2,5.2l-16.4,34.9
		c0,0,1.3-0.2,1.6-1.1c0.4-0.9,16.2-33.5,16.2-33.5C768.1,567.9,767.6,565.5,766,564.6z"/>
</g>
<linearGradient id="SVGID_00000116207639746216636690000000311814552848094384_" gradientUnits="userSpaceOnUse" x1="824.55" y1="477.1065" x2="958.8" y2="477.1065" gradientTransform="matrix(1 0 0 -1 0 1152.8131)">
	<stop  offset="0" style="stop-color:#C5C9E5"/>
	<stop  offset="0.2193" style="stop-color:#C9CEE7"/>
	<stop  offset="0.4921" style="stop-color:#D6D9ED"/>
	<stop  offset="0.7921" style="stop-color:#ECEDF7"/>
	<stop  offset="1" style="stop-color:#FFFFFF"/>
</linearGradient>
<path style="fill:url(#SVGID_00000116207639746216636690000000311814552848094384_);" d="M844.2,648.3c26.2-15.1,68.7-15.1,94.9,0
	c13.1,7.6,19.7,17.5,19.7,27.4s-6.6,19.8-19.7,27.4c-26.2,15.1-68.7,15.1-94.9,0C818,688,818,663.5,844.2,648.3z"/>
<g>
	<g>
		<path class="st14" d="M829.2,639.6c26.2-15.1,68.7-15.1,94.9,0c13.1,7.6,19.7,17.5,19.7,27.4s-6.6,19.8-19.7,27.4
			c-26.2,15.1-68.7,15.1-94.9,0C803,679.3,803,654.8,829.2,639.6z"/>
		
			<linearGradient id="SVGID_00000059999639404620466460000016464307305381443970_" gradientUnits="userSpaceOnUse" x1="887.2966" y1="486.0565" x2="943.7614" y2="486.0565" gradientTransform="matrix(1 0 0 -1 0 1152.8131)">
			<stop  offset="0" style="stop-color:#D2D7EE"/>
			<stop  offset="1" style="stop-color:#FFFFFF"/>
		</linearGradient>
		<path style="fill:url(#SVGID_00000059999639404620466460000016464307305381443970_);" d="M911.6,651.9h-23.3
			c0.7,2-0.3,29.6-1.1,29.7h17.3l15.6-9h22.8c0.5-1.8,0.7-3.7,0.7-5.6c0-3.4-0.8-6.8-2.3-10.1h-21.2L911.6,651.9z"/>
		
			<linearGradient id="SVGID_00000054978852097725961160000014145498564610521529_" gradientUnits="userSpaceOnUse" x1="809.6" y1="462.0941" x2="943.8" y2="462.0941" gradientTransform="matrix(1 0 0 -1 0 1152.8131)">
			<stop  offset="0" style="stop-color:#5F65AC"/>
			<stop  offset="0.2912" style="stop-color:#4F539F"/>
			<stop  offset="0.7505" style="stop-color:#3C3B8F"/>
			<stop  offset="1" style="stop-color:#34348B"/>
		</linearGradient>
		<path style="fill:url(#SVGID_00000054978852097725961160000014145498564610521529_);" d="M924.1,694.4
			c-26.2,15.1-68.7,15.1-94.9,0c-13.1-7.6-19.6-17.5-19.6-27.4v8.7c0,9.9,6.6,19.8,19.6,27.4c26.2,15.1,68.7,15.1,94.9,0
			c13.1-7.6,19.6-17.5,19.7-27.4V667C943.8,677,937.2,686.9,924.1,694.4z"/>
	</g>
	<g>
		<path class="st90" d="M900.9,663.7c0-6.1-4.3-8.6-9.6-5.6c-5.3,3.1-9.6,10.5-9.6,16.7c0,6.1,4.3,8.6,9.6,5.5
			C896.6,677.2,900.9,669.8,900.9,663.7z"/>
		
			<linearGradient id="SVGID_00000105399328370673548670000003675204857270182567_" gradientUnits="userSpaceOnUse" x1="2438.0842" y1="482.2397" x2="2424.488" y2="505.789" gradientTransform="matrix(-1 0 0 -1 3304.4995 1152.8131)">
			<stop  offset="0" style="stop-color:#CFD1EB"/>
			<stop  offset="1" style="stop-color:#F5F5FA"/>
		</linearGradient>
		<path style="fill:url(#SVGID_00000105399328370673548670000003675204857270182567_);" d="M855.3,664.2l29.1,16.8
			c-1.7-1-2.8-3.2-2.8-6.2c0-6.1,4.3-13.6,9.6-16.7c2.6-1.5,5-1.7,6.8-0.7l-29-16.7c-1.8-1.1-4.2-1.1-7,0.5
			c-5.3,3.1-9.6,10.5-9.6,16.7C852.4,661,853.6,663.2,855.3,664.2z"/>
	</g>
	<g>
		<path class="st92" d="M885.6,654.8c-3.8,2.2-7.1,6.6-8.6,11.2l54.4-193.3l12.7-1.6l-51.6,183.1
			C890.7,653.2,888.3,653.3,885.6,654.8z"/>
		<polygon class="st93" points="877,666.1 863.4,658.2 917.8,464.9 931.4,472.7 		"/>
	</g>
	<g>
		<path class="st90" d="M957.2,463.5c0-6.1-4.3-8.6-9.6-5.6c-5.3,3.1-9.6,10.5-9.6,16.7c0,6.1,4.3,8.6,9.6,5.5
			C952.9,477.1,957.2,469.7,957.2,463.5z"/>
		
			<linearGradient id="SVGID_00000096764175342216218010000005778988510982859934_" gradientUnits="userSpaceOnUse" x1="2381.8062" y1="682.4017" x2="2368.209" y2="705.9526" gradientTransform="matrix(-1 0 0 -1 3304.4995 1152.8131)">
			<stop  offset="0" style="stop-color:#CFD1EB"/>
			<stop  offset="1" style="stop-color:#F5F5FA"/>
		</linearGradient>
		<path style="fill:url(#SVGID_00000096764175342216218010000005778988510982859934_);" d="M911.6,464l29.1,16.8
			c-1.7-1-2.8-3.1-2.8-6.2c0-6.1,4.3-13.6,9.6-16.7c2.6-1.5,5-1.7,6.8-0.7l-29-16.7c-1.8-1.1-4.2-1.1-7,0.5
			c-5.3,3.1-9.6,10.5-9.6,16.7C908.8,460.9,909.9,463,911.6,464z"/>
	</g>
	<g>
		<path class="st92" d="M930.1,470.1c0,0.4,0.1,0.7,0.1,1.1l-110-40.6l8.6-17.1l110,40.6C934,457.5,930.1,464.4,930.1,470.1z"/>
		<polygon class="st93" points="938.9,454.1 925.3,446.3 815.3,405.6 828.9,413.5 		"/>
	</g>
	<g>
		<path class="st90" d="M842.3,420.6c0-6.1-4.3-8.6-9.6-5.6c-5.3,3.1-9.6,10.5-9.6,16.7c0,6.1,4.3,8.6,9.6,5.5
			C838,434.2,842.3,426.7,842.3,420.6z"/>
		
			<linearGradient id="SVGID_00000093135318279892102110000003010268541704280759_" gradientUnits="userSpaceOnUse" x1="2496.6064" y1="725.3012" x2="2483.0103" y2="748.8506" gradientTransform="matrix(-1 0 0 -1 3304.4995 1152.8131)">
			<stop  offset="0" style="stop-color:#CFD1EB"/>
			<stop  offset="1" style="stop-color:#F5F5FA"/>
		</linearGradient>
		<path style="fill:url(#SVGID_00000093135318279892102110000003010268541704280759_);" d="M796.8,421.1l29.1,16.8
			c-1.7-1-2.8-3.2-2.8-6.2c0-6.1,4.3-13.6,9.6-16.7c2.6-1.5,5-1.7,6.8-0.7l-29-16.7c-1.8-1.1-4.2-1.1-7,0.5
			c-5.3,3.1-9.6,10.5-9.6,16.7C793.9,417.9,795,420.1,796.8,421.1z"/>
	</g>
	<g>
		
			<linearGradient id="SVGID_00000024682817059814947730000015322224707950971048_" gradientUnits="userSpaceOnUse" x1="2483.4785" y1="708.7449" x2="2554.0984" y2="742.1684" gradientTransform="matrix(-1 0 0 -1 3304.4995 1152.8131)">
			<stop  offset="0" style="stop-color:#34348B"/>
			<stop  offset="0.3608" style="stop-color:#464798"/>
			<stop  offset="0.768" style="stop-color:#585DA6"/>
			<stop  offset="1" style="stop-color:#5F65AC"/>
		</linearGradient>
		<path style="fill:url(#SVGID_00000024682817059814947730000015322224707950971048_);" d="M713.1,453.2c0-0.1,70.7-94.3,70.7-94.3
			l56.8,27.2l-28.2,114c0,1.5-3.6,1.4-11-0.7c-17.2-5-48.6-19.1-70-31.6C718.3,460.1,712,454.9,713.1,453.2z"/>
		<path class="st92" d="M790,359.7c-9.9-2.9-7.9,0.6,4.3,7.7c12.3,7.1,30.2,15.2,40.1,18.1c9.9,2.9,7.9-0.6-4.3-7.7
			C817.8,370.6,799.8,362.5,790,359.7z"/>
		
			<linearGradient id="SVGID_00000178900029503473338400000008537786262316712603_" gradientUnits="userSpaceOnUse" x1="2470.0405" y1="784.5895" x2="2510.3372" y2="784.5895" gradientTransform="matrix(-1 0 0 -1 3304.4995 1152.8131)">
			<stop  offset="0" style="stop-color:#34348B"/>
			<stop  offset="0.2748" style="stop-color:#3E3E92"/>
			<stop  offset="0.7246" style="stop-color:#4B4F9D"/>
			<stop  offset="1" style="stop-color:#5056A2"/>
		</linearGradient>
		<path style="fill:url(#SVGID_00000178900029503473338400000008537786262316712603_);" d="M794.3,363.9l4.2-8.9l36,17.1l-4.3,9.1
			c-0.2,0.4-1.5,0.3-3.9-0.4c-6.2-1.8-17.6-6.9-25.4-11.4C795.9,366.4,793.7,364.5,794.3,363.9z"/>
		<path class="st92" d="M802.5,355.3c-6.2-1.8-5,0.4,2.7,4.9c7.8,4.5,19.1,9.6,25.4,11.4c6.2,1.8,5-0.4-2.7-4.9
			C820.1,362.2,808.7,357.1,802.5,355.3z"/>
	</g>
</g>
<linearGradient id="SVGID_00000114772044941077118810000000869918666347390130_" gradientUnits="userSpaceOnUse" x1="892.0247" y1="382.3066" x2="1022.6508" y2="382.3066" gradientTransform="matrix(1 0 0 -1 -149.5508 1152.8131)">
	<stop  offset="0" style="stop-color:#D2D7EE"/>
	<stop  offset="0.1935" style="stop-color:#DBDFF2"/>
	<stop  offset="1" style="stop-color:#FFFFFF"/>
</linearGradient>
<path style="fill:url(#SVGID_00000114772044941077118810000000869918666347390130_);" d="M873.1,749.7l-30.7-17.8l-43.3,24.7
	l16.1,9.3L750,803.6l-0.6,0.3l-1.4-0.8l-0.2,0.1v1.6l-0.6,0.3l-4,2.3c-1.7,1-0.3,1.7,3,1.7h17.2c3.3,0,7.4-0.8,9-1.7l4-2.3l0.6-0.3
	l-1.1-1l2.7,0.1l0.6-0.3l50.6-29.2L873.1,749.7z"/>
<polygon class="st39" points="743.2,804.3 668.2,761 668.2,750.1 743.2,793.4 "/>
<polygon class="st18" points="737.3,804.2 740.2,802.5 744.5,805 741.7,806.7 "/>
<path class="st18" d="M662.6,761l70.8,40.9l2.8-1.6l-70.8-40.9L662.6,761z M668.2,757.7l-2.8,1.6l2.8,1.6V757.7z"/>
<polygon class="st18" points="734.5,787 836.2,728.3 764.2,686.8 662.6,745.5 "/>
<polygon class="st59" points="734.5,788.6 836.2,729.9 836.2,728.3 734.5,787 "/>
<polygon class="st3" points="736.1,789.5 837.8,730.8 836.2,729.9 734.5,788.6 "/>
<path class="st19" d="M737.3,791.6l-0.6-0.3l-2.8-1.6l-0.6-0.3v-1.6l-70.8-40.9v-1.4l71.4,41.2l0.6,0.3v1.6l1.6,0.9v-1.6l0.6,0.3
	l4,2.3c1.7,1,3,3.3,3,5.2v10c0,1.9-1.3,2.7-3,1.7l-4-2.3l-0.6-0.3v-1.6l-1.6-0.9v1.6l-0.6-0.3l-71.3-41.2V761l70.8,40.9V801v-0.7
	l0.6,0.3l2.8,1.6l0.6,0.3v1.6l3.4,2c1,0.6,1.8,0.1,1.8-1v-10c0-1.1-0.8-2.5-1.8-3.1l-3.4-2L737.3,791.6L737.3,791.6z"/>
<polygon class="st18" points="740.8,790.6 842.4,731.9 837.8,729.3 736.1,788 "/>
<linearGradient id="SVGID_00000173142934654035677810000012652515736852084907_" gradientUnits="userSpaceOnUse" x1="2678.1284" y1="376.3162" x2="2686.0671" y2="390.0664" gradientTransform="matrix(-1 0 0 -1 3475.1067 1152.8131)">
	<stop  offset="0.6411" style="stop-color:#2B2B66"/>
	<stop  offset="0.7839" style="stop-color:#3A387B"/>
	<stop  offset="1" style="stop-color:#4F54A0"/>
</linearGradient>
<path style="fill:url(#SVGID_00000173142934654035677810000012652515736852084907_);" d="M743.8,805.8v-10c0-1.9-1.3-4.3-3-5.2
	l101.6-58.7c1.7,1,3,3.3,3,5.2v10c0,1-0.4,1.7-0.9,2l0,0L743,807.7l0,0C743.5,807.3,743.8,806.7,743.8,805.8z"/>
<polygon class="st18" points="733.3,800.3 736.1,798.7 740.2,801 737.3,802.6 "/>
<polygon class="st19" points="737.3,790 738.7,790.8 737.3,791.6 "/>
<polygon class="st59" points="737.3,802.6 740.2,801 740.2,802.5 737.3,804.2 "/>
<polygon class="st19" points="734.5,802.4 735.9,803.1 734.5,803.9 "/>
<path class="st77" d="M706.2,806.2c0.2,2.5,1.4,9.3,1.9,12.2c8.8-13.6,15.8-19.8,24.7-25c-2.3-1.3-8.9-5.1-13.9-8
	c-8.8,5.1-18.6,16-24.7,25C698,808.6,702.1,807.1,706.2,806.2z"/>
<linearGradient id="SVGID_00000029725751635946923580000002291311941899424140_" gradientUnits="userSpaceOnUse" x1="626.8946" y1="342.9153" x2="679.8727" y2="342.9153" gradientTransform="matrix(1 0 0 -1 0 1152.8131)">
	<stop  offset="0.4265" style="stop-color:#C3C9E7"/>
	<stop  offset="0.6283" style="stop-color:#DCE0F2"/>
	<stop  offset="0.8647" style="stop-color:#F6F7FC"/>
	<stop  offset="1" style="stop-color:#FFFFFF"/>
</linearGradient>
<path style="fill:url(#SVGID_00000029725751635946923580000002291311941899424140_);" d="M672.1,799.1c-5.5-3.2-12.9-4.7-20.1-4.5
	h-11.3v1.9c-2.2,0.7-4.2,1.5-6,2.6c-10.3,6-10.2,15.7,0.1,21.7c1.8,1,3.8,1.9,5.9,2.5v1.9h13.6c6.5-0.1,13-1.6,18-4.5
	C682.5,814.8,682.4,805.1,672.1,799.1z"/>
<g>
	
		<linearGradient id="SVGID_00000016063604994313716530000013308610467094865811_" gradientUnits="userSpaceOnUse" x1="615.2" y1="339.7065" x2="668.2" y2="339.7065" gradientTransform="matrix(1 0 0 -1 0 1152.8131)">
		<stop  offset="0" style="stop-color:#7377B7"/>
		<stop  offset="1" style="stop-color:#434697"/>
	</linearGradient>
	<path style="fill:url(#SVGID_00000016063604994313716530000013308610467094865811_);" d="M623,820.8c-5.2-3-7.8-7-7.8-10.9v-9
		c0,4,2.6,7.9,7.8,10.9c10.4,6,27.2,6,37.5,0c5.1-3,7.7-6.9,7.7-10.8v9c0,3.9-2.6,7.8-7.7,10.8C650.2,826.8,633.4,826.8,623,820.8z"
		/>
	<path class="st10" d="M623.1,811.8c-10.4-6-10.4-15.7-0.1-21.7c10.3-6,27.1-6,37.5,0s10.4,15.7,0.1,21.7
		C650.2,817.8,633.4,817.8,623.1,811.8z"/>
	<polygon class="st102" points="653.1,794.1 647.8,800.1 656,804.8 644.6,803.7 639.3,809.7 637.5,803.1 626.1,802.1 636.4,799 
		634.6,792.4 642.8,797.1 	"/>
</g>
<linearGradient id="SVGID_00000134239578958132637200000018149644677241131420_" gradientUnits="userSpaceOnUse" x1="594.5322" y1="422.1065" x2="704.557" y2="422.1065" gradientTransform="matrix(1 0 0 -1 0 1152.8131)">
	<stop  offset="0" style="stop-color:#CBCACA"/>
	<stop  offset="0.2437" style="stop-color:#D2D1D2"/>
	<stop  offset="0.6392" style="stop-color:#E7E6E7"/>
	<stop  offset="1" style="stop-color:#FFFFFF"/>
</linearGradient>
<path style="fill:url(#SVGID_00000134239578958132637200000018149644677241131420_);" d="M700,697.3c-0.8,0-1.6,0.2-2.3,0.6
	c-0.4,0.2-1.5,0.9-2.5,1.5l-0.5-0.3c-0.2-0.1-0.5-0.1-0.8,0c-0.1,0-9,5.2-9,5.2c-0.1,0.1-0.2,0.1-0.3,0.2l-0.4,0.6l-82.5,50.8
	l-5.3,8.2l13.9-4.4l78.2-45.1c0.2,0.1,0.5,0.1,0.8,0l9-5.2c0.1-0.1,0.2-0.1,0.3-0.2l0.6-0.9l3.3-1.9c1.4-0.9,2.3-2.4,2.3-4.2
	C704.8,699.5,702.7,697.3,700,697.3z"/>
<g>
	
		<linearGradient id="SVGID_00000149355153158826749450000007869605189452660379_" gradientUnits="userSpaceOnUse" x1="690.0621" y1="456.5469" x2="695.0976" y2="448.1871" gradientTransform="matrix(1 0 0 -1 0 1152.8131)">
		<stop  offset="0" style="stop-color:#5D62AA"/>
		<stop  offset="1" style="stop-color:#37348B"/>
	</linearGradient>
	<path style="fill:url(#SVGID_00000149355153158826749450000007869605189452660379_);" d="M692.1,695.6c-0.8,0-1.6,0.2-2.3,0.6
		c-0.4,0.3-2,1.2-3.2,1.8c0.3,0.1,0.6,0.2,0.9,0.4c2.2,1.3,3.9,4.3,3.9,6.8c0,0.6-0.1,1-0.3,1.4l3.5-2c1.4-0.9,2.3-2.4,2.3-4.2
		C697,697.8,694.8,695.6,692.1,695.6z"/>
	
		<linearGradient id="SVGID_00000082365831157290148790000002550141344380809865_" gradientUnits="userSpaceOnUse" x1="600.2091" y1="394.3441" x2="595.4766" y2="402.6467" gradientTransform="matrix(1 0 0 -1 0 1152.8131)">
		<stop  offset="0" style="stop-color:#BBC0E2"/>
		<stop  offset="0.9067" style="stop-color:#F1F1F9"/>
		<stop  offset="1" style="stop-color:#F7F6FB"/>
	</linearGradient>
	<path style="fill:url(#SVGID_00000082365831157290148790000002550141344380809865_);" d="M592.9,756.2c0.7,0.4,1.3,1.4,1.3,2.2
		c0,0.5-0.2,0.8-0.5,0.9l8.9-1.3l1.9-2.7l-1.9-4.9l-3.8-2.2l-6.8,8C592.1,756,592.5,756,592.9,756.2z"/>
	
		<linearGradient id="SVGID_00000147207613411423626660000011776387160729868223_" gradientUnits="userSpaceOnUse" x1="592.227" y1="392.9079" x2="590.2341" y2="395.482" gradientTransform="matrix(1 0 0 -1 0 1152.8131)">
		<stop  offset="0" style="stop-color:#37348B"/>
		<stop  offset="1" style="stop-color:#7276B7"/>
	</linearGradient>
	<path style="fill:url(#SVGID_00000147207613411423626660000011776387160729868223_);" d="M592.9,756.2c-0.4-0.2-0.8-0.2-1,0
		l-0.1,0.1l-3.2,3.7l4.9-0.7h0.1c0.3-0.1,0.5-0.4,0.5-0.9C594.2,757.6,593.6,756.7,592.9,756.2z"/>
	<path class="st39" d="M677.6,711.1c-0.3-0.2-0.7-0.6-0.9-1l-1.5-4c-0.1-0.4-0.1-0.9,0.2-1.2l1.5-2.1c0.2-0.3,0.7-0.4,1-0.2l3.1,1.8
		c0.3,0.2,0.7,0.6,0.9,1l1.5,4c0.1,0.4,0.1,0.9-0.2,1.2l-1.5,2.1c-0.2,0.3-0.7,0.4-1,0.2L677.6,711.1z"/>
	<polygon class="st18" points="683,709.9 604.4,755.3 602.5,750.4 681.1,705 	"/>
	<polygon class="st19" points="681.1,712.6 602.5,758 604.4,755.3 683,709.9 	"/>
	<polygon class="st37" points="681.1,705 602.5,750.4 598.7,748.2 677.3,702.8 	"/>
	<g>
		
			<linearGradient id="SVGID_00000183248768248863044120000017996016758214004652_" gradientUnits="userSpaceOnUse" x1="687.4766" y1="443.8999" x2="681.9509" y2="453.1908" gradientTransform="matrix(1 0 0 -1 0 1152.8131)">
			<stop  offset="7.383770e-02" style="stop-color:#A3A9D0"/>
			<stop  offset="0.137" style="stop-color:#CFD2EB"/>
			<stop  offset="0.5586" style="stop-color:#CFD2EB"/>
			<stop  offset="0.6895" style="stop-color:#F7F6FB"/>
		</linearGradient>
		<path style="fill:url(#SVGID_00000183248768248863044120000017996016758214004652_);" d="M692.3,704.2l-1.5-4
			c-0.1-0.4-0.5-0.8-0.9-1l-3.1-1.8c-0.2-0.1-0.5-0.1-0.8,0c-0.1,0-9,5.2-9,5.2c0.2-0.1,0.5-0.1,0.7,0l3.1,1.8
			c0.3,0.2,0.7,0.6,0.9,1l1.5,4c0.1,0.4,0.1,0.9-0.2,1.2l-1.5,2.1c-0.1,0.1-0.1,0.1-0.2,0.2l8.9-5.1c0.1-0.1,0.2-0.1,0.3-0.2
			l1.5-2.1C692.4,705.1,692.4,704.5,692.3,704.2z"/>
		
			<linearGradient id="SVGID_00000156552018388237525090000015509866066350093232_" gradientUnits="userSpaceOnUse" x1="684.6022" y1="441.8543" x2="677.7332" y2="450.5813" gradientTransform="matrix(1 0 0 -1 0 1152.8131)">
			<stop  offset="0.5586" style="stop-color:#D2D7EE"/>
			<stop  offset="0.6895" style="stop-color:#F1F1F6"/>
		</linearGradient>
		<path style="fill:url(#SVGID_00000156552018388237525090000015509866066350093232_);" d="M682.8,712.1c0.1-0.1,0.1-0.1,0.2-0.2
			l1.5-2.1c0.2-0.3,0.3-0.9,0.1-1.2l-1.5-4c-0.1-0.4-0.5-0.8-0.9-1l-3.1-1.8c-0.2-0.1-0.5-0.1-0.7,0l-0.6,0.4c0.2-0.1,0.5-0.1,0.7,0
			l3.1,1.8c0.3,0.2,0.7,0.6,0.9,1l1.5,4c0.1,0.4,0.1,0.9-0.1,1.2l-1.5,2.1c-0.1,0.1-0.1,0.1-0.2,0.2L682.8,712.1z"/>
		
			<linearGradient id="SVGID_00000016793753136872188750000017010108525485136814_" gradientUnits="userSpaceOnUse" x1="685.9125" y1="442.6049" x2="679.0434" y2="451.3319" gradientTransform="matrix(1 0 0 -1 0 1152.8131)">
			<stop  offset="0.5586" style="stop-color:#D2D7EE"/>
			<stop  offset="0.6895" style="stop-color:#F1F1F6"/>
		</linearGradient>
		<path style="fill:url(#SVGID_00000016793753136872188750000017010108525485136814_);" d="M684.1,711.4c0.1,0,0.1-0.1,0.2-0.2
			l1.5-2.1c0.2-0.3,0.3-0.9,0.2-1.2l-1.5-4c-0.1-0.4-0.5-0.8-0.9-1l-3.1-1.8c-0.2-0.1-0.5-0.1-0.7,0l-0.6,0.4c0.2-0.1,0.5-0.1,0.7,0
			l3.1,1.8c0.3,0.2,0.7,0.6,0.9,1l1.5,4c0.1,0.4,0.1,0.9-0.2,1.2l-1.5,2.1c-0.1,0.1-0.1,0.1-0.2,0.2L684.1,711.4z"/>
		
			<linearGradient id="SVGID_00000175319484499115239340000015970497563279018167_" gradientUnits="userSpaceOnUse" x1="687.2724" y1="443.3924" x2="680.4029" y2="452.1198" gradientTransform="matrix(1 0 0 -1 0 1152.8131)">
			<stop  offset="0.5586" style="stop-color:#D2D7EE"/>
			<stop  offset="0.6895" style="stop-color:#F1F1F6"/>
		</linearGradient>
		<path style="fill:url(#SVGID_00000175319484499115239340000015970497563279018167_);" d="M685.5,710.6c0.1-0.1,0.2-0.1,0.2-0.2
			l1.5-2.1c0.2-0.3,0.3-0.9,0.2-1.2l-1.5-4c-0.1-0.4-0.5-0.8-0.9-1l-3.1-1.8c-0.2-0.1-0.5-0.1-0.7,0l-0.7,0.4c0.2-0.1,0.5-0.1,0.7,0
			l3.1,1.8c0.3,0.2,0.7,0.6,0.9,1l1.5,4c0.1,0.4,0.1,0.9-0.2,1.2l-1.5,2.1c-0.1,0.1-0.1,0.1-0.2,0.2L685.5,710.6z"/>
	</g>
</g>
<linearGradient id="SVGID_00000080205517316811992970000014724794772434758057_" gradientUnits="userSpaceOnUse" x1="104.7" y1="652.4805" x2="245.3" y2="652.4805" gradientTransform="matrix(1 0 0 -1 0 1152.8131)">
	<stop  offset="0.4164" style="stop-color:#C7CCE7"/>
	<stop  offset="0.5706" style="stop-color:#D1D5EC"/>
	<stop  offset="0.8507" style="stop-color:#EEEFF8"/>
	<stop  offset="1" style="stop-color:#FFFFFF"/>
</linearGradient>
<path style="fill:url(#SVGID_00000080205517316811992970000014724794772434758057_);" d="M245.3,484.3c-3.3-4.6-8.2-9-14.7-12.7
	c-23.4-13.5-59.7-15-85.9-4.4l-11.2,2.7c-3.2,1.3-6.3,2.7-9.1,4.4c-13.1,7.6-19.7,17.5-19.7,27.4s6.6,19.9,19.7,27.4
	c26.2,15.1,68.8,15.1,95,0c12.3-7.1,18.9-16.3,19.6-25.7c0.4-5.6-1.2-11.2-4.9-16.5L245.3,484.3z"/>
<g>
	<path class="st37" d="M120.7,444.3l38.4,31.8l47.5-27.4C183.3,435.2,146.9,433.7,120.7,444.3z"/>
	<path class="st38" d="M206.7,448.7l-47.5,27.4l62.2-14.7C218.1,456.8,213.2,452.4,206.7,448.7z"/>
	<path class="st14" d="M159.1,488.2l-38.4-31.8c-3.2,1.3-6.3,2.7-9.1,4.4C98.5,468.3,92,478.3,92,488.2c0,9.9,6.6,19.9,19.7,27.4
		c26.2,15.2,68.8,15.2,95,0c12.3-7.1,18.9-16.3,19.6-25.7c0.4-5.6-1.2-11.2-4.9-16.5L159.1,488.2z"/>
	
		<linearGradient id="SVGID_00000070830191805101406000000005951410740311216009_" gradientUnits="userSpaceOnUse" x1="92" y1="637.5941" x2="226.375" y2="637.5941" gradientTransform="matrix(1 0 0 -1 0 1152.8131)">
		<stop  offset="0" style="stop-color:#CFD2EB"/>
		<stop  offset="0.1439" style="stop-color:#CCCFEA"/>
		<stop  offset="1" style="stop-color:#BBC0E2"/>
	</linearGradient>
	<path style="fill:url(#SVGID_00000070830191805101406000000005951410740311216009_);" d="M226.3,490c-0.7,9.3-7.3,18.5-19.6,25.7
		c-26.2,15.2-68.8,15.1-95,0c-12.3-7.1-18.9-16.3-19.6-25.7H92v11.7c0,9.9,6.6,19.9,19.7,27.4c26.2,15.1,68.8,15.1,95,0
		c12.3-7.1,18.9-16.3,19.6-25.7c0.1-1.1,0.1-2.1,0-3.2V490z"/>
</g>
<polygon class="st44" points="221.3,473.5 159.1,488.2 159.1,476.1 221.3,461.4 "/>
<polygon class="st18" points="159.1,488.2 120.7,456.4 120.7,444.3 159.1,476.1 "/>
<linearGradient id="SVGID_00000027564538549635650780000001034653544119528340_" gradientUnits="userSpaceOnUse" x1="159.2" y1="671.9565" x2="223.7" y2="671.9565" gradientTransform="matrix(1 0 0 -1 0 1152.8131)">
	<stop  offset="0" style="stop-color:#C4CAE8"/>
	<stop  offset="6.779206e-02" style="stop-color:#C7CCE9"/>
	<stop  offset="0.5965" style="stop-color:#D5DAF0"/>
	<stop  offset="1" style="stop-color:#DADFF2"/>
</linearGradient>
<path style="fill:url(#SVGID_00000027564538549635650780000001034653544119528340_);" d="M223.7,477.4c-0.7-1.3-1.4-2.6-2.3-3.9
	l-62.2,14.7h19.1L223.7,477.4z"/>
<g>
	<path class="st14" d="M573.2,299.3c0-5.6-4-12.6-8.9-15.4l-59.1-34.1c-4.9-2.8-8.9-0.5-8.9,5.1v56.5c0,5.6,4,12.6,8.9,15.4
		l59.1,34.1c4.9,2.8,8.9,0.5,8.9-5.1V299.3z"/>
	
		<linearGradient id="SVGID_00000150801005503474523790000016048930883605069496_" gradientUnits="userSpaceOnUse" x1="519.2866" y1="915.2664" x2="585.7979" y2="800.0656" gradientTransform="matrix(1 0 0 -1 0 1152.8131)">
		<stop  offset="0.4551" style="stop-color:#4F54A0"/>
		<stop  offset="0.5113" style="stop-color:#45478F"/>
		<stop  offset="0.6241" style="stop-color:#2E2D69"/>
		<stop  offset="0.6348" style="stop-color:#2B2B66"/>
	</linearGradient>
	<path style="fill:url(#SVGID_00000150801005503474523790000016048930883605069496_);" d="M573.2,355.8v-56.4c0-5.6-4-12.6-8.9-15.4
		l-59.1-34.1c-2.4-1.4-4.6-1.5-6.2-0.6l4.6-2.7l0,0c1.6-1,3.9-1,6.4,0.5l59.1,34.1c4.9,2.8,8.9,9.7,8.9,15.4V353c0,3-1.1,5-2.8,5.8
		l-4.4,2.6C572.3,360.4,573.2,358.5,573.2,355.8z"/>
</g>
<g>
	<path class="st14" d="M631.2,225.4c0-5.6-4-12.6-8.9-15.4l-60.8-35.1c-4.9-2.8-8.9-0.5-8.9,5.1v56.4c0,5.6,4,12.6,8.9,15.4
		l60.8,35.1c4.9,2.8,8.9,0.5,8.9-5.1V225.4z"/>
	
		<linearGradient id="SVGID_00000081606432357060100970000003473856346471145132_" gradientUnits="userSpaceOnUse" x1="3711.064" y1="990.5094" x2="3643.6946" y2="873.8225" gradientTransform="matrix(-1 0 0 -1 4287.0713 1152.8131)">
		<stop  offset="0.4551" style="stop-color:#4F54A0"/>
		<stop  offset="0.5113" style="stop-color:#45478F"/>
		<stop  offset="0.6241" style="stop-color:#2E2D69"/>
		<stop  offset="0.6348" style="stop-color:#2B2B66"/>
	</linearGradient>
	<path style="fill:url(#SVGID_00000081606432357060100970000003473856346471145132_);" d="M631.2,281.8v-56.4c0-5.6-4-12.6-8.9-15.4
		l-60.8-35.1c-2.4-1.4-4.6-1.5-6.2-0.6l4.6-2.7l0,0c1.6-1,3.9-1,6.4,0.5l60.8,35.1c4.9,2.8,8.9,9.7,8.9,15.4V279c0,3-1.1,5-2.8,5.8
		l-4.4,2.6C630.2,286.4,631.2,284.5,631.2,281.8z"/>
</g>
<g>
	<path class="st14" d="M539.8,172.6c0-5.6-4-12.6-8.9-15.4l-60.8-35.1c-4.9-2.8-8.9-0.5-8.9,5.1v56.4c0,5.6,4,12.6,8.9,15.4
		l60.8,35.1c4.9,2.8,8.9,0.5,8.9-5.1V172.6z"/>
	
		<linearGradient id="SVGID_00000108274592848862904890000001050196966975310723_" gradientUnits="userSpaceOnUse" x1="3220.2297" y1="1043.3093" x2="3152.8606" y2="926.6224" gradientTransform="matrix(-1 0 0 -1 3704.8374 1152.8131)">
		<stop  offset="0.4551" style="stop-color:#4F54A0"/>
		<stop  offset="0.5113" style="stop-color:#45478F"/>
		<stop  offset="0.6241" style="stop-color:#2E2D69"/>
		<stop  offset="0.6348" style="stop-color:#2B2B66"/>
	</linearGradient>
	<path style="fill:url(#SVGID_00000108274592848862904890000001050196966975310723_);" d="M539.8,229v-56.4c0-5.6-4-12.6-8.9-15.4
		l-60.8-35.1c-2.4-1.4-4.6-1.5-6.2-0.6l4.6-2.7l0,0c1.6-1,3.9-1,6.4,0.5l60.8,35.1c4.9,2.8,8.9,9.7,8.9,15.4v56.4c0,3-1.1,5-2.8,5.8
		l-4.4,2.6C538.8,233.6,539.8,231.7,539.8,229z"/>
</g>
<g>
	<path class="st34" d="M498.3,174.6l-1.7-9.1c-1.1-5.8-1.6-9.7-1.6-11.6c0-1.8,0.5-3,1.5-3.6s2.3-0.4,3.9,0.5s2.9,2.3,3.9,4
		s1.5,3.6,1.5,5.5c0,2.1-0.5,5.3-1.5,9.6l-1.7,7.2c-0.8,3.6-1.3,6.7-1.5,9.5l-1.5-0.8C499.3,181.6,498.9,177.9,498.3,174.6z
		 M504.1,195.4c1,1.8,1.5,3.5,1.5,5.2s-0.5,2.8-1.5,3.4s-2.3,0.5-3.7-0.4c-1.5-0.8-2.7-2.2-3.7-3.9c-1-1.8-1.5-3.5-1.5-5.2
		s0.5-2.8,1.5-3.4s2.3-0.5,3.7,0.4C501.8,192.3,503.1,193.6,504.1,195.4z"/>
</g>
<g>
	<path class="st14" d="M664.6,352.1c0-5.6-4-12.6-8.9-15.4l-59.1-34.1c-4.9-2.8-8.9-0.5-8.9,5.1v56.4c0,5.6,4,12.6,8.9,15.4
		l59.1,34.1c4.9,2.8,8.9,0.5,8.9-5.1V352.1z"/>
	
		<linearGradient id="SVGID_00000091007769505075985150000000944318564934026886_" gradientUnits="userSpaceOnUse" x1="610.6866" y1="862.4663" x2="677.1978" y2="747.2656" gradientTransform="matrix(1 0 0 -1 0 1152.8131)">
		<stop  offset="0.427" style="stop-color:#FBBA13"/>
		<stop  offset="0.5406" style="stop-color:#EFA90A"/>
		<stop  offset="0.6629" style="stop-color:#E09200"/>
	</linearGradient>
	<path style="fill:url(#SVGID_00000091007769505075985150000000944318564934026886_);" d="M664.6,408.6v-56.4c0-5.6-4-12.6-8.9-15.4
		l-59.1-34.1c-2.4-1.4-4.6-1.5-6.2-0.6l4.6-2.7l0,0c1.6-1,3.9-1,6.4,0.5l59.1,34.1c4.9,2.8,8.9,9.7,8.9,15.4v56.4c0,3-1.1,5-2.8,5.8
		l-4.4,2.6C663.7,413.2,664.6,411.2,664.6,408.6z"/>
</g>
<path class="st39" d="M638.3,375c-3.6,0.9-7.8,0-12.1-2.6c-4.2-2.4-8.3-6.2-11.8-10.9c-0.8-1.1-1.9-1.5-2.4-0.9s-0.3,2,0.5,3
	c4,5.5,8.8,9.9,13.7,12.7c5.1,2.9,10,4,14.1,3c0.8-0.2,1-1.3,0.4-2.6C640.2,375.6,639.1,374.8,638.3,375z M639.3,349.9
	c-1.8-1-3.2,0.8-3.2,4s1.4,6.6,3.2,7.7c1.8,1,3.2-0.8,3.2-4S641.1,350.9,639.3,349.9z M616.3,342.4c0-3.2-1.4-6.6-3.2-7.7
	c-1.8-1-3.2,0.8-3.2,4s1.4,6.6,3.2,7.7C614.8,347.4,616.3,345.6,616.3,342.4z"/>
<g>
	<path class="st14" d="M722.6,278.1c0-5.6-4-12.6-8.9-15.4l-60.8-35.1c-4.9-2.8-8.9-0.5-8.9,5.1v56.4c0,5.6,4,12.6,8.9,15.4
		l60.8,35.1c4.9,2.8,8.9,0.5,8.9-5.1V278.1z"/>
	
		<linearGradient id="SVGID_00000030481183663084864830000015854040237825825675_" gradientUnits="userSpaceOnUse" x1="3619.6638" y1="937.7094" x2="3552.2949" y2="821.0225" gradientTransform="matrix(-1 0 0 -1 4287.0713 1152.8131)">
		<stop  offset="0.4551" style="stop-color:#4F54A0"/>
		<stop  offset="0.5113" style="stop-color:#45478F"/>
		<stop  offset="0.6241" style="stop-color:#2E2D69"/>
		<stop  offset="0.6348" style="stop-color:#2B2B66"/>
	</linearGradient>
	<path style="fill:url(#SVGID_00000030481183663084864830000015854040237825825675_);" d="M722.6,334.6v-56.4c0-5.6-4-12.6-8.9-15.4
		l-60.8-35.1c-2.4-1.4-4.6-1.5-6.2-0.6l4.6-2.7l0,0c1.6-1,3.9-1,6.4,0.5l60.8,35.1c4.9,2.8,8.9,9.7,8.9,15.4v56.4c0,3-1.1,5-2.8,5.8
		l-4.4,2.6C721.7,339.2,722.6,337.3,722.6,334.6z"/>
</g>
<path class="st39" d="M676.9,263.5l8.6,40.9c0.2,1.1,1.1,2.1,1.9,2.3c0.8,0.2,1.3-0.5,1.1-1.5l-8.6-40.9c-0.2-1.1-1.1-2.1-1.9-2.3
	C677.1,261.8,676.7,262.5,676.9,263.5z M690.2,278.9l12.6,17.3l-12.6,2.7c-0.7,0.1-0.9,1.1-0.4,2.2s1.4,1.8,2.1,1.7l14.4-3.1
	c0.4-0.1,0.7-0.5,0.7-1.1s-0.2-1.2-0.7-1.8L691.9,277c-0.7-0.9-1.6-1.3-2.1-0.8C689.3,276.8,689.5,278,690.2,278.9z M657.2,269.9
	c0,0.6,0.2,1.2,0.7,1.8l14.4,19.8c0.7,0.9,1.6,1.3,2.1,0.8s0.3-1.7-0.4-2.6l-12.6-17.3l12.6-2.7c0.7-0.1,0.9-1.1,0.4-2.2
	s-1.4-1.8-2.1-1.7l-14.4,3.1C657.5,268.9,657.2,269.3,657.2,269.9z"/>
<g>
	<path class="st39" d="M512.5,294.4c0-2.7,1.9-3.8,4.3-2.5c2.4,1.4,4.3,4.7,4.3,7.4c0,2.7-1.9,3.8-4.3,2.5S512.5,297.2,512.5,294.4z
		"/>
	<path class="st39" d="M529.1,304c0-2.7,1.9-3.8,4.3-2.5c2.4,1.4,4.3,4.7,4.3,7.4c0,2.7-1.9,3.8-4.3,2.5S529.1,306.8,529.1,304z"/>
	<path class="st39" d="M545.7,313.6c0-2.7,1.9-3.8,4.3-2.5c2.4,1.4,4.3,4.7,4.3,7.4c0,2.7-1.9,3.8-4.3,2.5
		C547.6,319.7,545.7,316.3,545.7,313.6z"/>
</g>
<path class="st39" d="M604.2,243.9c0.5-2.1,4.5-0.3,6,0.6v-5.3c-1.6-0.9-5.5-3.7-6-6.3c-0.2-0.9-0.5-1.8-0.8-2.7
	c-1.1-2.7,1.4-4.8,2.5-5.5l-3.2-5.6c-1,0.5-3.2,1.3-5,0.3c-0.4-0.2-0.7-0.5-1-0.9c-0.6-0.7-1.3-1.4-1.9-2c-2.1-1.8-2.5-6.6-2.5-8.4
	l-4.6-2.7c0,1.8-0.5,6-2.5,5.5c-0.7-0.1-1.3-0.2-1.9-0.2c-0.3,0-0.7-0.1-1-0.3c-1.8-1-4-4.5-5-6l-3.3,1.9c1.3,2,3.6,6.9,2.5,8.4
	c-0.3,0.5-0.6,1.1-0.8,1.7c-0.5,2.1-4.5,0.3-6-0.6v5.3c1.6,0.9,5.5,3.7,6,6.3c0.2,0.9,0.5,1.8,0.8,2.7c1.1,2.7-1.4,4.8-2.5,5.5
	l3.2,5.6c0.9-0.5,3.2-1.3,5-0.3c0.4,0.2,0.7,0.5,1,0.9c0.6,0.7,1.3,1.4,1.9,2c2.1,2.3,2.5,6.5,2.5,8.4l4.6,2.7c0-1.8,0.5-6,2.5-5.5
	c0.7,0.1,1.3,0.2,1.9,0.2c0.3,0,0.7,0.1,1,0.3c1.8,1,4,4.5,5,6l3.3-1.9c-1.1-1.9-3.6-6.9-2.5-8.4
	C603.7,245.1,603.9,244.5,604.2,243.9z M589.9,239.5c-4.5-2.6-8.2-8.9-8.1-14.1c0-5.2,3.7-7.3,8.2-4.7c4.5,2.6,8.2,8.9,8.1,14.1
	S594.4,242.1,589.9,239.5z"/>
<g>
	<path class="st39" d="M591.2,91.6V32.5c28.3,16.3,51.2,56,51.2,88.6s-22.9,45.8-51.2,29.5C563,134.3,540,94.6,540,62
		c0-4,0.3-7.7,1-11.1L591.2,91.6z"/>
	<path class="st77" d="M591.2,32.6v59.1l-45-54.1C554.8,24.1,571.7,21.3,591.2,32.6z"/>
	<path class="st19" d="M591.2,91.6L541,51c1-5.3,2.8-9.8,5.2-13.5L591.2,91.6z"/>
	<path class="st40" d="M596.8,29.3c28.2,16.3,51.2,56,51.2,88.6c0,16.1-5.6,27.4-14.6,32.9l0,0l-0.2,0.1c-0.1,0.1-0.3,0.2-0.4,0.2
		l-5.1,2.9c9.1-5.4,14.7-16.8,14.7-32.9c0-32.6-22.9-72.3-51.2-88.6l0,0L596.8,29.3L596.8,29.3z"/>
	<path class="st119" d="M560.6,25.8c9.3-5.4,22.1-4.6,36.2,3.5l-5.6,3.2c-13.7-7.9-26.2-8.9-35.4-4l0,0L560.6,25.8z"/>
</g>
</svg>
